<?xml version="1.0" standalone="no"?>
<!DOCTYPE svg PUBLIC "-//W3C//DTD SVG 20010904//EN"
 "http://www.w3.org/TR/2001/REC-SVG-20010904/DTD/svg10.dtd">
<svg version="1.0" xmlns="http://www.w3.org/2000/svg"
 width="50.000000pt" height="82.000000pt" viewBox="0 0 50.000000 82.000000"
 preserveAspectRatio="xMidYMid meet">

<g transform="translate(0.000000,82.000000) scale(0.100000,-0.100000)"
fill="#0000ff" stroke="none">
<path d="M174 787 c-82 -31 -138 -93 -160 -176 -14 -56 -6 -114 28 -193 36
-84 200 -398 208 -398 9 0 214 405 230 454 29 92 5 191 -65 259 -61 59 -165
83 -241 54z m171 -25 c63 -31 114 -96 129 -168 10 -47 -10 -119 -67 -231 -60
-120 -82 -139 -30 -26 34 75 73 177 73 195 0 4 -16 8 -35 8 -29 0 -36 -5 -50
-34 -22 -47 -60 -70 -115 -70 -55 0 -93 23 -115 70 -14 29 -21 34 -50 34 -19
0 -35 -4 -35 -8 0 -20 50 -152 79 -209 17 -35 28 -63 23 -63 -14 0 -110 201
-122 254 -39 176 153 328 315 248z"/>
<path d="M205 648 c-107 -58 -36 -232 77 -189 60 23 87 96 58 152 -22 40 -93
60 -135 37z m102 -30 c42 -45 31 -112 -22 -134 -60 -25 -114 10 -115 75 0 73
89 111 137 59z"/>
</g>
</svg>
