<?xml version="1.0" standalone="no"?>
<!DOCTYPE svg PUBLIC "-//W3C//DTD SVG 20010904//EN"
 "http://www.w3.org/TR/2001/REC-SVG-20010904/DTD/svg10.dtd">
<svg version="1.0" xmlns="http://www.w3.org/2000/svg"
 width="691.000000pt" height="585.000000pt" viewBox="0 0 691.000000 585.000000"
 preserveAspectRatio="xMidYMid meet">

<g transform="translate(0.000000,585.000000) scale(0.100000,-0.100000)"
fill="#F0324C" stroke="none">
<path d="M1115 5728 c-143 -4 -325 -8 -405 -10 l-145 -3 3 -150 c10 -533 94
-1076 247 -1603 25 -84 45 -158 45 -166 0 -7 -41 -25 -102 -44 -188 -58 -322
-80 -562 -93 -105 -5 -191 -11 -193 -13 -7 -6 148 -436 214 -594 35 -86 70
-169 76 -184 10 -25 17 -28 57 -28 147 0 468 63 685 134 76 25 140 44 141 43
1 -1 25 -49 54 -107 72 -144 178 -331 274 -485 45 -71 82 -133 84 -136 3 -8
-163 -74 -283 -112 -148 -48 -301 -88 -439 -115 l-137 -28 133 -199 c121 -182
294 -420 365 -503 l28 -33 135 40 c232 68 513 173 654 243 l59 30 131 -138
c155 -163 323 -327 424 -414 l72 -63 -32 -20 c-106 -65 -493 -242 -683 -311
-55 -20 -108 -40 -118 -44 -14 -6 6 -28 107 -120 147 -133 333 -288 490 -407
l113 -86 192 91 c189 89 379 191 556 298 50 30 95 55 100 55 6 0 37 -17 70
-38 119 -77 444 -252 608 -328 l167 -78 33 23 c136 95 380 295 570 467 105 95
125 117 110 123 -10 4 -65 25 -123 46 -168 62 -322 130 -524 230 l-189 95 59
50 c109 94 447 429 533 529 l31 36 108 -48 c158 -71 437 -173 602 -220 l144
-42 24 28 c131 159 492 677 492 707 0 3 -30 10 -67 16 -195 33 -641 164 -751
220 l-32 16 61 95 c87 134 185 304 275 477 42 81 79 150 81 152 2 2 63 -14
136 -37 172 -55 265 -78 407 -102 168 -29 302 -40 317 -26 30 28 273 662 298
774 6 31 6 32 -27 32 -107 1 -359 21 -439 35 -176 30 -379 88 -379 107 0 6 14
54 31 107 154 480 268 1200 269 1693 l0 116 -27 6 c-22 4 -629 21 -758 21
l-30 0 -7 -185 c-10 -291 -39 -551 -94 -835 -26 -133 -102 -457 -110 -464 -7
-7 -53 39 -132 134 -221 263 -380 594 -446 925 -21 107 -46 325 -46 406 l0 24
-413 0 -414 0 -6 -164 c-20 -493 -143 -997 -355 -1448 -28 -60 -53 -108 -56
-108 -4 0 -25 39 -47 88 -225 483 -340 950 -365 1485 l-7 147 -412 0 -413 0
-7 -97 c-25 -386 -117 -691 -297 -992 -99 -163 -297 -406 -316 -386 -23 24
-117 456 -151 695 -31 220 -40 321 -51 557 -6 119 -11 217 -13 217 -1 1 -119
-2 -262 -6z m1459 -1775 c67 -159 199 -421 290 -573 l74 -124 -61 -69 c-66
-74 -241 -241 -347 -329 -88 -74 -199 -158 -209 -158 -24 0 -336 533 -400 682
l-20 47 55 41 c135 102 396 376 513 538 24 34 47 62 51 62 3 0 27 -53 54 -117z
m1851 74 c129 -186 401 -469 559 -583 l29 -21 -51 -104 c-112 -228 -349 -619
-374 -619 -37 1 -410 326 -545 477 l-71 79 74 124 c93 154 237 439 295 583 24
59 45 107 49 107 3 0 18 -19 35 -43z m-937 -1468 c49 -59 307 -292 445 -402
75 -61 137 -113 137 -117 0 -12 -299 -300 -410 -396 -153 -131 -198 -166 -209
-162 -55 19 -612 535 -610 565 0 4 28 28 62 53 107 78 308 253 427 372 63 64
119 116 123 117 5 0 20 -13 35 -30z"/>
</g>
</svg>
