<svg xmlns="http://www.w3.org/2000/svg" xmlns:xlink="http://www.w3.org/1999/xlink" viewBox="0 0 248.19 47.21"><defs><style>.cls-1{fill:url(#linear-gradient);}.cls-2{fill:url(#linear-gradient-2);}</style><linearGradient id="linear-gradient" x1="12.93" y1="-2.91" x2="59.41" y2="43.57" gradientUnits="userSpaceOnUse"><stop offset="0" stop-color="#662d91"/><stop offset="0.46" stop-color="#ab2585"/><stop offset="0.82" stop-color="#db207c"/><stop offset="1" stop-color="#ed1e79"/></linearGradient><linearGradient id="linear-gradient-2" x1="0.54" y1="9.48" x2="47.01" y2="55.96" xlink:href="#linear-gradient"/></defs><title>OrtakGirisLogo_1</title><g id="Layer_2" data-name="Layer 2"><g id="Layer_1-2" data-name="Layer 1"><path d="M88.2,17.21c0,5.32-3.23,8.14-7.17,8.14s-6.94-3.16-6.94-7.84c0-4.9,3-8.11,7.17-8.11S88.2,12.63,88.2,17.21Zm-12,.26c0,3.3,1.79,6.25,4.93,6.25s4.95-2.91,4.95-6.41c0-3.07-1.61-6.28-4.93-6.28S76.22,14.07,76.22,17.47Z"/><path d="M90.73,17.47c0-1.31,0-2.43-.1-3.46H92.4l.07,2.17h.09a3.33,3.33,0,0,1,3.07-2.43,2.4,2.4,0,0,1,.57.07v1.9a3.37,3.37,0,0,0-.68-.06,2.83,2.83,0,0,0-2.71,2.59,6.25,6.25,0,0,0-.09.94V25.1h-2Z"/><path d="M101.2,10.82V14h2.89v1.53H101.2v6c0,1.38.39,2.16,1.51,2.16a4.39,4.39,0,0,0,1.17-.14l.09,1.51a4.94,4.94,0,0,1-1.79.28,2.78,2.78,0,0,1-2.17-.85,4.08,4.08,0,0,1-.78-2.89V15.54H97.51V14h1.72V11.35Z"/><path d="M112.5,25.1l-.16-1.4h-.07a4.13,4.13,0,0,1-3.39,1.65,3.17,3.17,0,0,1-3.4-3.19c0-2.68,2.39-4.14,6.67-4.12v-.23a2.29,2.29,0,0,0-2.52-2.57,5.49,5.49,0,0,0-2.89.83l-.45-1.33a6.81,6.81,0,0,1,3.64-1c3.39,0,4.22,2.32,4.22,4.54v4.15a15.45,15.45,0,0,0,.18,2.66Zm-.3-5.66c-2.2-.05-4.7.34-4.7,2.5a1.78,1.78,0,0,0,1.9,1.92A2.75,2.75,0,0,0,112.08,22a2,2,0,0,0,.12-.64Z"/><path d="M119.39,19.09h0c.28-.39.67-.87,1-1.26L123.68,14h2.43l-4.29,4.56,4.89,6.53h-2.46l-3.82-5.32-1,1.15V25.1h-2V8.83h2Z"/><path d="M144.83,24.41a14.38,14.38,0,0,1-4.74.85,8,8,0,0,1-5.78-2,8,8,0,0,1-2.15-5.75c0-4.61,3.19-8,8.36-8a9.54,9.54,0,0,1,3.85.71l-.48,1.63a7.9,7.9,0,0,0-3.41-.67c-3.76,0-6.21,2.34-6.21,6.21s2.36,6.24,6,6.24a6.62,6.62,0,0,0,2.65-.41V18.59h-3.13V17h5.08Z"/><path d="M150.06,10.89a1.25,1.25,0,0,1-2.5,0,1.23,1.23,0,0,1,1.26-1.26A1.2,1.2,0,0,1,150.06,10.89ZM147.81,25.1V14h2V25.1Z"/><path d="M153.18,17.47c0-1.31,0-2.43-.1-3.46h1.77l.07,2.17H155a3.33,3.33,0,0,1,3.07-2.43,2.4,2.4,0,0,1,.57.07v1.9a3.4,3.4,0,0,0-.69-.06,2.82,2.82,0,0,0-2.7,2.59,5.17,5.17,0,0,0-.09.94V25.1h-2Z"/><path d="M163,10.89a1.25,1.25,0,0,1-2.5,0,1.23,1.23,0,0,1,1.26-1.26A1.2,1.2,0,0,1,163,10.89ZM160.76,25.1V14h2V25.1Z"/><path d="M171.72,15.91a4.29,4.29,0,0,0-2.27-.64c-1.19,0-1.86.68-1.86,1.51s.67,1.33,2.11,1.88c1.92.73,2.91,1.69,2.91,3.34a3.22,3.22,0,0,1-3,3.21l-.64,1a1.71,1.71,0,0,1,1.61,1.58c0,1.36-1.1,1.86-2.39,1.86a3.33,3.33,0,0,1-1.56-.39l.35-1a2.36,2.36,0,0,0,1.24.34c.5,0,1-.18,1-.73s-.71-.87-1.79-1l.92-1.62a6.36,6.36,0,0,1-3-.76l.51-1.53a5.36,5.36,0,0,0,2.66.8c1.46,0,2.15-.74,2.15-1.65s-.57-1.49-2.06-2c-2-.71-2.93-1.81-2.93-3.14,0-1.79,1.44-3.26,3.82-3.26a5.49,5.49,0,0,1,2.73.69Z"/><path d="M180.13,25.1V9.65h2.17l4.95,7.82a43.47,43.47,0,0,1,2.78,5l0,0c-.18-2.06-.23-3.94-.23-6.35V9.65h1.88V25.1h-2l-4.91-7.84a48.16,48.16,0,0,1-2.89-5.16l-.07,0c.12,1.94.17,3.8.17,6.37v6.6Z"/><path d="M205.17,19.46c0,4.1-2.84,5.89-5.52,5.89-3,0-5.31-2.2-5.31-5.71,0-3.71,2.42-5.89,5.49-5.89S205.17,16.07,205.17,19.46Zm-8.8.12c0,2.42,1.4,4.26,3.37,4.26s3.37-1.81,3.37-4.31c0-1.88-.94-4.26-3.32-4.26S196.37,17.47,196.37,19.58Z"/><path d="M209.71,19.09h0c.27-.39.66-.87,1-1.26L214,14h2.43l-4.29,4.56L217,25.1h-2.45l-3.83-5.32-1,1.15V25.1h-2V8.83h2Z"/><path d="M220.9,10.82V14h2.88v1.53H220.9v6c0,1.38.39,2.16,1.51,2.16a4.39,4.39,0,0,0,1.17-.14l.09,1.51a4.94,4.94,0,0,1-1.79.28,2.81,2.81,0,0,1-2.18-.85,4.13,4.13,0,0,1-.77-2.89V15.54h-1.72V14h1.72V11.35Z"/><path d="M232.19,25.1,232,23.7H232a4.15,4.15,0,0,1-3.4,1.65,3.16,3.16,0,0,1-3.39-3.19c0-2.68,2.39-4.14,6.67-4.12v-.23a2.29,2.29,0,0,0-2.52-2.57,5.49,5.49,0,0,0-2.89.83L226,14.74a6.87,6.87,0,0,1,3.65-1c3.39,0,4.21,2.32,4.21,4.54v4.15A15.39,15.39,0,0,0,234,25.1Zm-.29-5.66c-2.2-.05-4.7.34-4.7,2.5a1.78,1.78,0,0,0,1.9,1.92A2.76,2.76,0,0,0,231.78,22a2,2,0,0,0,.12-.64Z"/><path d="M236.82,23a5.4,5.4,0,0,0,2.66.8c1.47,0,2.16-.74,2.16-1.65s-.58-1.49-2.07-2c-2-.71-2.93-1.81-2.93-3.14,0-1.79,1.44-3.26,3.83-3.26a5.52,5.52,0,0,1,2.73.69l-.51,1.47a4.27,4.27,0,0,0-2.27-.64c-1.19,0-1.85.68-1.85,1.51s.66,1.33,2.1,1.88c1.93.73,2.91,1.69,2.91,3.34,0,1.95-1.51,3.33-4.14,3.33a6.31,6.31,0,0,1-3.12-.76Z"/><path d="M246.17,25.1V14h2V25.1Z"/><path d="M78.49,31.09v.45H76.55v5.11H76V31.54H74.09v-.45Z"/><path d="M78.34,35.82H79v.83h-.65Z"/><path d="M84.14,32.2a1.57,1.57,0,0,0-.39-.42,1.41,1.41,0,0,0-.5-.26,1.9,1.9,0,0,0-.58-.09,2,2,0,0,0-1,.21,1.75,1.75,0,0,0-.65.55,2.36,2.36,0,0,0-.38.78,3.42,3.42,0,0,0-.12.9,3.35,3.35,0,0,0,.12.89,2.41,2.41,0,0,0,.38.79,1.75,1.75,0,0,0,.65.55,2,2,0,0,0,1,.21,1.62,1.62,0,0,0,.7-.14,1.66,1.66,0,0,0,.53-.38,2,2,0,0,0,.37-.56,2.67,2.67,0,0,0,.18-.7H85a3.34,3.34,0,0,1-.24.93,2.38,2.38,0,0,1-.49.7,2,2,0,0,1-.69.44,2.35,2.35,0,0,1-.89.16,2.6,2.6,0,0,1-1.15-.24,2.37,2.37,0,0,1-.82-.63,2.63,2.63,0,0,1-.49-.92,3.64,3.64,0,0,1,0-2.2,2.55,2.55,0,0,1,.49-.92,2.28,2.28,0,0,1,.82-.64A2.6,2.6,0,0,1,82.67,31a2.53,2.53,0,0,1,.77.12,2.09,2.09,0,0,1,.68.35,2,2,0,0,1,.52.56,1.9,1.9,0,0,1,.26.77h-.53A1.8,1.8,0,0,0,84.14,32.2Z"/><path d="M86,35.82h.66v.83H86Z"/><path d="M88.33,35.54a1.14,1.14,0,0,0,.39.45,1.46,1.46,0,0,0,.58.25,3.23,3.23,0,0,0,.71.07,2.1,2.1,0,0,0,.48-.06,1.68,1.68,0,0,0,.48-.2,1.23,1.23,0,0,0,.37-.35.85.85,0,0,0,.14-.51.76.76,0,0,0-.1-.41,1.06,1.06,0,0,0-.27-.29,1.62,1.62,0,0,0-.37-.19l-.4-.12-1.24-.3a4.34,4.34,0,0,1-.47-.16,1.28,1.28,0,0,1-.4-.25,1.21,1.21,0,0,1-.28-.38,1.29,1.29,0,0,1-.1-.55,1.91,1.91,0,0,1,.08-.48,1.32,1.32,0,0,1,.29-.51,1.67,1.67,0,0,1,.59-.41,2.37,2.37,0,0,1,1-.17,2.9,2.9,0,0,1,.79.11,1.9,1.9,0,0,1,.65.33,1.57,1.57,0,0,1,.45.54,1.66,1.66,0,0,1,.17.75h-.53a1.31,1.31,0,0,0-.14-.55,1.21,1.21,0,0,0-.34-.4,1.31,1.31,0,0,0-.47-.24,1.79,1.79,0,0,0-.57-.08,2.24,2.24,0,0,0-.52.05,1.3,1.3,0,0,0-.45.19,1,1,0,0,0-.3.34,1,1,0,0,0-.12.52.74.74,0,0,0,.07.34.55.55,0,0,0,.18.24,1,1,0,0,0,.27.17l.32.1,1.35.33c.2.06.39.12.56.19a2.09,2.09,0,0,1,.46.28,1.24,1.24,0,0,1,.31.41,1.32,1.32,0,0,1,.11.59,1.29,1.29,0,0,1,0,.25,1.17,1.17,0,0,1-.09.33,1.9,1.9,0,0,1-.21.35,1.17,1.17,0,0,1-.37.32,2.14,2.14,0,0,1-.59.24,3.37,3.37,0,0,1-.84.09,3.28,3.28,0,0,1-.91-.12,2,2,0,0,1-.72-.34,1.58,1.58,0,0,1-.45-.6,1.86,1.86,0,0,1-.14-.88h.53A1.6,1.6,0,0,0,88.33,35.54Z"/><path d="M92.86,33.25a1.28,1.28,0,0,1,.34-.42,1.55,1.55,0,0,1,.5-.24,2.62,2.62,0,0,1,.64-.07,2.38,2.38,0,0,1,.53,0,1.13,1.13,0,0,1,.48.19,1,1,0,0,1,.34.39,1.41,1.41,0,0,1,.13.66v2.13a.26.26,0,0,0,.29.3.24.24,0,0,0,.15,0v.42l-.15,0H96a.78.78,0,0,1-.3,0,.38.38,0,0,1-.18-.15.48.48,0,0,1-.08-.22,2.3,2.3,0,0,1,0-.28h0a1.84,1.84,0,0,1-.27.34,1.22,1.22,0,0,1-.3.26,1.44,1.44,0,0,1-.38.15,1.88,1.88,0,0,1-.51.06,1.83,1.83,0,0,1-.53-.07,1,1,0,0,1-.42-.21.93.93,0,0,1-.29-.36,1.25,1.25,0,0,1-.11-.53,1.08,1.08,0,0,1,.19-.66,1.12,1.12,0,0,1,.49-.36,2.87,2.87,0,0,1,.7-.17l.78-.1.27,0a.6.6,0,0,0,.2-.08.48.48,0,0,0,.12-.16.7.7,0,0,0,0-.27,1,1,0,0,0-.08-.41.69.69,0,0,0-.23-.25,1,1,0,0,0-.33-.13,2.73,2.73,0,0,0-.41,0,1.2,1.2,0,0,0-.76.22.85.85,0,0,0-.31.71h-.5A1.88,1.88,0,0,1,92.86,33.25Zm2.45,1.2a.29.29,0,0,1-.17.13l-.24.05-.64.1a3.33,3.33,0,0,0-.6.13,1.28,1.28,0,0,0-.45.24.59.59,0,0,0-.18.46.73.73,0,0,0,.08.33.69.69,0,0,0,.2.25,1,1,0,0,0,.28.16,1.27,1.27,0,0,0,.34.05,2,2,0,0,0,.54-.08,1.26,1.26,0,0,0,.44-.25,1.23,1.23,0,0,0,.31-.4,1.25,1.25,0,0,0,.11-.53v-.64Z"/><path d="M100.1,37.12a1.67,1.67,0,0,1-.31.61,1.29,1.29,0,0,1-.55.38,2.23,2.23,0,0,1-.83.13,2.32,2.32,0,0,1-.59-.07A1.83,1.83,0,0,1,97.3,38a1.37,1.37,0,0,1-.38-.38,1.08,1.08,0,0,1-.17-.55h.49a.76.76,0,0,0,.15.38.78.78,0,0,0,.27.24,1.13,1.13,0,0,0,.36.14,1.72,1.72,0,0,0,.39,0,1.17,1.17,0,0,0,1-.39,1.8,1.8,0,0,0,.3-1.12v-.54h0a1.47,1.47,0,0,1-.5.6,1.35,1.35,0,0,1-.78.22,1.88,1.88,0,0,1-.82-.16A1.46,1.46,0,0,1,97,36a1.85,1.85,0,0,1-.32-.66,3,3,0,0,1-.1-.8,2.45,2.45,0,0,1,.12-.78,1.93,1.93,0,0,1,.35-.65,1.68,1.68,0,0,1,.57-.44,1.86,1.86,0,0,1,.77-.15,1.54,1.54,0,0,1,.43.06,1.49,1.49,0,0,1,.36.17,1.45,1.45,0,0,1,.29.26,1.35,1.35,0,0,1,.2.31h0v-.69h.5v3.69A3.24,3.24,0,0,1,100.1,37.12ZM99,36.05a1.29,1.29,0,0,0,.41-.36,1.37,1.37,0,0,0,.24-.5,2,2,0,0,0,.08-.6,2.44,2.44,0,0,0-.07-.59,1.71,1.71,0,0,0-.22-.54,1.12,1.12,0,0,0-.4-.38,1.14,1.14,0,0,0-.6-.15,1.27,1.27,0,0,0-.6.14,1.35,1.35,0,0,0-.41.38,1.51,1.51,0,0,0-.24.53,2.54,2.54,0,0,0-.07.61,2.41,2.41,0,0,0,.08.6,1.37,1.37,0,0,0,.24.5,1.19,1.19,0,0,0,.41.36,1.22,1.22,0,0,0,.59.14A1.11,1.11,0,0,0,99,36.05Zm-1.2-4.75a.52.52,0,0,0,.18.21.9.9,0,0,0,.24.12,1.45,1.45,0,0,0,.29,0A.94.94,0,0,0,99,31.5a.67.67,0,0,0,.29-.47h.3a1.13,1.13,0,0,1-.36.73,1.16,1.16,0,0,1-.77.26,1.11,1.11,0,0,1-.76-.26,1,1,0,0,1-.33-.73h.3A.5.5,0,0,0,97.77,31.3Z"/><path d="M101.63,31.09v5.56h-.49V31.09Z"/><path d="M102.58,32.63h.49v4h-.49Z"/><path d="M104.5,31.09v3.49l2.23-1.95h.65l-1.71,1.49,1.83,2.53h-.62l-1.59-2.19-.79.66v1.53H104V31.09Z"/><path d="M112.51,31.09a2.93,2.93,0,0,1,.67.07,1.62,1.62,0,0,1,.57.22,1.21,1.21,0,0,1,.39.42,1.3,1.3,0,0,1,.15.65,1.25,1.25,0,0,1-.07.43,1.11,1.11,0,0,1-.2.37,1,1,0,0,1-.3.28,1.13,1.13,0,0,1-.39.17h0a1.3,1.3,0,0,1,1.17,1.36c0,.09,0,.19,0,.3a2.46,2.46,0,0,1-.09.34,1.62,1.62,0,0,1-.21.35,1.31,1.31,0,0,1-.35.3,2.64,2.64,0,0,1-.55.21,3.37,3.37,0,0,1-.77.08h-2.35V31.09Zm0,2.44a1.77,1.77,0,0,0,.55-.08,1,1,0,0,0,.39-.2.68.68,0,0,0,.23-.3.73.73,0,0,0,.08-.36c0-.7-.41-1.05-1.25-1.05h-1.82v2Zm0,2.67a3.33,3.33,0,0,0,.56-.05,1.41,1.41,0,0,0,.47-.19.91.91,0,0,0,.32-.35,1.3,1.3,0,0,0,.11-.56.91.91,0,0,0-.37-.8,1.89,1.89,0,0,0-1.09-.27h-1.82V36.2Z"/><path d="M115.36,33.25a1.07,1.07,0,0,1,.34-.42,1.55,1.55,0,0,1,.5-.24,2.51,2.51,0,0,1,.64-.07,2.44,2.44,0,0,1,.53,0,1.14,1.14,0,0,1,.47.19.93.93,0,0,1,.34.39,1.4,1.4,0,0,1,.14.66v2.13c0,.2.09.3.28.3a.29.29,0,0,0,.16,0v.42l-.15,0h-.17a.85.85,0,0,1-.3,0,.41.41,0,0,1-.17-.15.49.49,0,0,1-.09-.22,2.3,2.3,0,0,1,0-.28h0a3.37,3.37,0,0,1-.27.34,1.22,1.22,0,0,1-.3.26,1.44,1.44,0,0,1-.38.15,2,2,0,0,1-.51.06,1.79,1.79,0,0,1-.53-.07,1.08,1.08,0,0,1-.43-.21,1,1,0,0,1-.29-.36,1.25,1.25,0,0,1-.1-.53,1,1,0,0,1,.19-.66,1.12,1.12,0,0,1,.49-.36,2.91,2.91,0,0,1,.69-.17l.79-.1.27,0a.47.47,0,0,0,.19-.08.48.48,0,0,0,.12-.16.68.68,0,0,0,0-.27.86.86,0,0,0-.09-.41.67.67,0,0,0-.22-.25,1.15,1.15,0,0,0-.34-.13,2.5,2.5,0,0,0-.4,0,1.23,1.23,0,0,0-.77.22.88.88,0,0,0-.31.71h-.49A1.88,1.88,0,0,1,115.36,33.25Zm2.45,1.2a.28.28,0,0,1-.18.13l-.23.05-.64.1a3.44,3.44,0,0,0-.61.13,1.37,1.37,0,0,0-.45.24.62.62,0,0,0-.17.46.72.72,0,0,0,.07.33.82.82,0,0,0,.2.25,1,1,0,0,0,.29.16,1.26,1.26,0,0,0,.33.05,1.91,1.91,0,0,0,.54-.08,1.41,1.41,0,0,0,.45-.25,1.08,1.08,0,0,0,.3-.4,1.12,1.12,0,0,0,.12-.53v-.64Z"/><path d="M119.79,31.09v3.49L122,32.63h.66L121,34.12l1.82,2.53h-.61l-1.59-2.19-.79.66v1.53h-.49V31.09Z"/><path d="M123.29,33.25a1.17,1.17,0,0,1,.34-.42,1.55,1.55,0,0,1,.5-.24,2.56,2.56,0,0,1,.64-.07,2.38,2.38,0,0,1,.53,0,1.09,1.09,0,0,1,.47.19,1,1,0,0,1,.35.39,1.55,1.55,0,0,1,.13.66v2.13c0,.2.09.3.29.3a.26.26,0,0,0,.15,0v.42l-.15,0h-.17a.85.85,0,0,1-.3,0,.41.41,0,0,1-.17-.15.48.48,0,0,1-.08-.22,1.23,1.23,0,0,1,0-.28h0a3.37,3.37,0,0,1-.27.34,1.22,1.22,0,0,1-.3.26,1.44,1.44,0,0,1-.38.15,1.88,1.88,0,0,1-.51.06,1.83,1.83,0,0,1-.53-.07,1.15,1.15,0,0,1-.43-.21,1,1,0,0,1-.28-.36,1.25,1.25,0,0,1-.11-.53,1,1,0,0,1,.19-.66,1.12,1.12,0,0,1,.49-.36,2.87,2.87,0,0,1,.7-.17l.78-.1.27,0a.47.47,0,0,0,.19-.08.4.4,0,0,0,.13-.16,1,1,0,0,0,0-.27,1,1,0,0,0-.08-.41.69.69,0,0,0-.23-.25,1.2,1.2,0,0,0-.33-.13,2.73,2.73,0,0,0-.41,0,1.25,1.25,0,0,0-.77.22.88.88,0,0,0-.31.71h-.49A1.88,1.88,0,0,1,123.29,33.25Zm2.45,1.2a.28.28,0,0,1-.18.13l-.23.05-.64.1a3.65,3.65,0,0,0-.61.13,1.23,1.23,0,0,0-.44.24.59.59,0,0,0-.18.46.73.73,0,0,0,.08.33.79.79,0,0,0,.19.25,1,1,0,0,0,.29.16,1.27,1.27,0,0,0,.34.05,1.89,1.89,0,0,0,.53-.08,1.31,1.31,0,0,0,.45-.25,1.23,1.23,0,0,0,.31-.4,1.25,1.25,0,0,0,.11-.53v-.64Z"/><path d="M127.71,32.63v.69h0a1.13,1.13,0,0,1,.5-.58,1.42,1.42,0,0,1,.78-.22,2.09,2.09,0,0,1,.71.1,1.16,1.16,0,0,1,.45.31,1,1,0,0,1,.24.49,2.56,2.56,0,0,1,.07.64v2.59H130V34.14a2.45,2.45,0,0,0,0-.48,1.19,1.19,0,0,0-.17-.38.79.79,0,0,0-.31-.26,1.42,1.42,0,0,0-1,0,1.05,1.05,0,0,0-.39.29,1.26,1.26,0,0,0-.25.44,1.92,1.92,0,0,0-.1.55v2.34h-.49v-4Z"/><path d="M131.91,31.09v5.56h-.49V31.09Z"/><path d="M132.86,32.63h.49v4h-.49Z"/><path d="M137.59,37.12a1.67,1.67,0,0,1-.31.61,1.29,1.29,0,0,1-.55.38,2.26,2.26,0,0,1-.83.13,2.32,2.32,0,0,1-.59-.07,1.72,1.72,0,0,1-.52-.21,1.37,1.37,0,0,1-.38-.38,1.19,1.19,0,0,1-.18-.55h.5a.76.76,0,0,0,.15.38.78.78,0,0,0,.27.24,1.07,1.07,0,0,0,.35.14,1.81,1.81,0,0,0,.4,0,1.17,1.17,0,0,0,1-.39,1.8,1.8,0,0,0,.3-1.12v-.54h0a1.42,1.42,0,0,1-.51.6,1.32,1.32,0,0,1-.77.22,1.85,1.85,0,0,1-.82-.16,1.46,1.46,0,0,1-.57-.44,1.7,1.7,0,0,1-.32-.66,3,3,0,0,1-.1-.8,2.45,2.45,0,0,1,.12-.78,1.77,1.77,0,0,1,.35-.65,1.68,1.68,0,0,1,.57-.44,1.86,1.86,0,0,1,.77-.15,1.42,1.42,0,0,1,.42.06,1.4,1.4,0,0,1,.37.17,1.42,1.42,0,0,1,.49.57h0v-.69h.49v3.69A3.26,3.26,0,0,1,137.59,37.12Zm-1.13-1.07a1.29,1.29,0,0,0,.41-.36,1.55,1.55,0,0,0,.24-.5,2,2,0,0,0,.08-.6,2.44,2.44,0,0,0-.07-.59,1.71,1.71,0,0,0-.22-.54,1.21,1.21,0,0,0-.4-.38,1.16,1.16,0,0,0-.6-.15,1.27,1.27,0,0,0-.6.14,1.35,1.35,0,0,0-.41.38,1.51,1.51,0,0,0-.24.53,2.54,2.54,0,0,0-.07.61,2,2,0,0,0,.08.6,1.37,1.37,0,0,0,.24.5,1.19,1.19,0,0,0,.41.36,1.22,1.22,0,0,0,.59.14A1.13,1.13,0,0,0,136.46,36.05Zm-1.21-4.75a.74.74,0,0,0,.18.21,1.15,1.15,0,0,0,.25.12,1.45,1.45,0,0,0,.29,0,.94.94,0,0,0,.54-.17.71.71,0,0,0,.29-.47h.3a1.13,1.13,0,0,1-.36.73A1.16,1.16,0,0,1,136,32a1.14,1.14,0,0,1-.77-.26,1.09,1.09,0,0,1-.33-.73h.31A.6.6,0,0,0,135.25,31.3Z"/><path d="M138.63,32.63h.49v4h-.49Z"/><path d="M142.79,31.09v3.44a2.76,2.76,0,0,0,.11.82,1.29,1.29,0,0,0,.32.55,1.23,1.23,0,0,0,.51.32,2.69,2.69,0,0,0,1.38,0,1.23,1.23,0,0,0,.51-.32,1.29,1.29,0,0,0,.32-.55,2.76,2.76,0,0,0,.11-.82V31.09h.53v3.56a2.74,2.74,0,0,1-.12.81,1.76,1.76,0,0,1-1.05,1.13,3,3,0,0,1-2,0,1.76,1.76,0,0,1-1.05-1.13,2.74,2.74,0,0,1-.12-.81V31.09Z"/><path d="M147.62,32.63,149,36.06l1.23-3.43h.49l-1.74,4.63a4.27,4.27,0,0,1-.2.42.8.8,0,0,1-.21.26.51.51,0,0,1-.26.14,1.37,1.37,0,0,1-.39.05h-.23l-.14,0v-.41l.17,0,.16,0a.68.68,0,0,0,.27,0,.7.7,0,0,0,.32-.33l.11-.26.18-.45-1.61-4Z"/><path d="M154.45,37.12a1.52,1.52,0,0,1-.3.61,1.36,1.36,0,0,1-.55.38,2.26,2.26,0,0,1-.83.13,2.32,2.32,0,0,1-.59-.07,1.62,1.62,0,0,1-.52-.21,1.37,1.37,0,0,1-.38-.38,1.19,1.19,0,0,1-.18-.55h.49a.88.88,0,0,0,.16.38.78.78,0,0,0,.27.24,1,1,0,0,0,.35.14,1.75,1.75,0,0,0,.4,0,1.18,1.18,0,0,0,1-.39,1.8,1.8,0,0,0,.3-1.12v-.54h0a1.49,1.49,0,0,1-.51.6,1.34,1.34,0,0,1-.77.22,1.92,1.92,0,0,1-.83-.16,1.5,1.5,0,0,1-.56-.44,1.57,1.57,0,0,1-.32-.66,3,3,0,0,1-.11-.8,2.45,2.45,0,0,1,.13-.78,1.77,1.77,0,0,1,.35-.65,1.74,1.74,0,0,1,.56-.44,1.94,1.94,0,0,1,.78-.15,1.42,1.42,0,0,1,.42.06,1.2,1.2,0,0,1,.36.17,1.87,1.87,0,0,1,.3.26,1.8,1.8,0,0,1,.2.31h0v-.69h.49v3.69A2.83,2.83,0,0,1,154.45,37.12Zm-1.12-1.07a1.25,1.25,0,0,0,.4-.36,1.56,1.56,0,0,0,.25-.5,2.41,2.41,0,0,0,.08-.6A2.44,2.44,0,0,0,154,34a1.73,1.73,0,0,0-.23-.54,1,1,0,0,0-.4-.38,1.1,1.1,0,0,0-.59-.15,1.27,1.27,0,0,0-.6.14,1.24,1.24,0,0,0-.41.38,1.51,1.51,0,0,0-.24.53,2.54,2.54,0,0,0-.07.61,2.4,2.4,0,0,0,.07.6,1.55,1.55,0,0,0,.24.5,1.22,1.22,0,0,0,.42.36,1.2,1.2,0,0,0,.59.14A1.13,1.13,0,0,0,153.33,36.05Z"/><path d="M158.29,36.65v-.73h0a1.41,1.41,0,0,1-.56.62,1.55,1.55,0,0,1-.82.22,1.76,1.76,0,0,1-.65-.11,1.08,1.08,0,0,1-.44-.3,1.23,1.23,0,0,1-.24-.47,2.12,2.12,0,0,1-.08-.64V32.63H156v2.62a1.27,1.27,0,0,0,.25.82,1,1,0,0,0,.82.28,1.07,1.07,0,0,0,.55-.13,1.09,1.09,0,0,0,.37-.37,1.68,1.68,0,0,0,.22-.51,2.46,2.46,0,0,0,.07-.6V32.63h.49v4Z"/><path d="M160.16,31.09v5.56h-.49V31.09Z"/><path d="M161.21,33.25a1.14,1.14,0,0,1,.33-.42,1.71,1.71,0,0,1,.51-.24,2.51,2.51,0,0,1,.64-.07,2.29,2.29,0,0,1,.52,0,1.13,1.13,0,0,1,.48.19,1,1,0,0,1,.34.39,1.41,1.41,0,0,1,.13.66v2.13a.26.26,0,0,0,.29.3.29.29,0,0,0,.16,0v.42l-.15,0h-.17a.78.78,0,0,1-.3,0,.44.44,0,0,1-.18-.15.63.63,0,0,1-.08-.22,2.3,2.3,0,0,1,0-.28h0a3.37,3.37,0,0,1-.27.34,1.22,1.22,0,0,1-.3.26,1.51,1.51,0,0,1-.39.15,1.88,1.88,0,0,1-.51.06,1.77,1.77,0,0,1-.52-.07,1.08,1.08,0,0,1-.72-.57,1.25,1.25,0,0,1-.1-.53,1.08,1.08,0,0,1,.18-.66,1.15,1.15,0,0,1,.5-.36,2.68,2.68,0,0,1,.69-.17l.78-.1.28,0a.54.54,0,0,0,.19-.08.48.48,0,0,0,.12-.16.7.7,0,0,0,0-.27.86.86,0,0,0-.08-.41.67.67,0,0,0-.22-.25A1.15,1.15,0,0,0,163,33a2.63,2.63,0,0,0-.41,0,1.22,1.22,0,0,0-.76.22.85.85,0,0,0-.31.71h-.49A1.48,1.48,0,0,1,161.21,33.25Zm2.45,1.2a.28.28,0,0,1-.18.13l-.23.05-.65.1a3.33,3.33,0,0,0-.6.13,1.37,1.37,0,0,0-.45.24.62.62,0,0,0-.17.46.72.72,0,0,0,.07.33.82.82,0,0,0,.2.25.9.9,0,0,0,.29.16,1.26,1.26,0,0,0,.33.05,1.91,1.91,0,0,0,.54-.08,1.41,1.41,0,0,0,.45-.25,1.2,1.2,0,0,0,.3-.4,1.12,1.12,0,0,0,.11-.53v-.64Z"/><path d="M165.6,32.63v.68h0a1.52,1.52,0,0,1,.51-.58,1.43,1.43,0,0,1,.81-.21,1.39,1.39,0,0,1,.72.19,1,1,0,0,1,.43.59,1.22,1.22,0,0,1,.53-.59,1.48,1.48,0,0,1,.74-.19c.89,0,1.34.46,1.34,1.4v2.73h-.5V34a1.19,1.19,0,0,0-.21-.76.87.87,0,0,0-.73-.26,1,1,0,0,0-.53.12,1,1,0,0,0-.34.32,1.41,1.41,0,0,0-.17.46,2.5,2.5,0,0,0-.05.55v2.27h-.49V33.92a1.58,1.58,0,0,0-.05-.38.84.84,0,0,0-.14-.32.61.61,0,0,0-.26-.21.82.82,0,0,0-.4-.08,1.33,1.33,0,0,0-.54.11,1.12,1.12,0,0,0-.37.31,1.19,1.19,0,0,0-.21.47,2.17,2.17,0,0,0-.07.59v2.24h-.49v-4Z"/><path d="M171.73,33.25a1.17,1.17,0,0,1,.34-.42,1.55,1.55,0,0,1,.5-.24,2.56,2.56,0,0,1,.64-.07,2.38,2.38,0,0,1,.53,0,1.09,1.09,0,0,1,.47.19,1,1,0,0,1,.35.39,1.55,1.55,0,0,1,.13.66v2.13c0,.2.09.3.29.3a.26.26,0,0,0,.15,0v.42l-.15,0h-.17a.85.85,0,0,1-.3,0,.41.41,0,0,1-.17-.15.48.48,0,0,1-.08-.22,1.23,1.23,0,0,1,0-.28h0a3.37,3.37,0,0,1-.27.34,1.22,1.22,0,0,1-.3.26,1.44,1.44,0,0,1-.38.15,1.88,1.88,0,0,1-.51.06,1.83,1.83,0,0,1-.53-.07,1.15,1.15,0,0,1-.43-.21,1,1,0,0,1-.28-.36,1.25,1.25,0,0,1-.11-.53,1,1,0,0,1,.19-.66,1.12,1.12,0,0,1,.49-.36,2.87,2.87,0,0,1,.7-.17l.78-.1.27,0a.47.47,0,0,0,.19-.08.4.4,0,0,0,.13-.16,1,1,0,0,0,0-.27,1,1,0,0,0-.08-.41.69.69,0,0,0-.23-.25,1.2,1.2,0,0,0-.33-.13,2.73,2.73,0,0,0-.41,0,1.25,1.25,0,0,0-.77.22.88.88,0,0,0-.31.71h-.49A1.88,1.88,0,0,1,171.73,33.25Zm2.45,1.2a.28.28,0,0,1-.18.13l-.23.05-.64.1a3.65,3.65,0,0,0-.61.13,1.23,1.23,0,0,0-.44.24.59.59,0,0,0-.18.46.73.73,0,0,0,.08.33.79.79,0,0,0,.19.25,1,1,0,0,0,.29.16,1.27,1.27,0,0,0,.34.05,1.89,1.89,0,0,0,.53-.08,1.31,1.31,0,0,0,.45-.25,1.23,1.23,0,0,0,.31-.4,1.25,1.25,0,0,0,.11-.53v-.64Z"/><path d="M176.17,31.09v5.56h-.49V31.09Z"/><path d="M177.21,33.25a1.17,1.17,0,0,1,.34-.42,1.55,1.55,0,0,1,.5-.24,2.56,2.56,0,0,1,.64-.07,2.38,2.38,0,0,1,.53,0,1.09,1.09,0,0,1,.47.19,1,1,0,0,1,.35.39,1.55,1.55,0,0,1,.13.66v2.13c0,.2.09.3.29.3a.26.26,0,0,0,.15,0v.42l-.15,0h-.17a.85.85,0,0,1-.3,0,.41.41,0,0,1-.17-.15.48.48,0,0,1-.08-.22,1.23,1.23,0,0,1,0-.28h0a3.37,3.37,0,0,1-.27.34,1.22,1.22,0,0,1-.3.26,1.44,1.44,0,0,1-.38.15,1.88,1.88,0,0,1-.51.06,1.83,1.83,0,0,1-.53-.07,1.15,1.15,0,0,1-.43-.21,1,1,0,0,1-.28-.36,1.25,1.25,0,0,1-.11-.53,1,1,0,0,1,.19-.66,1.12,1.12,0,0,1,.49-.36,2.87,2.87,0,0,1,.7-.17l.78-.1.27,0a.47.47,0,0,0,.19-.08.4.4,0,0,0,.13-.16,1,1,0,0,0,0-.27,1,1,0,0,0-.08-.41.69.69,0,0,0-.23-.25A1.2,1.2,0,0,0,179,33a2.73,2.73,0,0,0-.41,0,1.25,1.25,0,0,0-.77.22.88.88,0,0,0-.31.71h-.49A1.88,1.88,0,0,1,177.21,33.25Zm2.45,1.2a.28.28,0,0,1-.18.13l-.23.05-.64.1a3.65,3.65,0,0,0-.61.13,1.23,1.23,0,0,0-.44.24.59.59,0,0,0-.18.46.73.73,0,0,0,.08.33.79.79,0,0,0,.19.25,1,1,0,0,0,.29.16,1.27,1.27,0,0,0,.34.05,1.89,1.89,0,0,0,.53-.08,1.31,1.31,0,0,0,.45-.25,1.23,1.23,0,0,0,.31-.4,1.25,1.25,0,0,0,.11-.53v-.64Z"/><path d="M181.6,32.63v.94h0a1.5,1.5,0,0,1,.58-.75,1.45,1.45,0,0,1,.93-.24v.49a1.46,1.46,0,0,0-.6.09,1.35,1.35,0,0,0-.47.3,1.21,1.21,0,0,0-.31.46,1.63,1.63,0,0,0-.11.59v2.14h-.49v-4Z"/><path d="M183.61,32.63h.49v4h-.49Z"/><path d="M185.52,32.63v.69h0a1.13,1.13,0,0,1,.5-.58,1.44,1.44,0,0,1,.78-.22,2.09,2.09,0,0,1,.71.1,1.16,1.16,0,0,1,.45.31,1,1,0,0,1,.24.49,2.56,2.56,0,0,1,.07.64v2.59h-.49V34.14a2.45,2.45,0,0,0,0-.48,1,1,0,0,0-.17-.38.72.72,0,0,0-.31-.26,1.21,1.21,0,0,0-.5-.09,1.14,1.14,0,0,0-.91.39,1.26,1.26,0,0,0-.25.44,1.92,1.92,0,0,0-.1.55v2.34H185v-4Z"/><path d="M189.32,33.25a1.28,1.28,0,0,1,.34-.42,1.55,1.55,0,0,1,.5-.24,2.56,2.56,0,0,1,.64-.07,2.38,2.38,0,0,1,.53,0,1.13,1.13,0,0,1,.48.19,1,1,0,0,1,.34.39,1.41,1.41,0,0,1,.13.66v2.13a.26.26,0,0,0,.29.3.24.24,0,0,0,.15,0v.42l-.15,0h-.17a.76.76,0,0,1-.29,0,.38.38,0,0,1-.18-.15.48.48,0,0,1-.08-.22,2.3,2.3,0,0,1,0-.28h0a2.38,2.38,0,0,1-.27.34,1.22,1.22,0,0,1-.3.26,1.44,1.44,0,0,1-.38.15,1.88,1.88,0,0,1-.51.06,1.83,1.83,0,0,1-.53-.07,1,1,0,0,1-.42-.21.93.93,0,0,1-.29-.36,1.25,1.25,0,0,1-.11-.53,1.08,1.08,0,0,1,.19-.66,1.12,1.12,0,0,1,.49-.36,2.87,2.87,0,0,1,.7-.17l.78-.1.27,0a.6.6,0,0,0,.2-.08.48.48,0,0,0,.12-.16.7.7,0,0,0,0-.27,1,1,0,0,0-.08-.41.69.69,0,0,0-.23-.25,1.08,1.08,0,0,0-.33-.13,2.73,2.73,0,0,0-.41,0,1.2,1.2,0,0,0-.76.22.89.89,0,0,0-.32.71h-.49A1.88,1.88,0,0,1,189.32,33.25Zm2.45,1.2a.29.29,0,0,1-.17.13l-.24.05-.64.1a3.33,3.33,0,0,0-.6.13,1.28,1.28,0,0,0-.45.24.59.59,0,0,0-.18.46.73.73,0,0,0,.08.33.69.69,0,0,0,.2.25,1,1,0,0,0,.28.16,1.27,1.27,0,0,0,.34.05,2,2,0,0,0,.54-.08,1.26,1.26,0,0,0,.44-.25,1.23,1.23,0,0,0,.31-.4,1.25,1.25,0,0,0,.11-.53v-.64Z"/><path d="M200.4,36.65h-.62l-.15-.66a2.24,2.24,0,0,1-.78.62,2.29,2.29,0,0,1-.9.17,2.65,2.65,0,0,1-1.11-.23,2.38,2.38,0,0,1-.84-.63,2.68,2.68,0,0,1-.52-.92,3.43,3.43,0,0,1,0-2.25,2.83,2.83,0,0,1,.52-.93A2.51,2.51,0,0,1,198,31a3.1,3.1,0,0,1,.87.12,2.21,2.21,0,0,1,.72.36,1.88,1.88,0,0,1,.53.59,2.19,2.19,0,0,1,.27.83h-1a1.25,1.25,0,0,0-.17-.48,1.34,1.34,0,0,0-.32-.35,1.63,1.63,0,0,0-.44-.21,2.09,2.09,0,0,0-.51-.07,1.5,1.5,0,0,0-1.29.66,2.47,2.47,0,0,0-.3.68,3.39,3.39,0,0,0-.09.78,3.46,3.46,0,0,0,.09.78,2.47,2.47,0,0,0,.3.68A1.5,1.5,0,0,0,198,36a2,2,0,0,0,.67-.1,1.31,1.31,0,0,0,.48-.3,1.18,1.18,0,0,0,.3-.49,1.87,1.87,0,0,0,.11-.64H198v-.74h2.37Z"/><path d="M201.36,31.09h.88v.84h-.88Zm0,1.53h.88v4h-.88Z"/><path d="M203.21,32.62H204v.78h0a.77.77,0,0,1,.15-.32,1.43,1.43,0,0,1,.27-.28,1.31,1.31,0,0,1,.36-.21,1.07,1.07,0,0,1,.39-.07h.22l.12,0v.85l-.19,0h-.19a1,1,0,0,0-.43.09.86.86,0,0,0-.34.26,1.37,1.37,0,0,0-.24.43,1.79,1.79,0,0,0-.08.59v1.92h-.89Z"/><path d="M206,31.09h.89v.84H206Zm0,1.53h.89v4H206Z"/><path d="M208.57,37.89a1.24,1.24,0,0,0,.26.1,1,1,0,0,0,.25,0h.16l.16,0a.35.35,0,0,0,.11-.1.25.25,0,0,0,0-.16.23.23,0,0,0-.11-.22.46.46,0,0,0-.25-.08.61.61,0,0,0-.3.08l-.17-.15.44-.58a3.43,3.43,0,0,1-.48-.08,1.7,1.7,0,0,1-.56-.26,1.39,1.39,0,0,1-.37-.43,1.35,1.35,0,0,1-.14-.62h.88a.67.67,0,0,0,.3.54,1.11,1.11,0,0,0,.61.16l.29,0A1.32,1.32,0,0,0,210,36a.53.53,0,0,0,.23-.16.35.35,0,0,0,.08-.27.43.43,0,0,0-.12-.28.89.89,0,0,0-.3-.18,3.63,3.63,0,0,0-.42-.11l-.48-.1-.47-.13a2.35,2.35,0,0,1-.42-.21,1.05,1.05,0,0,1-.29-.34,1.13,1.13,0,0,1-.11-.51,1,1,0,0,1,.16-.55,1.19,1.19,0,0,1,.41-.36,1.82,1.82,0,0,1,.54-.19,2.87,2.87,0,0,1,.57,0,2.91,2.91,0,0,1,.6.06,1.68,1.68,0,0,1,.51.22,1.06,1.06,0,0,1,.38.38,1.29,1.29,0,0,1,.2.57h-.93a.58.58,0,0,0-.29-.43,1.29,1.29,0,0,0-.53-.1h-.22a.84.84,0,0,0-.24.06.52.52,0,0,0-.19.12.35.35,0,0,0,0,.48.87.87,0,0,0,.3.17,3.44,3.44,0,0,0,.41.11l.49.1a3.64,3.64,0,0,1,.47.14,1.38,1.38,0,0,1,.42.21,1,1,0,0,1,.29.33,1,1,0,0,1,.12.5,1.09,1.09,0,0,1-.17.61,1.24,1.24,0,0,1-.42.4,1.85,1.85,0,0,1-.58.23,4.26,4.26,0,0,1-.5.06l-.27.36h0l.11,0h.14a1,1,0,0,1,.24,0,.53.53,0,0,1,.21.11.65.65,0,0,1,.15.18.53.53,0,0,1,.07.26.58.58,0,0,1-.09.33.77.77,0,0,1-.22.22,1.34,1.34,0,0,1-.3.12,1.27,1.27,0,0,1-.34,0,2,2,0,0,1-.42,0,1.55,1.55,0,0,1-.38-.13Z"/><path d="M214.79,34.8a1.27,1.27,0,0,0,.11.54,1,1,0,0,0,.3.37,1.17,1.17,0,0,0,.45.21,2.36,2.36,0,0,0,.55.07,1.82,1.82,0,0,0,.55-.08,1,1,0,0,0,.36-.19.73.73,0,0,0,.2-.27.66.66,0,0,0,.07-.3.63.63,0,0,0-.15-.47.71.71,0,0,0-.31-.22l-.69-.21c-.26-.06-.59-.14-1-.25a2.09,2.09,0,0,1-.6-.24,1.36,1.36,0,0,1-.37-.34,1.16,1.16,0,0,1-.2-.4,1.54,1.54,0,0,1-.06-.43,1.47,1.47,0,0,1,.17-.72,1.54,1.54,0,0,1,.47-.51,1.84,1.84,0,0,1,.65-.3,2.64,2.64,0,0,1,.74-.1,3.12,3.12,0,0,1,.82.11,2.17,2.17,0,0,1,.68.34A1.67,1.67,0,0,1,218,32a1.55,1.55,0,0,1,.17.76h-1a1,1,0,0,0-.37-.76,1.48,1.48,0,0,0-.83-.22,1.45,1.45,0,0,0-.35,0,1.17,1.17,0,0,0-.33.11.75.75,0,0,0-.24.23.56.56,0,0,0-.1.35.6.6,0,0,0,.18.46,1.22,1.22,0,0,0,.48.25l.25.07.48.13.51.13.37.1a1.87,1.87,0,0,1,.47.23,1.56,1.56,0,0,1,.34.34,1.42,1.42,0,0,1,.2.41,1.35,1.35,0,0,1,.07.44,1.58,1.58,0,0,1-.19.8,1.73,1.73,0,0,1-.5.54,2.14,2.14,0,0,1-.71.3,3.21,3.21,0,0,1-.81.1,3.26,3.26,0,0,1-.9-.12,2,2,0,0,1-.73-.35,1.8,1.8,0,0,1-.5-.62,2,2,0,0,1-.19-.89Z"/><path d="M219.1,31.09H220v.84h-.88Zm0,1.53H220v4h-.88Z"/><path d="M221.62,35.36a.64.64,0,0,0,.29.54,1.15,1.15,0,0,0,.62.16l.28,0a1.32,1.32,0,0,0,.3-.08.48.48,0,0,0,.23-.16.43.43,0,0,0,0-.55.89.89,0,0,0-.3-.18,3.16,3.16,0,0,0-.42-.11l-.47-.1-.48-.13a2.25,2.25,0,0,1-.41-.21,1.05,1.05,0,0,1-.29-.34,1,1,0,0,1-.11-.51.9.9,0,0,1,.16-.55,1.16,1.16,0,0,1,.4-.36,1.88,1.88,0,0,1,.55-.19,2.87,2.87,0,0,1,.57,0,2.81,2.81,0,0,1,.59.06,1.85,1.85,0,0,1,.52.22,1.15,1.15,0,0,1,.38.38,1.42,1.42,0,0,1,.19.57h-.93a.58.58,0,0,0-.29-.43,1.24,1.24,0,0,0-.52-.1h-.23l-.24.06a.62.62,0,0,0-.19.12.33.33,0,0,0-.08.22.31.31,0,0,0,.12.26.74.74,0,0,0,.29.17,3.16,3.16,0,0,0,.42.11l.48.1a4.34,4.34,0,0,1,.48.14,1.44,1.44,0,0,1,.41.21,1.18,1.18,0,0,1,.3.33,1.22,1.22,0,0,1,0,1.11,1.27,1.27,0,0,1-.43.4,1.76,1.76,0,0,1-.58.23,3.38,3.38,0,0,1-.63.07,2.58,2.58,0,0,1-.7-.09,1.61,1.61,0,0,1-.56-.26,1.42,1.42,0,0,1-.38-.43,1.49,1.49,0,0,1-.14-.62Z"/><path d="M224.58,32.62h.67v-1.2h.89v1.2h.8v.67h-.8v2.14a1.85,1.85,0,0,0,0,.25.49.49,0,0,0,.06.17.27.27,0,0,0,.13.1.47.47,0,0,0,.23,0h.19l.18,0v.68l-.29,0-.28,0a1.76,1.76,0,0,1-.57-.07.76.76,0,0,1-.33-.19.74.74,0,0,1-.17-.33c0-.13,0-.27-.05-.44V33.29h-.67Z"/><path d="M228.27,34.87a1.76,1.76,0,0,0,.07.45,1,1,0,0,0,.53.64,1.22,1.22,0,0,0,.49.1,1.08,1.08,0,0,0,.62-.17,1,1,0,0,0,.36-.5h.84a1.77,1.77,0,0,1-.24.58,1.81,1.81,0,0,1-1,.7,2.16,2.16,0,0,1-.62.09,2.08,2.08,0,0,1-.85-.16,1.69,1.69,0,0,1-.61-.43,1.94,1.94,0,0,1-.39-.67,2.93,2.93,0,0,1-.12-.86,2.37,2.37,0,0,1,.13-.81,2,2,0,0,1,.39-.68,1.85,1.85,0,0,1,.61-.46,1.78,1.78,0,0,1,.81-.17,1.8,1.8,0,0,1,.85.19,1.92,1.92,0,0,1,.63.53,2,2,0,0,1,.36.75,2.16,2.16,0,0,1,.06.88Zm2.07-.59a1.37,1.37,0,0,0-.09-.4.83.83,0,0,0-.2-.34.9.9,0,0,0-.31-.23.91.91,0,0,0-.41-.09,1,1,0,0,0-.75.3,1.33,1.33,0,0,0-.22.34,1.43,1.43,0,0,0-.09.42Z"/><path d="M231.91,32.62h.84v.56h0l.22-.27a1.71,1.71,0,0,1,.26-.21,1.2,1.2,0,0,1,.33-.13,1.64,1.64,0,0,1,1.11.11,1,1,0,0,1,.45.5,1.86,1.86,0,0,1,.52-.49,1.4,1.4,0,0,1,.74-.17,1.42,1.42,0,0,1,1,.31,1.3,1.3,0,0,1,.36,1v2.78h-.89V34.3c0-.16,0-.31,0-.44a.85.85,0,0,0-.09-.34.54.54,0,0,0-.22-.23.9.9,0,0,0-.4-.07.76.76,0,0,0-.66.28,1.35,1.35,0,0,0-.2.79v2.36h-.89V34.06a1.08,1.08,0,0,0-.15-.63.63.63,0,0,0-.55-.21.8.8,0,0,0-.34.07.86.86,0,0,0-.28.2,1.13,1.13,0,0,0-.19.32,1.25,1.25,0,0,0-.07.45v2.39h-.89Z"/><path d="M238.7,31.09h.89v.84h-.89Zm0,1.53h.89v4h-.89Z"/><path class="cls-1" d="M39.44,0a23.58,23.58,0,0,0-18,8.4l7.38,7.38a13.24,13.24,0,1,1,.12,15.8L21.53,39A23.6,23.6,0,1,0,39.44,0Z"/><polygon class="cls-2" points="19.25 11.1 11.36 11.1 21.43 21.17 0 21.17 0 26.04 21.7 26.04 11.63 36.11 19.53 36.11 31.89 23.74 19.25 11.1"/></g></g></svg>