<?xml version="1.0" encoding="utf-8"?>
<!-- Generator: Adobe Illustrator 24.0.3, SVG Export Plug-In . SVG Version: 6.00 Build 0)  -->
<svg version="1.1" id="Layer_1" xmlns="http://www.w3.org/2000/svg" xmlns:xlink="http://www.w3.org/1999/xlink" x="0px" y="0px"
	 viewBox="0 0 1521.2 1548.4" style="enable-background:new 0 0 1521.2 1548.4;" xml:space="preserve">
<style type="text/css">
	.st0{fill:url(#SVGID_1_);}
	.st1{opacity:0.6;fill:#DC0D15;enable-background:new    ;}
	.st2{fill:#DC0D15;}
	.st3{fill:#FFFFFF;}
	.st4{fill-rule:evenodd;clip-rule:evenodd;fill:#FFFFFF;}
	.st5{fill:none;}
	.st6{opacity:0.1;enable-background:new    ;}
</style>
<title>Asset 2</title>
<g id="Layer_2_1_">
	<g id="katman_1">
		
			<radialGradient id="SVGID_1_" cx="764.0841" cy="772.4113" r="765.0465" gradientTransform="matrix(1 0 0 -1 0 1548)" gradientUnits="userSpaceOnUse">
			<stop  offset="0" style="stop-color:#000000"/>
			<stop  offset="0.86" style="stop-color:#7E7E7E;stop-opacity:0.51"/>
			<stop  offset="1" style="stop-color:#FFFFFF;stop-opacity:0"/>
		</radialGradient>
		<path class="st0" d="M1488.5,994.1c-36.9,123.4-104,235.6-195.2,326.5c-303.8,303.8-796.3,303.8-1100.1,0L6.9,1134.2V2.8h1068.6
			l217.8,217.8C1495.7,422.9,1570.6,720,1488.5,994.1z"/>
		<path class="st1" d="M1473.4,991.3c-36.4,103.3-94.7,197.6-171,276.2c-3,3.1-6,6.1-9,9.1C1142.9,1427.2,945.2,1501.6,748,1500
			c-200.1-1.4-391.6-81.6-532.9-223.3L6.9,1068.5V2.8h1090.8l195.7,195.7C1500.9,406.1,1570.9,714.4,1473.4,991.3L1473.4,991.3z"/>
		<path class="st2" d="M1302.3,1267.6c-4.9,5.2-10,10.4-15.1,15.5C1142.4,1428,953,1501.2,763.1,1502.7
			c-201.1,1.9-394.5-77.3-536.5-219.7L6.9,1063.4V2.8h1060.7l219.7,219.7C1575,510.2,1580,973.6,1302.3,1267.6z"/>
		<path class="st3" d="M1173.9,1183.7h-21.8c-4.2,0-6-5.7-2.8-8.5l6.2-5.4c5.2-4.6,11.9-7.1,18.8-7.1h21.8c4.2,0,6,5.6,2.8,8.5
			l-6.2,5.4C1187.6,1181.2,1180.9,1183.7,1173.9,1183.7z"/>
		<path class="st3" d="M1202.4,1153.1l-21.8,1.5c-4.1,0.3-6.4-5.2-3.3-8.2l5.9-5.8c4.9-4.9,11.4-7.9,18.3-8.4l21.7-1.5
			c4.2-0.3,6.4,5.2,3.4,8.2l-5.9,5.8C1215.8,1149.6,1209.3,1152.6,1202.4,1153.1z"/>
		<path class="st3" d="M1228.7,1120.6l-21.6,3.1c-4.1,0.6-6.7-4.8-3.9-8l5.4-6.2c4.5-5.3,10.8-8.7,17.6-9.7l21.6-3.1
			c4.1-0.6,6.7,4.8,3.9,8l-5.4,6.3C1241.9,1116.2,1235.6,1119.7,1228.7,1120.6L1228.7,1120.6z"/>
		<path class="st3" d="M1252.7,1086.4l-21.3,4.5c-4.1,0.9-7-4.2-4.4-7.7l5-6.6c4.2-5.5,10.2-9.4,16.9-10.9l21.3-4.5
			c4.1-0.9,7.1,4.2,4.5,7.7l-5,6.6C1265.4,1081,1259.5,1084.9,1252.7,1086.4L1252.7,1086.4z"/>
		<path class="st3" d="M1274.2,1050.5l-20.9,6c-4,1.1-7.4-3.8-5-7.4l4.5-6.9c3.8-5.8,9.5-10.1,16.1-12l21-6c4-1.2,7.4,3.7,5,7.3
			l-4.5,6.9C1286.6,1044.3,1280.9,1048.6,1274.2,1050.5L1274.2,1050.5z"/>
		<path class="st3" d="M1293.1,1013.2l-20.4,7.4c-3.9,1.5-7.6-3.2-5.5-7l4-7.2c3.3-6.1,8.8-10.7,15.3-13.1l20.5-7.4
			c3.9-1.4,7.6,3.2,5.5,7l-4.1,7.2C1305,1006.2,1299.6,1010.9,1293.1,1013.2L1293.1,1013.2z"/>
		<path class="st3" d="M1309.4,974.7l-19.9,8.9c-3.8,1.7-7.8-2.7-6-6.6l3.5-7.5c2.9-6.3,8-11.3,14.3-14.2l19.9-8.9
			c3.8-1.7,7.8,2.7,6,6.6l-3.5,7.5C1320.8,966.9,1315.7,971.9,1309.4,974.7z"/>
		<path class="st3" d="M1323,935.2l-19.3,10.2c-3.7,2-8-2.2-6.4-6.1l3-7.7c2.5-6.5,7.2-11.8,13.3-15.1l19.2-10.2
			c3.7-2,8,2.2,6.4,6.2l-3,7.7C1333.8,926.6,1329.1,931.9,1323,935.2z"/>
		<path class="st3" d="M1333.8,894.8l-18.5,11.6c-3.5,2.2-8.1-1.6-6.8-5.7l2.4-7.9c2-6.6,6.3-12.3,12.2-16l18.4-11.5
			c3.6-2.2,8.1,1.6,6.8,5.7l-2.4,7.9C1343.9,885.5,1339.6,891.2,1333.8,894.8L1333.8,894.8z"/>
		<path class="st3" d="M1341.7,853.8l-17.6,12.8c-3.4,2.5-8.2-1-7.2-5.2l1.9-8c1.5-6.8,5.4-12.7,11-16.8l17.6-12.8
			c3.4-2.5,8.2,1,7.2,5.2l-1.9,8C1351.2,843.7,1347.2,849.7,1341.7,853.8L1341.7,853.8z"/>
		<path class="st3" d="M1346.8,812.3l-16.7,14c-3.2,2.7-8.3-0.5-7.6-4.7l1.3-8.1c1.1-6.9,4.5-13.1,9.8-17.6l16.7-14
			c3.2-2.7,8.2,0.5,7.6,4.7l-1.3,8.2C1355.5,801.6,1352,807.9,1346.8,812.3L1346.8,812.3z"/>
		<path class="st3" d="M1348.9,770.6l-15.7,15.1c-3,2.9-8.2,0.1-7.9-4.2l0.7-8.2c0.6-6.9,3.6-13.4,8.6-18.2l15.7-15.1
			c3-2.9,8.3-0.1,7.9,4.2l-0.7,8.2C1356.9,759.3,1353.9,765.8,1348.9,770.6L1348.9,770.6z"/>
		<path class="st3" d="M1348.1,728.8l-14.6,16.2c-2.8,3.1-8.2,0.7-8.1-3.6l0.1-8.3c0.1-6.9,2.7-13.6,7.3-18.8l14.6-16.2
			c2.8-3.1,8.2-0.7,8.1,3.6l-0.2,8.2C1355.3,717,1352.7,723.6,1348.1,728.8L1348.1,728.8z"/>
		<path class="st3" d="M1344.4,687.2l-13.4,17.1c-2.6,3.3-8.2,1.3-8.4-3l-0.4-8.3c-0.4-6.9,1.8-13.7,6-19.2l13.4-17.1
			c2.6-3.3,8.1-1.3,8.4,3l0.4,8.3C1350.8,674.9,1348.6,681.7,1344.4,687.2L1344.4,687.2z"/>
		<path class="st3" d="M1337.9,645.9l-12.2,18c-2.3,3.5-8.1,1.8-8.6-2.4l-1-8.2c-0.9-6.9,0.8-13.8,4.6-19.6l12.2-18
			c2.3-3.5,8-1.9,8.6,2.4l1,8.2C1343.3,633.1,1341.7,640.1,1337.9,645.9L1337.9,645.9z"/>
		<path class="st3" d="M1328.4,605.2l-10.9,18.8c-2.1,3.6-7.9,2.4-8.7-1.8l-1.6-8.1c-1.3-6.8-0.2-13.8,3.3-19.8l10.9-18.8
			c2.1-3.6,7.9-2.4,8.7,1.8l1.6,8.1C1333,592.1,1331.8,599.1,1328.4,605.2L1328.4,605.2z"/>
		<path class="st3" d="M1316.1,565.2l-9.6,19.6c-1.8,3.7-7.7,2.9-8.8-1.2l-2.1-8c-1.8-6.7-1.2-13.8,1.8-20l9.5-19.6
			c1.8-3.7,7.7-2.9,8.8,1.2l2.1,8C1319.7,551.9,1319.1,559,1316.1,565.2L1316.1,565.2z"/>
		<path class="st3" d="M1301.1,526.2l-8.1,20.2c-1.6,3.8-7.5,3.5-8.9-0.6l-2.7-7.8c-2.3-6.5-2.1-13.7,0.4-20.1l8.2-20.2
			c1.6-3.9,7.5-3.5,8.9,0.6l2.7,7.8C1303.9,512.6,1303.7,519.8,1301.1,526.2L1301.1,526.2z"/>
		<path class="st3" d="M1283.4,488.3l-6.8,20.7c-1.2,4-7.2,4-8.9,0l-3.2-7.6c-2.7-6.4-3.1-13.5-1-20.1l6.7-20.7c1.3-4,7.2-4,8.9,0
			l3.2,7.6C1285.2,474.5,1285.5,481.6,1283.4,488.3L1283.4,488.3z"/>
		<path class="st3" d="M1263.1,451.8l-5.3,21.1c-1,4.1-6.9,4.5-8.9,0.7l-3.8-7.4c-3.2-6.2-4-13.3-2.4-20l5.3-21.1c1-4,7-4.5,8.9-0.6
			l3.7,7.4C1263.9,438,1264.7,445.1,1263.1,451.8L1263.1,451.8z"/>
		<path class="st3" d="M1240.3,416.8l-3.8,21.4c-0.7,4.1-6.6,5-8.8,1.3l-4.2-7.1c-3.6-5.9-4.9-12.9-3.7-19.8l3.8-21.5
			c0.7-4.1,6.6-4.9,8.8-1.3l4.2,7.1C1240.1,402.9,1241.4,409.9,1240.3,416.8L1240.3,416.8z"/>
		<path class="st3" d="M1215.1,383.4l-2.3,21.6c-0.4,4.1-6.2,5.4-8.7,1.9l-4.7-6.8c-4-5.7-5.8-12.6-5.1-19.5l2.3-21.6
			c0.4-4.2,6.3-5.4,8.7-1.9l4.8,6.8C1214,369.6,1215.8,376.6,1215.1,383.4L1215.1,383.4z"/>
		<path class="st3" d="M1187.6,351.9l-0.7,21.8c-0.1,4.2-5.9,5.8-8.6,2.5l-5.2-6.4c-4.4-5.3-6.7-12.1-6.5-19l0.8-21.8
			c0.1-4.2,5.8-5.8,8.6-2.5l5.2,6.4C1185.5,338.2,1187.8,345,1187.6,351.9L1187.6,351.9z"/>
		<path class="st3" d="M1158,322.4l0.7,21.8c0.2,4.2-5.4,6.2-8.3,3.1l-5.6-6.1c-4.7-5.1-7.5-11.6-7.8-18.5l-0.8-21.8
			c-0.1-4.2,5.4-6.2,8.4-3.1l5.6,6.1C1155,308.9,1157.7,315.4,1158,322.4L1158,322.4z"/>
		<path class="st3" d="M1126.4,295l2.3,21.6c0.4,4.1-5,6.6-8.1,3.7l-6-5.7c-5.1-4.7-8.3-11.1-9.1-18l-2.3-21.6
			c-0.4-4.1,5-6.6,8.1-3.7l6,5.7C1122.4,281.7,1125.6,288.1,1126.4,295L1126.4,295z"/>
		<path class="st3" d="M1093,269.9l3.8,21.5c0.7,4.1-4.5,6.9-7.9,4.2l-6.4-5.2c-5.4-4.4-9-10.5-10.3-17.3l-3.8-21.4
			c-0.8-4.1,4.5-6.9,7.8-4.2l6.4,5.2C1088.1,256.9,1091.8,263,1093,269.9z"/>
		<path class="st3" d="M1057.9,247.1l5.3,21.1c1,4-4,7.2-7.6,4.7l-6.7-4.8c-5.7-3.9-9.8-9.8-11.5-16.5l-5.3-21.1
			c-1-4.1,4-7.2,7.6-4.8l6.7,4.8C1052.1,234.6,1056.2,240.4,1057.9,247.1L1057.9,247.1z"/>
		<path class="st3" d="M1021.3,226.9l6.7,20.7c1.3,4-3.5,7.5-7.2,5.3l-7.1-4.3c-6-3.5-10.4-9.1-12.6-15.7l-6.7-20.7
			c-1.3-4,3.5-7.5,7.2-5.2l7.1,4.3C1014.7,214.8,1019.1,220.3,1021.3,226.9z"/>
		<path class="st3" d="M983.4,209.3l8.2,20.2c1.6,3.9-3,7.7-6.8,5.8l-7.3-3.8c-6.2-3.1-11-8.4-13.7-14.8l-8.2-20.2
			c-1.6-3.9,3-7.7,6.8-5.8l7.4,3.8C976,197.6,980.8,202.9,983.4,209.3L983.4,209.3z"/>
		<path class="st3" d="M944.3,194.4l9.5,19.6c1.8,3.8-2.4,7.9-6.4,6.2l-7.6-3.3c-6.4-2.7-11.6-7.6-14.7-13.8l-9.5-19.6
			c-1.8-3.7,2.4-7.9,6.4-6.2l7.6,3.3C936.1,183.2,941.3,188.1,944.3,194.4L944.3,194.4z"/>
		<path class="st3" d="M904.4,182.2l10.9,18.8c2.1,3.6-1.9,8.1-6,6.6l-7.8-2.6c-6.6-2.2-12.1-6.7-15.6-12.7L875,173.4
			c-2.1-3.6,1.9-8,5.9-6.6l7.8,2.7C895.3,171.7,900.8,176.2,904.4,182.2L904.4,182.2z"/>
		<path class="st3" d="M863.6,172.8l12.2,18c2.3,3.5-1.3,8.2-5.5,7.1l-8-2.1c-6.7-1.8-12.5-5.9-16.5-11.6L833.7,166
			c-2.3-3.4,1.3-8.1,5.5-7.1l8,2.2C853.8,162.9,859.7,167,863.6,172.8L863.6,172.8z"/>
		<path class="st3" d="M822.3,166.3l13.4,17.1c2.6,3.3-0.7,8.2-5,7.4l-8.1-1.6c-6.8-1.3-12.9-5-17.2-10.4L792,161.6
			c-2.6-3.3,0.7-8.2,5-7.4l8.1,1.6C811.9,157.2,818,160.9,822.3,166.3L822.3,166.3z"/>
		<path class="st3" d="M780.7,162.7l14.6,16.2c2.8,3.1-0.2,8.3-4.5,7.7l-8.2-1c-6.9-0.8-13.2-4.1-17.9-9.2l-14.6-16.2
			c-2.8-3.1,0.2-8.2,4.5-7.7l8.2,1C769.6,154.3,776,157.5,780.7,162.7L780.7,162.7z"/>
		<path class="st3" d="M738.8,162l15.7,15.2c3,2.9,0.4,8.2-3.9,8l-8.2-0.5c-6.9-0.3-13.5-3.1-18.5-7.9l-15.7-15.1
			c-3-2.9-0.4-8.2,3.9-8l8.2,0.5C727.2,154.4,733.8,157.2,738.8,162z"/>
		<path class="st3" d="M697.1,164.2l16.7,14c3.2,2.6,1,8.2-3.3,8.2l-8.3,0.1c-6.9,0.2-13.7-2.2-19-6.6l-16.7-14
			c-3.2-2.7-1-8.2,3.3-8.2l8.3-0.1C685,157.5,691.7,159.8,697.1,164.2L697.1,164.2z"/>
		<path class="st3" d="M655.6,169.4l17.6,12.8c3.4,2.4,1.5,8.1-2.7,8.5l-8.2,0.7c-6.9,0.6-13.8-1.2-19.4-5.3l-17.6-12.8
			c-3.4-2.5-1.6-8.1,2.7-8.5l8.2-0.7C643.1,163.5,650,165.4,655.6,169.4L655.6,169.4z"/>
		<path class="st3" d="M614.5,177.4l18.5,11.5c3.5,2.2,2.1,8-2.1,8.7l-8.2,1.3c-6.8,1.1-13.8-0.3-19.7-3.9l-18.5-11.5
			c-3.6-2.2-2.1-8,2.1-8.7l8.2-1.2C601.6,172.4,608.7,173.8,614.5,177.4L614.5,177.4z"/>
		<path class="st3" d="M574.2,188.3l19.2,10.2c3.7,2,2.7,7.8-1.5,8.8l-8.1,1.8c-6.8,1.6-13.9,0.7-20-2.6l-19.3-10.2
			c-3.7-2-2.7-7.8,1.5-8.7l8.1-1.9C560.9,184.1,568,185.1,574.2,188.3L574.2,188.3z"/>
		<path class="st3" d="M534.6,201.9l19.9,8.8c3.8,1.7,3.2,7.6-0.9,8.9l-8,2.4c-6.6,2.1-13.8,1.6-20.1-1.1l-19.9-8.9
			c-3.8-1.7-3.2-7.6,0.9-8.9l7.9-2.4C521.2,198.7,528.3,199.1,534.6,201.9L534.6,201.9z"/>
		<path class="st3" d="M496.2,218.3l20.5,7.4c3.9,1.4,3.8,7.4-0.3,8.9l-7.7,2.9c-6.5,2.5-13.6,2.6-20.1,0.3l-20.5-7.4
			c-3.9-1.4-3.7-7.4,0.3-8.9l7.7-2.9C482.5,216.1,489.7,216,496.2,218.3L496.2,218.3z"/>
		<path class="st3" d="M459,237.3l20.9,6c4,1.1,4.3,7.1,0.4,8.9l-7.5,3.4c-6.3,2.9-13.3,3.5-20,1.7l-21-6c-4-1.2-4.2-7.1-0.3-8.9
			l7.5-3.4C445.2,236,452.3,235.4,459,237.3z"/>
		<path class="st3" d="M423.1,258.9l21.3,4.5c4.1,0.9,4.7,6.8,1,8.9l-7.2,4c-6.1,3.4-13.1,4.5-19.9,3.1l-21.3-4.5
			c-4.1-0.9-4.8-6.8-1-8.8l7.3-4C409.3,258.5,416.4,257.5,423.1,258.9L423.1,258.9z"/>
		<path class="st3" d="M388.9,282.9l21.6,3c4.1,0.6,5.2,6.4,1.6,8.8l-7,4.5c-5.8,3.8-12.7,5.4-19.6,4.4l-21.6-3
			c-4.1-0.6-5.1-6.4-1.6-8.8l6.9-4.5C375,283.5,382,282,388.9,282.9L388.9,282.9z"/>
		<path class="st3" d="M356.4,309.2l21.7,1.5c4.2,0.3,5.6,6,2.2,8.6l-6.6,4.9c-5.5,4.2-12.3,6.3-19.2,5.8l-21.7-1.5
			c-4.2-0.3-5.6-6-2.2-8.6l6.6-5C342.7,310.8,349.5,308.7,356.4,309.2L356.4,309.2z"/>
		<path class="st3" d="M325.9,337.7h21.8c4.1,0,6,5.7,2.8,8.5l-6.2,5.4c-5.2,4.6-11.9,7.1-18.8,7.1h-21.8c-4.2,0-6.1-5.7-2.8-8.5
			l6.2-5.4C312.3,340.3,318.9,337.8,325.9,337.7z"/>
		<path class="st3" d="M297.4,368.4l21.7-1.5c4.2-0.3,6.4,5.2,3.4,8.2l-5.9,5.8c-4.9,4.9-11.3,7.9-18.2,8.4l-21.8,1.5
			c-4.2,0.3-6.4-5.2-3.4-8.2l5.9-5.8C284,371.9,290.5,368.9,297.4,368.4L297.4,368.4z"/>
		<path class="st3" d="M271.1,400.8l21.6-3c4.1-0.6,6.7,4.8,3.9,8l-5.4,6.2c-4.5,5.2-10.8,8.7-17.6,9.7l-21.5,3.1
			c-4.1,0.6-6.8-4.8-4-8l5.4-6.2C258,405.3,264.2,401.9,271.1,400.8L271.1,400.8z"/>
		<path class="st3" d="M247.2,435.1l21.3-4.5c4.1-0.9,7.1,4.2,4.5,7.7l-5,6.6c-4.2,5.5-10.2,9.4-17,10.9l-21.3,4.5
			c-4.1,0.9-7.1-4.2-4.5-7.7l5-6.6C234.3,440.5,240.4,436.6,247.2,435.1L247.2,435.1z"/>
		<path class="st3" d="M225.7,471l21-6c4-1.1,7.4,3.8,5,7.4l-4.5,6.9c-3.8,5.8-9.5,10.1-16.1,12l-20.9,6c-4,1.2-7.3-3.8-5-7.4
			l4.5-6.9C213.4,477.2,219.1,472.9,225.7,471L225.7,471z"/>
		<path class="st3" d="M206.7,508.2l20.5-7.4c3.9-1.4,7.6,3.2,5.5,7l-4,7.2c-3.3,6.1-8.8,10.7-15.3,13.1l-20.4,7.5
			c-3.9,1.4-7.6-3.2-5.5-7l4-7.2C194.8,515.3,200.2,510.6,206.7,508.2L206.7,508.2z"/>
		<path class="st3" d="M190.4,546.7l19.9-8.8c3.8-1.7,7.8,2.7,6,6.6l-3.5,7.5c-2.9,6.3-8,11.3-14.3,14.2l-19.9,8.8
			c-3.8,1.7-7.8-2.7-6-6.6l3.5-7.5C179,554.6,184.1,549.6,190.4,546.7L190.4,546.7z"/>
		<path class="st3" d="M176.9,586.2l19.3-10.2c3.7-2,8,2.2,6.4,6.2l-3,7.7c-2.5,6.5-7.2,11.9-13.3,15.1L167,615.2
			c-3.7,2-8-2.1-6.4-6.1l2.9-7.7C166,594.9,170.7,589.6,176.9,586.2L176.9,586.2z"/>
		<path class="st3" d="M166.1,626.7l18.5-11.6c3.5-2.2,8.1,1.6,6.8,5.7l-2.4,7.9c-2,6.6-6.3,12.3-12.2,16l-18.5,11.5
			c-3.5,2.2-8.1-1.6-6.8-5.7l2.4-7.9C155.9,636,160.3,630.3,166.1,626.7L166.1,626.7z"/>
		<path class="st3" d="M158.1,667.7l17.6-12.8c3.4-2.4,8.2,1,7.2,5.2l-1.9,8c-1.5,6.8-5.4,12.8-11.1,16.9l-17.6,12.8
			c-3.4,2.5-8.2-1-7.2-5.2l1.9-8.1C148.6,677.8,152.5,671.8,158.1,667.7L158.1,667.7z"/>
		<path class="st3" d="M153.1,709.2l16.7-14c3.2-2.7,8.3,0.5,7.6,4.7L176,708c-1,6.9-4.5,13.1-9.8,17.6l-16.7,14
			c-3.2,2.7-8.3-0.4-7.6-4.7l1.3-8.2C144.3,719.9,147.8,713.6,153.1,709.2L153.1,709.2z"/>
		<path class="st3" d="M151,750.9l15.6-15.2c3-2.9,8.2-0.1,7.9,4.2l-0.7,8.2c-0.6,6.9-3.6,13.4-8.6,18.2l-15.7,15.1
			c-3,2.9-8.2,0.1-7.9-4.2l0.8-8.2C143,762.2,146,755.7,151,750.9z"/>
		<path class="st3" d="M151.7,792.7l14.6-16.2c2.8-3.1,8.2-0.7,8.1,3.6l-0.2,8.3c-0.1,6.9-2.7,13.6-7.3,18.7l-14.6,16.2
			c-2.8,3.1-8.2,0.7-8.1-3.6l0.2-8.3C144.5,804.5,147.1,797.9,151.7,792.7L151.7,792.7z"/>
		<path class="st3" d="M155.4,834.3l13.4-17.2c2.6-3.3,8.1-1.3,8.4,3l0.4,8.3c0.4,6.9-1.8,13.7-6,19.2l-13.4,17.2
			c-2.6,3.3-8.2,1.3-8.4-3l-0.4-8.3C149,846.6,151.2,839.8,155.4,834.3L155.4,834.3z"/>
		<path class="st3" d="M162,875.6l12.2-18c2.3-3.5,8.1-1.9,8.6,2.4l1,8.2c0.9,6.9-0.8,13.8-4.6,19.6l-12.2,18.1
			c-2.3,3.5-8,1.8-8.6-2.4l-1-8.2C156.5,888.4,158.1,881.4,162,875.6z"/>
		<path class="st3" d="M171.4,916.3l10.9-18.9c2.1-3.6,7.9-2.4,8.7,1.8l1.6,8.1c1.3,6.8,0.2,13.8-3.3,19.8l-10.9,18.9
			c-2.1,3.6-7.9,2.4-8.7-1.8l-1.5-8.1C166.9,929.4,168,922.4,171.4,916.3L171.4,916.3z"/>
		<path class="st3" d="M183.7,956.3l9.6-19.6c1.8-3.7,7.7-2.9,8.8,1.2l2.1,8c1.8,6.7,1.2,13.8-1.8,20.1l-9.6,19.6
			c-1.8,3.8-7.7,2.9-8.8-1.2l-2.1-8C180,969.7,180.7,962.5,183.7,956.3L183.7,956.3z"/>
		<path class="st3" d="M198.7,995.3l8.1-20.2c1.6-3.9,7.5-3.5,8.9,0.6l2.7,7.8c2.3,6.5,2.1,13.7-0.4,20.1l-8.2,20.2
			c-1.6,3.9-7.5,3.5-8.9-0.6l-2.7-7.8C196,1008.9,196.2,1001.7,198.7,995.3L198.7,995.3z"/>
		<path class="st3" d="M216.4,1033.2l6.7-20.7c1.3-4,7.2-4,8.9,0l3.2,7.6c2.7,6.4,3.1,13.5,1,20.1l-6.7,20.7c-1.3,4-7.2,4-8.9,0
			l-3.2-7.6C214.7,1046.9,214.3,1039.8,216.4,1033.2L216.4,1033.2z"/>
		<path class="st3" d="M236.7,1069.7l5.3-21.1c1-4.1,7-4.5,8.9-0.7l3.8,7.3c3.1,6.2,4,13.3,2.3,20l-5.3,21.2c-1,4-6.9,4.4-8.9,0.6
			l-3.7-7.4C236,1083.5,235.1,1076.4,236.7,1069.7L236.7,1069.7z"/>
		<path class="st3" d="M259.5,1104.7l3.8-21.4c0.7-4.1,6.6-5,8.8-1.3l4.3,7.1c3.6,5.9,4.9,12.9,3.7,19.8l-3.8,21.4
			c-0.7,4.1-6.6,5-8.8,1.3l-4.2-7.1C259.7,1118.6,258.4,1111.5,259.5,1104.7L259.5,1104.7z"/>
		<path class="st3" d="M284.7,1138.1l2.3-21.7c0.4-4.2,6.2-5.4,8.7-1.9l4.7,6.8c4,5.6,5.8,12.6,5.1,19.4l-2.3,21.7
			c-0.4,4.1-6.2,5.4-8.7,1.9l-4.7-6.8C285.9,1151.9,284.1,1145,284.7,1138.1L284.7,1138.1z"/>
		<path class="st3" d="M312.2,1169.6l0.8-21.8c0.1-4.2,5.8-5.8,8.5-2.5l5.2,6.4c4.4,5.4,6.6,12.1,6.4,19l-0.8,21.8
			c-0.1,4.2-5.8,5.8-8.5,2.5l-5.2-6.4C314.3,1183.3,312,1176.5,312.2,1169.6L312.2,1169.6z"/>
		<path class="st3" d="M341.8,1199.2l-0.8-21.8c-0.1-4.2,5.4-6.2,8.4-3.1l5.6,6c4.7,5.1,7.5,11.6,7.8,18.6l0.7,21.8
			c0.1,4.2-5.4,6.2-8.4,3.1l-5.6-6C344.9,1212.6,342.1,1206.1,341.8,1199.2L341.8,1199.2z"/>
		<path class="st3" d="M373.4,1226.5l-2.3-21.7c-0.4-4.1,5-6.6,8.1-3.6l6,5.7c5.1,4.7,8.3,11.1,9.1,18l2.3,21.7
			c0.4,4.1-5,6.5-8.1,3.6l-6.1-5.7C377.4,1239.8,374.2,1233.4,373.4,1226.5L373.4,1226.5z"/>
		<path class="st3" d="M406.8,1251.6l-3.8-21.4c-0.7-4.1,4.5-6.9,7.9-4.2l6.4,5.2c5.4,4.3,9,10.5,10.2,17.3l3.8,21.4
			c0.7,4.1-4.5,6.9-7.8,4.2l-6.4-5.2C411.7,1264.6,408.1,1258.4,406.8,1251.6z"/>
		<path class="st3" d="M441.9,1274.4l-5.3-21.1c-1-4,4-7.2,7.5-4.7l6.8,4.8c5.7,3.9,9.8,9.8,11.5,16.5l5.3,21.1c1,4.1-4,7.2-7.5,4.7
			l-6.8-4.7C447.7,1287,443.6,1281.1,441.9,1274.4z"/>
		<path class="st3" d="M478.5,1294.6l-6.7-20.7c-1.3-4,3.5-7.5,7.2-5.2l7.1,4.3c5.9,3.6,10.4,9.1,12.6,15.7l6.7,20.8
			c1.3,3.9-3.5,7.5-7.2,5.3l-7-4.3C485.2,1306.7,480.7,1301.2,478.5,1294.6L478.5,1294.6z"/>
		<path class="st3" d="M516.4,1312.2l-8.2-20.2c-1.6-3.9,3-7.7,6.8-5.8l7.3,3.8c6.2,3.1,11.1,8.4,13.7,14.8l8.2,20.2
			c1.6,3.9-2.9,7.7-6.8,5.8l-7.4-3.8C523.9,1323.8,519,1318.6,516.4,1312.2L516.4,1312.2z"/>
		<path class="st3" d="M555.5,1327.1l-9.5-19.6c-1.8-3.7,2.4-7.9,6.4-6.2l7.6,3.3c6.4,2.7,11.6,7.6,14.7,13.8l9.5,19.6
			c1.8,3.7-2.4,7.9-6.4,6.2l-7.6-3.3C563.8,1338.2,558.6,1333.4,555.5,1327.1L555.5,1327.1z"/>
		<path class="st3" d="M595.5,1339.3l-10.9-18.9c-2.1-3.6,1.8-8,5.9-6.6l7.8,2.7c6.6,2.2,12.1,6.7,15.6,12.7l10.9,18.8
			c2.1,3.6-1.9,8.1-6,6.6l-7.8-2.7C604.5,1349.8,599,1345.3,595.5,1339.3L595.5,1339.3z"/>
		<path class="st3" d="M636.2,1348.7l-12.2-18c-2.3-3.5,1.3-8.2,5.5-7.1l8,2.2c6.7,1.8,12.6,5.9,16.5,11.6l12.2,18
			c2.3,3.4-1.3,8.2-5.5,7l-8-2.2C646,1358.5,640.1,1354.3,636.2,1348.7L636.2,1348.7z"/>
		<path class="st3" d="M677.5,1355.2l-13.4-17.2c-2.6-3.3,0.7-8.2,4.9-7.4l8.1,1.6c6.8,1.3,12.9,5,17.2,10.4l13.4,17.2
			c2.5,3.3-0.7,8.2-5,7.4l-8.1-1.6C687.9,1364.3,681.8,1360.6,677.5,1355.2L677.5,1355.2z"/>
		<path class="st3" d="M719.2,1358.8l-14.6-16.2c-2.8-3.1,0.2-8.3,4.4-7.7l8.2,1c6.9,0.8,13.3,4.1,17.9,9.2l14.6,16.2
			c2.8,3.1-0.2,8.3-4.5,7.7l-8.2-1C730.2,1367.2,723.8,1363.9,719.2,1358.8L719.2,1358.8z"/>
		<path class="st3" d="M761,1359.5l-15.7-15.2c-3-2.9-0.5-8.2,3.9-8l8.2,0.5c6.9,0.3,13.5,3.1,18.5,7.9l15.7,15.2
			c3,2.9,0.4,8.2-3.9,8l-8.2-0.5C772.6,1367.1,766,1364.2,761,1359.5L761,1359.5z"/>
		<path class="st3" d="M802.7,1357.2l-16.7-14c-3.2-2.7-1-8.2,3.3-8.2l8.3-0.1c6.9-0.2,13.7,2.2,19,6.7l16.7,14
			c3.2,2.7,1,8.2-3.3,8.2l-8.3,0.1C814.8,1364.1,808.1,1361.7,802.7,1357.2L802.7,1357.2z"/>
		<path class="st3" d="M844.3,1352.1l-17.7-12.8c-3.3-2.4-1.5-8.1,2.7-8.5l8.3-0.7c6.9-0.6,13.8,1.2,19.4,5.3l17.7,12.8
			c3.4,2.5,1.5,8.1-2.7,8.4l-8.2,0.7C856.8,1358,849.9,1356.1,844.3,1352.1L844.3,1352.1z"/>
		<path class="st3" d="M885.3,1344.1l-18.5-11.6c-3.5-2.2-2.1-8,2.1-8.6l8.2-1.3c6.8-1.1,13.9,0.3,19.8,3.9l18.5,11.5
			c3.5,2.2,2.1,8-2.1,8.7l-8.2,1.2C898.2,1349.1,891.1,1347.7,885.3,1344.1L885.3,1344.1z"/>
		<path class="st3" d="M925.7,1333.2l-19.2-10.2c-3.7-2-2.7-7.8,1.5-8.8l8-1.8c6.8-1.6,13.9-0.7,20,2.5l19.2,10.2
			c3.7,1.9,2.7,7.8-1.5,8.8l-8.1,1.8c-6.8,1.6-13.9,0.7-20-2.5H925.7z"/>
		<path class="st3" d="M965.2,1319.6l-19.9-8.9c-3.8-1.7-3.2-7.6,0.9-8.8l7.9-2.4c6.6-2,13.7-1.6,20.1,1.1l19.9,8.8
			c3.8,1.7,3.2,7.6-0.9,8.9l-7.9,2.4C978.7,1322.8,971.5,1322.3,965.2,1319.6L965.2,1319.6z"/>
		<path class="st3" d="M1003.7,1303.2l-20.5-7.5c-3.9-1.4-3.7-7.3,0.2-8.9l7.8-2.9c6.5-2.5,13.6-2.6,20.1-0.2l20.5,7.4
			c3.9,1.4,3.8,7.4-0.2,8.9l-7.8,2.9C1017.3,1305.4,1010.2,1305.5,1003.7,1303.2L1003.7,1303.2z"/>
		<path class="st3" d="M1040.9,1284.2l-21-6c-4-1.2-4.2-7.1-0.4-8.9l7.5-3.4c6.3-2.9,13.4-3.5,20.1-1.7l21,6c4,1.2,4.2,7.1,0.3,8.9
			l-7.5,3.5C1054.7,1285.5,1047.6,1286.1,1040.9,1284.2L1040.9,1284.2z"/>
		<path class="st3" d="M1076.7,1262.6l-21.3-4.5c-4.1-0.9-4.7-6.8-1-8.9l7.2-4c6.1-3.4,13.1-4.4,19.9-3l21.3,4.5
			c4.1,0.9,4.7,6.8,1,8.9l-7.3,4C1090.5,1263,1083.5,1264,1076.7,1262.6L1076.7,1262.6z"/>
		<path class="st3" d="M1111,1238.6l-21.6-3.1c-4.2-0.6-5.2-6.4-1.6-8.7l7-4.5c5.8-3.8,12.8-5.4,19.6-4.5l21.6,3.1
			c4.1,0.6,5.2,6.4,1.6,8.7l-7,4.5C1124.8,1238,1117.9,1239.6,1111,1238.6L1111,1238.6z"/>
		<path class="st3" d="M1143.4,1212.3l-21.7-1.5c-4.2-0.3-5.6-6-2.2-8.6l6.6-5c5.5-4.2,12.3-6.2,19.2-5.8l21.8,1.5
			c4.2,0.3,5.7,6,2.2,8.6l-6.7,5C1157.1,1210.7,1150.3,1212.7,1143.4,1212.3L1143.4,1212.3z"/>
		<polygon class="st4" points="698.5,280.8 730.3,257.9 718,220.3 749.6,243.5 781.5,220.2 769.3,257.4 801.3,280.5 762.1,280.4 
			750,318 738,280.6 		"/>
		<polygon class="st4" points="518.8,337 539.4,303.6 513.6,273.6 551.7,283 572.3,249.2 575.2,288.3 613.6,297.4 577.3,312.3 
			580.5,351.7 555.2,321.7 		"/>
		<polygon class="st4" points="374.2,457.7 380.5,419 345.2,401.1 384,395.2 390,356.1 407.7,391.1 446.7,384.9 418.9,412.5 
			436.9,447.6 402,429.7 		"/>
		<polygon class="st4" points="286.8,624.5 277.8,586.4 238.4,583.4 271.9,563 262.6,524.7 292.3,550.2 325.9,529.5 310.8,565.7 
			340.9,591.2 301.8,588 		"/>
		<polygon class="st4" points="269.9,812.1 247,780.3 209.5,792.6 232.6,761 209.3,729.1 246.6,741.4 269.7,709.4 269.5,748.6 
			307.1,760.7 269.8,772.6 		"/>
		<polygon class="st4" points="326.1,991.9 292.8,971.3 262.8,997 272.1,958.9 238.4,938.4 277.5,935.5 286.6,897 301.4,933.3 
			340.8,930.1 310.9,955.4 		"/>
		<polygon class="st4" points="446.8,1136.5 408.1,1130.2 390.3,1165.4 384.3,1126.7 345.3,1120.6 380.3,1103 374,1064 
			401.6,1091.8 436.8,1073.8 418.8,1108.6 		"/>
		<polygon class="st4" points="613.7,1223.9 575.5,1232.8 572.5,1272.2 552.2,1238.7 513.8,1248.1 539.4,1218.4 518.7,1184.7 
			554.8,1199.9 580.4,1169.8 577.2,1208.8 		"/>
		<polygon class="st4" points="801.3,1240.8 769.5,1263.6 781.8,1301.2 750.2,1278 718.3,1301.3 730.5,1264.1 698.5,1240.9 
			737.7,1241.1 749.8,1203.5 761.8,1240.8 		"/>
		<polygon class="st4" points="981.1,1184.6 960.4,1217.9 986.2,1247.9 948.1,1238.5 927.5,1272.3 924.7,1233.2 886.2,1224.1 
			922.5,1209.2 919.3,1169.8 944.6,1199.8 		"/>
		<polygon class="st4" points="1125.7,1063.8 1119.3,1102.5 1154.6,1120.4 1115.8,1126.3 1109.8,1165.4 1092.1,1130.3 
			1053.1,1136.6 1081,1109.1 1062.9,1073.9 1097.8,1091.8 		"/>
		<polygon class="st4" points="1213,897 1222,935.1 1261.4,938.1 1227.9,958.5 1237.2,996.8 1207.5,971.2 1173.9,992 1189.1,955.8 
			1158.9,930.2 1198,933.5 		"/>
		<polygon class="st4" points="1229.9,709.4 1252.8,741.2 1290.3,728.9 1267.2,760.5 1290.5,792.4 1253.2,780.1 1230.1,812.1 
			1230.3,772.9 1192.7,760.8 1230,748.9 		"/>
		<polygon class="st4" points="1173.7,529.6 1207,550.2 1237,524.5 1227.7,562.6 1261.4,583.1 1222.3,586 1213.2,624.5 
			1198.4,588.2 1159,591.4 1188.9,566.1 		"/>
		<polygon class="st4" points="1053,385 1091.7,391.3 1109.5,356.1 1115.5,394.8 1154.5,400.9 1119.5,418.5 1125.8,457.5 
			1098.2,429.7 1063,447.7 1081,412.9 		"/>
		<polygon class="st4" points="886.1,297.6 924.3,288.6 927.3,249.2 947.6,282.8 986,273.4 960.4,303.1 981.2,336.8 945,321.6 
			919.4,351.7 922.7,312.6 		"/>
		<path class="st3" d="M749.9,450.9c-170.9,0-309.9,139-309.9,309.9s139,309.9,309.9,309.9s309.9-139,309.9-309.9
			S920.8,450.9,749.9,450.9z M749.9,1061.5c-165.9,0-300.8-134.9-300.8-300.8s135-300.8,300.8-300.8s300.8,135,300.8,300.8
			S915.8,1061.5,749.9,1061.5z"/>
		<path class="st3" d="M749.9,343.5c-230.1,0-417.2,187.2-417.2,417.2S519.9,1178,749.9,1178s417.2-187.2,417.2-417.2
			S980,343.5,749.9,343.5z M749.9,1168.6c-224.9,0-407.9-183-407.9-407.9s183-407.9,407.9-407.9s407.9,183,407.9,407.9
			S974.8,1168.6,749.9,1168.6z"/>
		<path class="st3" d="M573.7,1039.4l-9.6-6.3l-22.5,34.2l-11.5-7.6l-5.3,8l32.5,21.4l5.3-8l-11.3-7.5L573.7,1039.4z"/>
		<path class="st3" d="M495.3,1047.1c-2.1-1.9-5.4-1.7-7.3,0.5c-1.8,2.1-1.7,5.2,0.3,7.1c2.1,1.9,5.3,1.8,7.3-0.3
			S497.3,1049.1,495.3,1047.1z M527.2,1002.6c-9.7-9-20.5-8.9-31.2,2.6l-19.3,20.8l8.4,7.8l19.8-21.4c6.1-6.6,11.4-7.4,15.8-3.3
			s3.7,9.5-2.2,15.9l-19.8,21.4l8.4,7.8l19.2-20.7C537.3,1021.5,536.5,1011.2,527.2,1002.6z M483.9,1036.6c-2.1-1.9-5.3-1.8-7.3,0.2
			c-1.9,2.1-1.8,5.3,0.2,7.3c2.1,1.9,5.3,1.8,7.3-0.2c0,0,0,0,0,0c1.9-2,1.9-5.1-0.1-7.1C484,1036.7,483.9,1036.6,483.9,1036.6
			L483.9,1036.6z"/>
		<path class="st3" d="M492.2,966.2l-15.8,12.1l-2.1-2.8c-2.8-3.8-2.7-6.5,1.5-11.4c4-5,6.6-8.5,7.2-10l-7.1-9.3
			c-1,2-5.3,7.2-8.8,12c-2.9,3.8-4.4,7.5-3.4,11.1l-0.2,0.1c-4.7-3.1-10.9-2.9-15.4,0.5c-3.7,2.8-5.5,6.3-5.6,10.2
			c-0.1,4.6,2.2,9.5,6.8,15.4c3.1,4.1,6.5,7.9,10.1,11.5l39.7-30.5L492.2,966.2z M458.7,991.9c-1.3-1.2-2.4-2.5-3.5-3.9
			c-3.1-4.2-3.2-8.1,0.5-11c3.5-2.7,7.8-1.8,11.3,2.8l2.7,3.6L458.7,991.9z"/>
		<path class="st3" d="M462.5,922l-14.6,7.8l-6.8-1.3l13.4-21.2l-6.3-11.8L431,924.8l-26.9-4.6l6.6,12.4l20.2,2.2
			c2.1,0.1,4.3,0.3,6.5,0.4l0.1,0.2l-19.7,10.5l5.4,10l44.6-23.9L462.5,922z"/>
		<path class="st3" d="M439.5,871.7l-47.4,18l4.1,10.8l47.4-17.9L439.5,871.7z M391.4,896c-1-2.6-3.9-3.9-6.6-2.9
			c-2.6,0.9-4,3.7-3.2,6.3c0,0.1,0.1,0.2,0.1,0.2c0.9,2.7,3.9,4.1,6.5,3.2c2.7-0.9,4.1-3.9,3.2-6.5
			C391.5,896.2,391.5,896.1,391.4,896z"/>
		<path class="st3" d="M428,831.9l-20.5,4.9l-32.6-9.4l3,12.5l13,2.1c3.9,0.6,7,1.1,10.3,1.5v0.2c-2.9,2-5.3,3.7-8.5,6l-10.6,7.9
			l3,12.7l25.4-22.5l20.3-4.8L428,831.9z"/>
		<path class="st3" d="M419.9,769.4l-9.4,0.7l1.6,20.7l-12,1l-1.5-18.6l-9.3,0.8l1.5,18.6l-10.5,0.8l-1.6-19.7l-9.4,0.7l2.5,31.1
			l50.5-4L419.9,769.4z"/>
		<path class="st3" d="M425.1,694.4l-9.1,0.4c0.6,3.2,0.7,6.5,0.3,9.7c-1.5,10.1-8.6,15.1-18.7,13.7c-11.1-1.6-15.5-9.4-14.2-18.4
			c0.4-3.3,1.5-6.4,3.2-9.2l-8.6-3.6c-1.3,1.9-3.2,6.1-4,12c-2.2,15.2,5.6,28.7,22.6,31.2c14.3,2,26.3-5.3,28.8-22.6
			C426.2,701.5,425.8,696.7,425.1,694.4z"/>
		<path class="st3" d="M421.1,633.8l-27-8.6l-3.5,10.9l27.8,8.9c8.5,2.7,11.5,7.1,9.7,12.9c-1.8,5.6-7,7.4-15.3,4.7l-27.8-8.9
			l-3.5,11l26.9,8.6c15.4,4.9,24.4-0.1,28.3-12.2C440.7,648.3,436,638.5,421.1,633.8z"/>
		<path class="st3" d="M452.6,577.1l17.3,8.7l5.4-9.8L429.8,554l-7.3,13l12.1,12.9c4.1,4.2,9.1,8.9,13.6,13l-0.1,0.2
			c-5.7-1.9-12-3.6-17.9-5l-17.2-3.9l-7.4,13.3l42.7,27.4l5.1-9.3L437,605.5c-5.3-3.4-12-7.4-17.9-11l0.1-0.1
			c6.4,2.2,13.5,4.2,19.5,5.6l19.8,4.8l4.3-7.8l-14.3-15c-4.2-4.6-9.5-9.9-14.4-14.4l0.1-0.2C440.7,571,447.2,574.4,452.6,577.1z"/>
		<path class="st3" d="M505.3,539.5l7.4-8.7L474.2,498l-7.4,8.7l14.8,12.6l-12.2,14.3L454.5,521l-7.5,8.7l38.5,32.9l7.5-8.8
			l-16.1-13.8l12.3-14.3L505.3,539.5z"/>
		<path class="st3" d="M544,474.8l-17.8-22l-8.9,7.2l18.3,22.6c5.6,7,5.7,12.3,1,16.1s-9.9,2.3-15.4-4.4l-18.4-22.6l-8.9,7.2
			l17.8,21.9c10.2,12.5,20.4,13.3,30.4,5.3C552.4,497.6,553.8,486.9,544,474.8z"/>
		<path class="st3" d="M595.9,452.8c-3.4-3.4-6.8-5.4-10.5-4.9l-0.1-0.2c3.7-4.2,4.3-10.3,1.7-15.2c-2.3-4.1-5.5-6.3-9.3-6.9
			c-4.5-0.7-9.7,0.9-16.2,4.6c-4.5,2.5-8.7,5.3-12.8,8.4l24.6,43.5l9.9-5.6l-9.8-17.3l3-1.7c4.1-2.2,6.8-1.8,11.1,3
			c4.4,4.7,7.4,7.7,8.9,8.5l10.2-5.8C604.7,462,600,457,595.9,452.8z M573.2,449.7l-3.9,2.2l-6.9-12.2c1.4-1.1,2.8-2,4.3-2.9
			c4.6-2.5,8.5-2,10.8,2C579.7,442.7,578.1,446.9,573.2,449.7z"/>
		<path class="st3" d="M612.4,406.1l-10.7,4.3l19,47l10.7-4.3L612.4,406.1z M608.9,398.9c-0.9-2.6-3.8-3.9-6.4-3
			c-0.1,0-0.1,0.1-0.2,0.1c-2.6,1-4,4-2.9,6.6s4,4,6.6,2.9C608.6,404.6,609.9,401.6,608.9,398.9
			C608.9,398.9,608.9,398.9,608.9,398.9z"/>
		<path class="st3" d="M674.4,387.3l-12.4,3.3l-1.8,13.1c-0.5,3.9-0.9,7-1.2,10.4h-0.1c-2.1-2.9-3.8-5.2-6.3-8.4l-8.1-10.5
			l-12.6,3.4l23.1,24.8l5.3,20l11-2.9l-5.4-20.4L674.4,387.3z"/>
		<path class="st3" d="M732.2,421.7l-20.7,2.1l-1.2-12l18.5-1.8l-1-9.3l-18.5,1.9l-1.1-10.5l19.7-2l-1-9.3l-31.1,3.2l5.2,50.4
			l32.1-3.3L732.2,421.7z"/>
		<path class="st3" d="M748.5,379.9l-0.5,9.6l13.6,0.7l-2,41l11.5,0.6l2-41l13.8,0.7l0.5-9.6L748.5,379.9z"/>
		<path class="st3" d="M815.5,372.8c-2.8-0.5-5.5,1.4-6,4.1c0,0,0,0.1,0,0.1c-0.4,2.8,1.5,5.5,4.3,5.9c2.8,0.4,5.3-1.4,5.8-4.2
			c0.6-2.7-1.2-5.3-3.9-5.9C815.7,372.8,815.6,372.8,815.5,372.8z M807.5,384.9l-8.4,49.9l11.3,1.9l8.4-49.9L807.5,384.9z"/>
		<path class="st3" d="M881,412.9c3.4,1.3,6.6,3.3,9.1,5.9l5.6-7.8c-3.2-3.1-7-5.4-11.2-6.9c-11.2-4.1-20.3-0.4-23.2,7.7
			c-2.5,6.9,1,13.2,7.9,18.8c5,4.1,6.6,6.7,5.5,9.6s-4.5,4.2-9.4,2.4c-4.1-1.6-7.8-4.1-10.8-7.4l-5.5,8.1c2.1,2.5,7,5.9,12.4,7.9
			c13,4.8,21.7,0.3,24.6-7.7c2.5-6.7,0.1-12.5-7.1-18.7c-5.3-4.6-7.5-6.9-6.3-10C873.3,412.5,876.3,411.2,881,412.9z"/>
		<path class="st3" d="M929.6,425.4L891.3,462l10.3,5.8l9.5-9.6l12.6,7.1l-3,13.3l10.7,6l11.1-51.9L929.6,425.4z M929.1,446.1
			l-2.5,10.9l-9.8-5.5l7.9-7.9c2.2-2.1,4.7-5.1,6.8-7.4l0.1,0.1C930.8,439.3,929.7,443.1,929.1,446.1z"/>
		<path class="st3" d="M1004,461c-1.4,1.2-3.4,1.7-5.8-0.3s-2.1-4-1.2-5.5l-4.7-3.8c-3.4,4.3-3.6,9.3,2.2,14
			c5.5,4.5,10.5,3.5,14.1-0.7L1004,461z M989,476.5c3.2,2.4,5.8,5.6,7.7,9.1l7.7-5.6c-1.2-2.5-4.2-6.7-9.3-10.8
			c-12.8-10.5-28.4-10.8-39.1,2.2c-4.8,5.7-7,12.5-6.1,18.8s4.5,12.5,11.6,18.3c4.5,3.6,9.5,6.4,14.9,8.5l16.9-20.7l-14.6-11.9
			l-5.6,6.9l6,5l-6.7,8.2c-1.8-0.7-3.4-1.7-4.8-3c-7.3-5.9-8.4-14.9-1.8-22.9C972.6,470.1,981.7,470.5,989,476.5z"/>
		<path class="st3" d="M1033,506.8l-7.6-8.6l-38,33.5l20.9,23.7l7.2-6.4l-13.3-15.1L1033,506.8z"/>
		<path class="st3" d="M1058.7,538.6l-41.6,29l6.6,9.5l41.6-29L1058.7,538.6z"/>
		<path class="st3" d="M1091.1,592.7l-20.2-2.4c-2.1-0.2-4.3-0.4-6.5-0.5l-0.1-0.2l19.8-10.3l-5.2-10l-44.8,23.3l5.2,10l14.7-7.6
			l6.7,1.4l-13.6,21.1l6.2,11.8l17.6-29.1l26.8,4.9L1091.1,592.7z"/>
		<path class="st3" d="M1118.1,664c-1.2-4.8-2.7-9.5-4.7-14.1l-48.2,12.2c0.5,4.1,1.3,8.2,2.3,12.2c2.5,9.8,5.6,15.3,9.3,18.2
			c3.3,2.6,7.6,3.5,11.7,2.5c6.3-1.6,9.5-6.8,9.6-12.8h0.1c3.4,5,8.2,6.5,12.5,5.4c4.1-1,7.2-4.2,8.1-8.3
			C1120.2,675.1,1119.8,670.8,1118.1,664z M1086.1,683.2c-5.2,1.3-8.2-2.6-9.5-7.7c-0.4-1.4-0.7-2.9-0.9-4.3l13.8-3.5l1,3.8
			C1091.9,677,1091,682,1086.1,683.2L1086.1,683.2z M1106.7,676.8c-3.6,0.9-6.8-1.6-8.3-7.4l-0.9-3.6l11.4-2.9
			c0.6,1.5,1.1,3.1,1.5,4.7C1111.7,672.5,1110.4,675.8,1106.7,676.8L1106.7,676.8z"/>
		<path class="st3" d="M1128.3,721.3l-51.8-11.2l1,11.8l13.3,2.5l1.2,14.5l-12.6,5l1,12.3l49.2-19.9L1128.3,721.3z M1110.8,732.5
			l-10.4,4l-0.9-11.2l11,2.1c3,0.6,6.9,1,9.9,1.5v0.2C1117.4,730.1,1113.8,731.3,1110.8,732.5z"/>
		<path class="st3" d="M1129.4,786.3l1-11.3l-50.4-4.4l-1,11.3l16.5,1.4l5,4.8l-22.9,10.5l-1.2,13.3l30.5-15.1l20.1,18.6l1.2-14
			l-15.8-12.9c-1.7-1.3-3.4-2.6-5.2-3.9v-0.2L1129.4,786.3z"/>
		<path class="st3" d="M1074.4,823l-3,11.5l11.6,6.8l-3.7,14l-13.6,0.5l-3.2,11.9l52.9-2.2l3.8-14.5L1074.4,823z M1109.3,855.6
			c-3.1,0-7-0.1-10.1,0l-11.2,0.3l2.9-10.8l9.6,5.7c2.6,1.5,6.1,3.3,8.8,4.8L1109.3,855.6z"/>
		<path class="st3" d="M1076.6,916.2l21.2-1.7l5.6-12.1l-45.9-21.3l-4.4,9.5l13.9,6.4c7.5,3.5,14,6.3,20.2,8.9v0.2
			c-6.6-0.2-13.3-0.1-19.9,0.4l-22.3,1.6l-5.1,10.9l45.9,21.3l4.4-9.5l-13.4-6.2c-6.4-3-12.9-5.7-19.5-8l0.1-0.2
			C1063.8,916.7,1070.2,916.7,1076.6,916.2z"/>
		<path class="st3" d="M1030.3,934.8l-17.8,26.1l7.9,5.4l11.4-16.6l33.9,23.1l6.5-9.5L1030.3,934.8z"/>
		<path class="st3" d="M1002.7,972.5l-7.5,8.7l38.2,33.2l7.5-8.7L1002.7,972.5z"/>
		<path class="st3" d="M1000.4,1050.9c-5.4,4.7-5.2,9.8-1.7,14l4.4-3.9c-0.9-1.6-1.1-3.6,1.3-5.7s4.3-1.4,5.6-0.3l4.5-4
			C1010.9,1047.1,1006,1046,1000.4,1050.9z M1000.8,1012c-4.8-5.6-11.1-8.9-17.5-9.1s-13,2.3-20,8.4c-4.2,3.9-7.9,8.3-10.8,13.3
			l17.6,20.1l14.2-12.4l-5.9-6.7l-5.9,5.2l-7-8c1-1.6,2.3-3.1,3.8-4.3c7.1-6.2,16-5.9,22.9,2c7.2,8.2,5.4,17.1-1.8,23.4
			c-3,2.8-6.5,4.9-10.3,6.1l4.2,8.5c2.7-0.7,7.3-3.1,12.2-7.4C1009,1040.1,1011.8,1024.8,1000.8,1012L1000.8,1012z"/>
		<path class="st3" d="M935.8,1033l-9.6,6.3l27.8,42.3l9.6-6.3L935.8,1033z"/>
		<path class="st3" d="M749.9,1104.8c-8.1,0-14.6,6.6-14.6,14.6c0,8.1,6.6,14.6,14.6,14.6s14.6-6.6,14.6-14.6c0,0,0,0,0,0
			C764.6,1111.4,758,1104.8,749.9,1104.8C749.9,1104.8,749.9,1104.8,749.9,1104.8z"/>
		<path class="st3" d="M722.4,936.5c-0.6,0.5-0.9,1.2-1,2c-0.8,7.2,2.9,13.5,10.9,19.1c2.6,1.7,9.8,6,21.7,13
			c7.8,4.6,7.7,11.8-0.5,21.6c1.6,2,3.5,3.7,5.6,5.2c7.1-5.2,11.9-11.2,14.6-18c5-11.3-1.5-20.1-19.6-26.5
			c-7.5-2.5-11.7-5.1-12.6-7.7c-0.5-1.4-0.1-3,1.1-3.9C733.7,940,727,938.4,722.4,936.5z"/>
		<path class="st3" d="M754.3,943l-8.5-1.4c-0.2,3.9,1.1,6.8,4.7,7.5C754.6,948.5,753.8,946.5,754.3,943z"/>
		<path class="st3" d="M741.6,723.6l1.7,102.8l12.9,4.2l2.1-107c11.9-4.5,17.9-17.8,13.4-29.6c-2.9-7.8-9.8-13.3-18-14.6
			c-1.2-0.2-2.4-0.4-3.6-0.4H750c-0.3,0-0.6,0.1-0.9,0.1c-1.1,0-2.2,0.1-3.3,0.3c-0.8,0.2-1.6,0.4-2.4,0.6c-0.5,0.2-1,0.3-1.4,0.5
			c-1,0.4-2,0.8-3,1.4c-0.2,0.1-0.3,0.2-0.4,0.2c-11.1,6.2-15,20.2-8.8,31.3C732.4,718,736.6,721.6,741.6,723.6L741.6,723.6z"/>
		<polygon class="st3" points="755.9,860.9 744.2,857.7 744.2,875.3 755.2,878.4 		"/>
		<path class="st3" d="M771.7,840.6l-35.5-10c-17.5-4.9-30.5-11.5-38.9-19.5c-7.1-7.8-8.9-14.6-5.3-20.3c3.5-5.3,9.3-6.9,17.5-4.6
			c18.7,5.3,27.8,5.6,27.5,1.1c-0.3-4.6-3.1-10-8.4-16.3c-5.4-6.3-13.4-9.9-24.1-10.8c-10.4,0.4-19.7,5.6-28,15.8
			c-9.3,11.4-10.6,24.2-3.9,38.4c9.2,14.1,24.6,24.8,46.1,32.1l47.5,12.3c10.9,2.6,16.2,5.4,16,8.3c0.4,2.4-7.3,6.4-23.4,11.9
			c3.6,1.1,6.9,2.3,9.9,3.3c2.9,1.1,5.8,2.3,8.6,3.7c2.7,1.4,4.8,2.5,6.3,3.3c12-5.6,18.9-12.4,20.7-20.5
			C806.9,857.8,796,848.4,771.7,840.6z"/>
		<path class="st3" d="M825,776c-8.3-10.2-17.6-15.4-28-15.8c-10.7,0.9-18.8,4.5-24.1,10.8c-5.3,6.3-8.1,11.7-8.4,16.3
			c-0.3,4.6,8.9,4.2,27.6-1.1c8.1-2.3,14-0.8,17.4,4.6c3.6,5.7,1.8,12.5-5.3,20.3c-8.5,8.1-21.5,14.6-38.9,19.5l-4.5,1.7
			c10.9,2.5,21.6,5.9,31.8,10.3c0.2-0.1,0.4-0.1,0.6-0.2c16.1-7.1,28-16.4,35.7-28.1C835.5,800.2,834.2,787.4,825,776z"/>
		<path class="st3" d="M783.7,895c-7.2-4.8-20.1-10.1-38.7-15.7c-18.6-5.6-25.7-8.7-25.8-11.7c-0.2-4.1,4.3-5.7,15.9-8.5l5.4-1.4
			c-10.4-2-20.5-4.8-30.5-8.5c-10.5,5.9-15,12.6-13.3,20c1.9,8.3,9.1,15.2,21.5,20.8c14.3,5.7,27.5,10.2,39.6,13.6
			c12.1,3.4,16.4,6.5,16.6,9.7c0,2.4-5.3,5.3-14.6,7.7c10.8,1.3,18.2,4.9,22.1,10.8c8.4-3.9,12.7-9.5,13-16.7
			C794.9,907,790.6,899.4,783.7,895z"/>
		<path class="st3" d="M746.2,1005.1c-1,7.2,0.9,34.8,3.7,40.5c3.4-8.9,2.6-26.7,2.4-36.8L746.2,1005.1z"/>
		<path class="st3" d="M745.8,971.6l-2-1.4c-7.2-4.5-11.2-7.2-12-8.2c-5.5,5.1-6.6,11.1-3.5,18c4.9,12.9,21.7,26.2,50.2,39.9
			C747.3,995.5,736.4,979.3,745.8,971.6z"/>
		<path class="st3" d="M749.7,987.7c4.2-5.6,5.9-10.7-1.7-14.9C747.4,977.7,743.6,982.2,749.7,987.7z"/>
		<polygon class="st3" points="755.2,907.2 744.9,904 745.4,918 754.7,919.9 		"/>
		<path class="st3" d="M753.7,923.4c-17.2-3.4-26.7-6.5-26.9-9.7c0-2.8,2-3.4,7.3-5.9s8.3-4,9.1-4.2l-24.7-9.4
			c-0.3,0.2-0.6,0.3-0.9,0.6c-0.1,0-0.2,0.1-0.3,0.2c-0.1,0-0.1,0-0.2,0.2c-6.8,4.3-10.9,11.8-10.9,19.8c0.4,8.4,6.3,14.6,17.7,18.5
			c4.7,1.5,9.5,2.7,14.3,3.5l16.6,2.6c4.8,1.3,6.8,3.2,6,5.9c-0.4,1.5-2,2.9-4.7,4.3l3.8,1.3c1.2,0.4,2.4,0.9,3.5,1.5
			c1.1,0.5,2.1,1,3.2,1.6c0.8,0.4,1.6,0.9,2.3,1.5c0.7,0.6,1.4,1.2,2,1.9c7.5-5.7,10.5-12,8.9-18.7
			C779.4,931.1,770.7,926.1,753.7,923.4z"/>
		<path class="st3" d="M693.8,599c0-19.8,10.5-38.2,27.6-48.3c-18.9,15.7-21.5,43.8-5.8,62.7c15.7,18.9,43.8,21.5,62.7,5.8
			c18.9-15.7,21.5-43.8,5.8-62.7c-1.7-2.1-3.7-4-5.8-5.8c26.6,15.7,35.5,50.1,19.8,76.7c-15.7,26.6-50.1,35.5-76.7,19.8
			C704.2,637.1,693.8,618.8,693.8,599z"/>
		<polygon class="st3" points="723.5,533 739.8,521.1 733.4,501.9 749.8,513.7 766,501.7 759.9,520.9 776.3,532.6 756.1,532.8 
			750.1,552 743.7,532.8 		"/>
		<path class="st3" d="M703.8,708.7c11.4-81.7-137.1-35.8-220.9-51.8c2.8,60.9,148.4,16.3,184.2,30.9c-34.5,4-110.3,15-162.8,17.7
			c0.2,54.8,138.6-9.3,167.5-0.6c-36.1,11.5-66.3,24.5-130.2,38.6c20,50.3,107.7-23.3,132.1-21c-31.1,17.9-47.1,30.8-91.6,50.8
			c27.9,25.1,74.8-21.3,90.2-30.5c4.4-2.6,10-7.8,15.5-3.9l0.1,0.1c12.8,8.9,36.2,15.4,42.8,2.7C721.2,741,698.7,729.7,703.8,708.7z
			"/>
		<path class="st3" d="M796.1,708.7c-11.4-81.7,137-35.8,220.9-51.8c-2.8,60.9-148.4,16.3-184.2,30.9c34.6,4,110.3,15,162.8,17.7
			c-0.2,54.8-138.6-9.3-167.5-0.6c36.1,11.5,66.3,24.5,130.2,38.6c-20,50.3-107.7-23.3-132.1-21c31.1,17.9,47.1,30.8,91.6,50.8
			c-28,25.1-74.8-21.4-90.2-30.5c-4.4-2.6-10-7.8-15.5-3.9l0,0.1c-12.8,8.9-36.2,15.4-42.8,2.7C778.7,741,801.2,729.7,796.1,708.7z"
			/>
		<polyline class="st5" points="6.9,2.8 306.6,2.8 1067.6,2.8 1075.5,2.8 1097.7,2.8 1099.5,2.8 		"/>
		<line class="st5" x1="6.9" y1="2.8" x2="6.9" y2="1063.4"/>
		<polyline class="st5" points="6.9,1134.2 6.9,1068.5 6.9,1063.4 6.9,2.8 		"/>
		<polyline class="st5" points="6.9,1134.2 6.9,1068.5 6.9,1063.4 6.9,2.8 6.9,0 		"/>
		<polyline class="st5" points="306.6,2.8 6.9,2.8 0,2.8 		"/>
	</g>
</g>
<g>
	<path class="st6" d="M2245.6,328.4l-59.8-59.8V77.4h191.2l59.8,59.8c52.8,52.8,52.8,138.4,0,191.2v0
		C2384,381.2,2298.4,381.2,2245.6,328.4z"/>
	<path class="st2" d="M2245,326.2l-59.3-59.3V77.4h189.5l59.3,59.3c52.3,52.3,52.3,137.2,0,189.5l0,0
		C2382.2,378.6,2297.4,378.6,2245,326.2z"/>
	<g id="Layer_2_2_">
		<g id="katman_1_1_">
			<path class="st3" d="M2421.3,311.7h-4.2c-0.5,0-0.9-0.5-0.9-1c0-0.2,0.1-0.5,0.3-0.6l1.2-1.1c1-0.9,2.3-1.4,3.7-1.4h4.2
				c0.5,0,0.9,0.5,0.9,1c0,0.3-0.1,0.5-0.3,0.7l-1.2,1C2423.9,311.1,2422.7,311.6,2421.3,311.7"/>
			<path class="st3" d="M2426.8,305.8l-4.2,0.3c-0.5,0-0.9-0.4-0.9-1c0-0.2,0.1-0.5,0.3-0.6l1.1-1.1c0.9-1,2.2-1.5,3.5-1.6l4.2-0.3
				c0.5,0,0.9,0.4,0.9,0.9c0,0.3-0.1,0.5-0.3,0.7l-1.1,1.1C2429.4,305.1,2428.1,305.7,2426.8,305.8"/>
			<path class="st3" d="M2431.9,299.5l-4.2,0.6c-0.5,0-1-0.3-1-0.9c0-0.3,0.1-0.5,0.2-0.7l1.1-1.2c0.9-1,2.1-1.7,3.4-1.9l4.2-0.6
				c0.5,0,1,0.4,1,0.9c0,0.2-0.1,0.5-0.2,0.7l-1.1,1.2C2434.4,298.6,2433.2,299.3,2431.9,299.5"/>
			<path class="st3" d="M2436.5,292.8l-4.1,0.9c-0.5,0.1-1-0.3-1-0.8c0-0.2,0-0.5,0.2-0.7l1-1.3c0.8-1.1,2-1.8,3.3-2.1l4.1-0.9
				c0.5-0.1,1,0.3,1.1,0.8c0,0.3,0,0.5-0.2,0.7l-1,1.3C2439,291.8,2437.8,292.5,2436.5,292.8"/>
			<path class="st3" d="M2440.7,285.9l-4,1.2c-0.5,0.1-1-0.2-1.1-0.7c-0.1-0.3,0-0.5,0.1-0.7l0.9-1.3c0.7-1.1,1.8-2,3.1-2.3l4-1.1
				c0.5-0.1,1,0.2,1.1,0.7c0.1,0.3,0,0.5-0.1,0.7l-0.9,1.3C2443.1,284.7,2441.9,285.5,2440.7,285.9"/>
			<path class="st3" d="M2444.3,278.7l-4,1.4c-0.5,0.1-1-0.1-1.1-0.6c-0.1-0.2,0-0.5,0.1-0.7l0.8-1.4c0.7-1.2,1.7-2.1,3-2.5l4-1.4
				c0.5-0.1,1,0.2,1.2,0.7c0.1,0.2,0,0.5-0.1,0.7l-0.8,1.4C2446.7,277.3,2445.6,278.2,2444.3,278.7"/>
			<path class="st3" d="M2447.5,271.2l-3.9,1.7c-0.5,0.2-1-0.1-1.2-0.6c-0.1-0.2-0.1-0.5,0-0.7l0.7-1.4c0.6-1.2,1.5-2.2,2.8-2.8
				l3.9-1.7c0.5-0.2,1,0.1,1.2,0.6c0.1,0.2,0.1,0.5,0,0.7l-0.7,1.4C2449.7,269.7,2448.7,270.7,2447.5,271.2"/>
			<path class="st3" d="M2450.1,263.6l-3.7,2c-0.5,0.2-1,0-1.2-0.5c-0.1-0.2-0.1-0.5,0-0.7l0.6-1.5c0.5-1.3,1.4-2.3,2.6-2.9l3.7-2
				c0.5-0.2,1,0,1.2,0.5c0.1,0.2,0.1,0.5,0,0.7l-0.6,1.5C2452.2,261.9,2451.3,262.9,2450.1,263.6"/>
			<path class="st3" d="M2452.2,255.7l-3.6,2.3c-0.5,0.2-1,0.1-1.3-0.4c-0.1-0.2-0.1-0.5-0.1-0.7l0.5-1.5c0.4-1.3,1.2-2.4,2.4-3.1
				l3.6-2.2c0.5-0.2,1-0.1,1.3,0.4c0.1,0.2,0.1,0.5,0.1,0.7l-0.5,1.5C2454.2,254,2453.4,255.1,2452.2,255.7"/>
			<path class="st3" d="M2453.7,247.8l-3.4,2.5c-0.4,0.3-1,0.1-1.3-0.3c-0.1-0.2-0.2-0.5-0.1-0.7l0.4-1.6c0.3-1.3,1.1-2.5,2.1-3.3
				l3.4-2.5c0.4-0.3,1-0.1,1.3,0.3c0.1,0.2,0.2,0.5,0.1,0.7l-0.4,1.6C2455.6,245.8,2454.8,247,2453.7,247.8"/>
			<path class="st3" d="M2454.7,239.8l-3.2,2.7c-0.4,0.3-1,0.2-1.3-0.2c-0.2-0.2-0.2-0.5-0.2-0.7l0.3-1.6c0.2-1.3,0.9-2.5,1.9-3.4
				l3.2-2.7c0.4-0.3,1-0.2,1.3,0.2c0.1,0.2,0.2,0.5,0.2,0.7l-0.2,1.6C2456.4,237.7,2455.8,238.9,2454.7,239.8"/>
			<path class="st3" d="M2455.1,231.7l-3,2.9c-0.4,0.3-1,0.3-1.3-0.1c-0.2-0.2-0.2-0.4-0.2-0.7l0.1-1.6c0.1-1.3,0.7-2.6,1.7-3.5
				l3-2.9c0.4-0.3,1-0.3,1.3,0.1c0.2,0.2,0.2,0.4,0.2,0.7l-0.1,1.6C2456.7,229.5,2456.1,230.8,2455.1,231.7"/>
			<path class="st3" d="M2455,223.6l-2.8,3.1c-0.4,0.4-0.9,0.4-1.3,0c-0.2-0.2-0.3-0.4-0.3-0.7v-1.6c0-1.3,0.5-2.6,1.4-3.6l2.8-3.1
				c0.4-0.4,1-0.3,1.3,0c0.2,0.2,0.3,0.4,0.3,0.7v1.6C2456.4,221.3,2455.9,222.6,2455,223.6"/>
			<path class="st3" d="M2454.3,215.5l-2.6,3.3c-0.3,0.4-0.9,0.4-1.3,0.1c-0.2-0.2-0.3-0.4-0.3-0.6l-0.1-1.6
				c-0.1-1.3,0.3-2.7,1.2-3.7l2.6-3.3c0.3-0.4,0.9-0.4,1.3-0.1c0.2,0.2,0.3,0.4,0.3,0.6l0.1,1.6
				C2455.5,213.2,2455.1,214.5,2454.3,215.5"/>
			<path class="st3" d="M2453,207.5l-2.4,3.5c-0.3,0.4-0.9,0.5-1.3,0.2c-0.2-0.2-0.3-0.4-0.4-0.6l-0.2-1.5c-0.2-1.3,0.1-2.7,0.9-3.8
				l2.4-3.5c0.3-0.4,0.9-0.5,1.3-0.2c0.2,0.2,0.3,0.4,0.4,0.6l0.2,1.6C2454.1,205.1,2453.7,206.5,2453,207.5"/>
			<path class="st3" d="M2451.2,199.7l-2.1,3.7c-0.3,0.4-0.9,0.5-1.3,0.2c-0.2-0.1-0.3-0.3-0.4-0.6l-0.3-1.6c-0.3-1.3,0-2.7,0.6-3.8
				l2.1-3.6c0.3-0.4,0.9-0.5,1.3-0.3c0.2,0.1,0.4,0.4,0.4,0.6l0.3,1.6C2452.1,197.1,2451.8,198.5,2451.2,199.7"/>
			<path class="st3" d="M2448.8,191.9l-1.9,3.8c-0.3,0.4-0.8,0.6-1.3,0.3c-0.2-0.1-0.4-0.3-0.4-0.6l-0.4-1.6
				c-0.4-1.3-0.2-2.7,0.3-3.9l1.9-3.8c0.3-0.4,0.8-0.6,1.3-0.3c0.2,0.1,0.4,0.3,0.4,0.6l0.4,1.6
				C2449.5,189.3,2449.4,190.7,2448.8,191.9"/>
			<path class="st3" d="M2445.9,184.4l-1.6,3.9c-0.2,0.5-0.8,0.7-1.2,0.4c-0.2-0.1-0.4-0.3-0.5-0.6l-0.5-1.5
				c-0.4-1.3-0.4-2.7,0.1-3.9l1.6-3.9c0.3-0.4,0.8-0.6,1.3-0.3c0.2,0.1,0.3,0.3,0.4,0.5l0.5,1.5
				C2446.4,181.8,2446.3,183.2,2445.9,184.4"/>
			<path class="st3" d="M2442.5,177l-1.3,4c-0.2,0.5-0.7,0.7-1.2,0.5c-0.2-0.1-0.4-0.3-0.5-0.5l-0.6-1.5c-0.5-1.2-0.6-2.6-0.2-3.9
				l1.3-4c0.2-0.5,0.7-0.7,1.2-0.5c0.2,0.1,0.4,0.3,0.5,0.5l0.6,1.5C2442.8,174.4,2442.8,175.7,2442.5,177"/>
			<path class="st3" d="M2438.5,170l-1,4.1c-0.2,0.5-0.7,0.8-1.2,0.6c-0.2-0.1-0.4-0.2-0.6-0.5l-0.7-1.4c-0.6-1.2-0.8-2.6-0.4-3.9
				l1-4.1c0.2-0.5,0.7-0.8,1.2-0.6c0.2,0.1,0.4,0.2,0.6,0.5l0.7,1.4C2438.7,167.3,2438.8,168.7,2438.5,170"/>
			<path class="st3" d="M2434.1,163.2l-0.7,4.2c-0.1,0.5-0.6,0.8-1.1,0.7c-0.2-0.1-0.5-0.2-0.6-0.4l-0.8-1.4
				c-0.7-1.1-0.9-2.5-0.7-3.8l0.7-4.1c0.1-0.5,0.6-0.8,1.1-0.7c0.2,0.1,0.4,0.2,0.6,0.4l0.8,1.4
				C2434.1,160.5,2434.4,161.9,2434.1,163.2"/>
			<path class="st3" d="M2429.2,156.7l-0.4,4.2c-0.1,0.5-0.6,0.8-1.1,0.7c-0.2,0-0.5-0.2-0.6-0.4l-0.9-1.3c-0.8-1.1-1.1-2.4-1-3.8
				l0.4-4.2c0.1-0.5,0.6-0.8,1.1-0.8c0.3,0,0.5,0.2,0.6,0.4l0.9,1.3C2429,154.1,2429.4,155.4,2429.2,156.7"/>
			<path class="st3" d="M2423.9,150.6l-0.1,4.2c-0.1,0.5-0.5,0.9-1,0.8c-0.2,0-0.5-0.2-0.6-0.3l-1-1.2c-0.9-1-1.3-2.3-1.3-3.7
				l0.1-4.2c0.1-0.5,0.5-0.9,1-0.8c0.2,0,0.5,0.2,0.6,0.3l1,1.2C2423.5,148,2423.9,149.3,2423.9,150.6"/>
			<path class="st3" d="M2418.2,144.9l0.1,4.2c0,0.5-0.4,0.9-1,0.9c-0.2,0-0.5-0.1-0.6-0.3l-1.1-1.2c-0.9-1-1.5-2.3-1.5-3.6
				l-0.2-4.2c0-0.5,0.5-0.9,1-0.9c0.2,0,0.5,0.1,0.7,0.3l1.1,1.2C2417.6,142.3,2418.1,143.6,2418.2,144.9"/>
			<path class="st3" d="M2412.1,139.6l0.4,4.2c0,0.5-0.4,0.9-0.9,1c-0.3,0-0.5-0.1-0.7-0.3l-1.2-1.1c-1-0.9-1.6-2.1-1.8-3.5
				l-0.4-4.2c0-0.5,0.4-0.9,0.9-1c0.2,0,0.5,0.1,0.6,0.2l1.2,1.1C2411.3,137,2411.9,138.3,2412.1,139.6"/>
			<path class="st3" d="M2405.6,134.7l0.7,4.2c0,0.5-0.3,1-0.9,1c-0.2,0-0.5-0.1-0.7-0.2l-1.2-1c-1.1-0.8-1.8-2-2-3.4l-0.7-4.1
				c-0.1-0.5,0.3-1,0.8-1c0.3,0,0.5,0,0.7,0.2l1.2,1C2404.6,132.2,2405.4,133.4,2405.6,134.7"/>
			<path class="st3" d="M2398.8,130.3l1,4.1c0.1,0.5-0.3,1-0.8,1.1c-0.2,0-0.5,0-0.7-0.2l-1.3-0.9c-1.1-0.8-1.9-1.9-2.2-3.2l-1-4.1
				c-0.1-0.5,0.3-1,0.8-1.1c0.2,0,0.5,0,0.7,0.2l1.3,0.9C2397.7,127.9,2398.5,129.1,2398.8,130.3"/>
			<path class="st3" d="M2391.7,126.4l1.3,4c0.1,0.5-0.2,1-0.7,1.1c-0.2,0.1-0.5,0-0.7-0.1l-1.4-0.8c-1.1-0.7-2-1.7-2.4-3l-1.3-4
				c-0.1-0.5,0.2-1,0.7-1.1c0.2-0.1,0.5,0,0.7,0.1l1.4,0.8C2390.4,124.1,2391.3,125.2,2391.7,126.4"/>
			<path class="st3" d="M2384.4,123l1.6,3.9c0.2,0.5-0.1,1-0.6,1.2c-0.2,0.1-0.5,0.1-0.7-0.1l-1.4-0.7c-1.2-0.6-2.1-1.6-2.6-2.9
				l-1.6-3.9c-0.2-0.5,0.1-1,0.6-1.2c0.2-0.1,0.5-0.1,0.7,0.1l1.4,0.7C2383,120.7,2383.9,121.8,2384.4,123"/>
			<path class="st3" d="M2376.8,120.1l1.8,3.8c0.2,0.5,0,1-0.5,1.2c-0.2,0.1-0.5,0.1-0.7,0l-1.5-0.6c-1.2-0.5-2.2-1.5-2.8-2.7
				l-1.9-3.8c-0.2-0.5,0-1,0.5-1.2c0.2-0.1,0.5-0.1,0.7,0l1.5,0.6C2375.2,118,2376.2,118.9,2376.8,120.1"/>
			<path class="st3" d="M2369.1,117.8l2.1,3.7c0.2,0.5,0,1-0.4,1.2c-0.2,0.1-0.5,0.1-0.7,0l-1.5-0.5c-1.3-0.4-2.3-1.3-3-2.5
				l-2.1-3.7c-0.2-0.5,0-1,0.4-1.2c0.2-0.1,0.5-0.1,0.7,0l1.5,0.5C2367.3,115.7,2368.4,116.6,2369.1,117.8"/>
			<path class="st3" d="M2361.2,116l2.4,3.5c0.2,0.5,0.1,1-0.4,1.3c-0.2,0.1-0.5,0.1-0.7,0.1l-1.5-0.4c-1.3-0.3-2.4-1.1-3.2-2.2
				l-2.4-3.5c-0.3-0.5-0.1-1,0.4-1.3c0.2-0.1,0.5-0.2,0.7-0.1l1.5,0.4C2359.3,114.1,2360.4,114.9,2361.2,116"/>
			<path class="st3" d="M2353.2,114.7l2.6,3.3c0.3,0.4,0.2,1-0.2,1.3c-0.2,0.2-0.5,0.2-0.8,0.1l-1.6-0.3c-1.3-0.2-2.5-1-3.3-2
				l-2.6-3.3c-0.3-0.4-0.2-1,0.3-1.3c0.2-0.1,0.5-0.2,0.7-0.1l1.6,0.3C2351.2,112.9,2352.4,113.6,2353.2,114.7"/>
			<path class="st3" d="M2345.1,114l2.8,3.1c0.3,0.4,0.2,1-0.2,1.3c-0.2,0.2-0.5,0.2-0.7,0.2l-1.6-0.2c-1.3-0.2-2.6-0.8-3.5-1.8
				l-2.8-3.1c-0.3-0.4-0.3-1,0.1-1.3c0.2-0.2,0.5-0.2,0.7-0.2l1.6,0.2C2343,112.4,2344.2,113,2345.1,114"/>
			<path class="st3" d="M2337,113.9l3,2.9c0.3,0.4,0.3,1-0.1,1.3c-0.2,0.2-0.4,0.2-0.7,0.2l-1.6-0.1c-1.3-0.1-2.6-0.6-3.6-1.5
				l-3-2.9c-0.3-0.4-0.3-1,0.1-1.3c0.2-0.2,0.4-0.3,0.7-0.2l1.6,0.1C2334.8,112.4,2336.1,113,2337,113.9"/>
			<path class="st3" d="M2329,114.3l3.2,2.7c0.4,0.4,0.4,0.9,0,1.3c-0.2,0.2-0.4,0.3-0.7,0.3h-1.6c-1.3,0-2.6-0.4-3.7-1.3l-3.2-2.7
				c-0.4-0.4-0.4-0.9,0-1.3c0.2-0.2,0.4-0.3,0.7-0.3h1.6C2326.6,113,2327.9,113.5,2329,114.3"/>
			<path class="st3" d="M2320.9,115.3l3.4,2.5c0.4,0.3,0.4,0.9,0.1,1.3c-0.2,0.2-0.4,0.3-0.6,0.3l-1.6,0.1c-1.3,0.1-2.7-0.2-3.8-1
				l-3.4-2.5c-0.4-0.3-0.4-0.9-0.1-1.3c0.2-0.2,0.4-0.3,0.6-0.3l1.6-0.1C2318.5,114.1,2319.8,114.5,2320.9,115.3"/>
			<path class="st3" d="M2313,116.8l3.6,2.2c0.4,0.3,0.5,0.9,0.2,1.3c-0.1,0.2-0.4,0.3-0.6,0.4l-1.6,0.3c-1.3,0.2-2.7-0.1-3.8-0.8
				l-3.6-2.2c-0.4-0.3-0.5-0.9-0.2-1.3c0.1-0.2,0.4-0.3,0.6-0.4l1.6-0.2C2310.5,115.9,2311.8,116.2,2313,116.8"/>
			<path class="st3" d="M2305.2,119l3.7,2c0.4,0.3,0.6,0.9,0.3,1.3c-0.1,0.2-0.3,0.3-0.6,0.4l-1.6,0.4c-1.3,0.3-2.7,0.1-3.9-0.5
				l-3.8-2c-0.4-0.3-0.6-0.8-0.3-1.3c0.1-0.2,0.4-0.4,0.6-0.4l1.6-0.4C2302.6,118.2,2303.9,118.3,2305.2,119"/>
			<path class="st3" d="M2297.5,121.6l3.9,1.7c0.4,0.3,0.6,0.8,0.4,1.3c-0.1,0.2-0.3,0.4-0.6,0.4l-1.5,0.5c-1.3,0.4-2.7,0.3-3.9-0.2
				l-3.9-1.7c-0.5-0.3-0.6-0.8-0.4-1.3c0.1-0.2,0.3-0.4,0.5-0.4l1.5-0.5C2294.9,121,2296.3,121.1,2297.5,121.6"/>
			<path class="st3" d="M2290.1,124.8l4,1.4c0.5,0.2,0.7,0.7,0.5,1.2c-0.1,0.2-0.3,0.4-0.5,0.5l-1.5,0.6c-1.3,0.5-2.6,0.5-3.9,0.1
				l-4-1.4c-0.5-0.2-0.7-0.8-0.5-1.2c0.1-0.2,0.3-0.4,0.5-0.5l1.5-0.6C2287.5,124.3,2288.8,124.3,2290.1,124.8"/>
			<path class="st3" d="M2282.8,128.4l4,1.2c0.5,0.2,0.7,0.7,0.5,1.2c-0.1,0.2-0.3,0.4-0.5,0.5l-1.4,0.7c-1.2,0.6-2.6,0.7-3.9,0.3
				l-4.1-1.2c-0.5-0.2-0.7-0.7-0.6-1.2c0.1-0.2,0.3-0.4,0.5-0.5l1.5-0.7C2280.2,128.2,2281.6,128.1,2282.8,128.4"/>
			<path class="st3" d="M2275.9,132.6l4.1,0.9c0.5,0.1,0.8,0.7,0.6,1.2c-0.1,0.2-0.2,0.4-0.4,0.5l-1.4,0.8c-1.2,0.7-2.5,0.9-3.9,0.6
				l-4.1-0.9c-0.5-0.2-0.8-0.7-0.6-1.2c0.1-0.2,0.2-0.4,0.4-0.5l1.4-0.8C2273.2,132.6,2274.6,132.4,2275.9,132.6"/>
			<path class="st3" d="M2269.3,137.3l4.2,0.6c0.5,0.1,0.8,0.6,0.7,1.1c-0.1,0.2-0.2,0.4-0.4,0.6l-1.4,0.9c-1.1,0.7-2.5,1-3.8,0.9
				l-4.2-0.6c-0.5-0.1-0.8-0.6-0.7-1.1c0.1-0.2,0.2-0.4,0.4-0.6l1.3-0.9C2266.6,137.4,2267.9,137.1,2269.3,137.3"/>
			<path class="st3" d="M2263,142.4l4.2,0.3c0.5,0.1,0.9,0.5,0.8,1.1c0,0.2-0.2,0.5-0.4,0.6l-1.3,1c-1.1,0.8-2.4,1.2-3.7,1.1
				l-4.2-0.3c-0.5-0.1-0.9-0.5-0.8-1.1c0-0.2,0.2-0.5,0.4-0.6l1.3-1C2260.3,142.7,2261.7,142.3,2263,142.4"/>
			<path class="st3" d="M2257.1,147.9h4.2c0.5,0,0.9,0.5,0.9,1c0,0.2-0.1,0.5-0.3,0.6l-1.2,1c-1,0.9-2.3,1.4-3.7,1.4h-4.2
				c-0.5,0-0.9-0.5-0.9-1c0-0.3,0.1-0.5,0.3-0.7l1.2-1C2254.4,148.4,2255.7,147.9,2257.1,147.9"/>
			<path class="st3" d="M2251.6,153.8l4.2-0.3c0.5,0,0.9,0.4,0.9,0.9c0,0.2-0.1,0.5-0.3,0.7l-1.1,1.1c-0.9,0.9-2.2,1.5-3.5,1.6
				l-4.2,0.3c-0.5,0-0.9-0.4-0.9-1c0-0.2,0.1-0.5,0.3-0.6l1.1-1.1C2249,154.5,2250.2,153.9,2251.6,153.8"/>
			<path class="st3" d="M2246.5,160.1l4.2-0.6c0.5,0,1,0.4,1,0.9c0,0.2-0.1,0.5-0.2,0.7l-1,1.2c-0.9,1-2.1,1.7-3.4,1.9l-4.2,0.6
				c-0.5,0-1-0.4-1-0.9c0-0.2,0.1-0.5,0.2-0.7l1-1.2C2243.9,161,2245.2,160.3,2246.5,160.1"/>
			<path class="st3" d="M2241.8,166.7l4.1-0.9c0.5-0.1,1,0.3,1,0.8c0,0.2,0,0.5-0.2,0.7l-1,1.3c-0.8,1.1-2,1.8-3.3,2.1l-4.1,0.9
				c-0.5,0.1-1-0.3-1-0.8c0-0.3,0-0.5,0.2-0.7l1-1.3C2239.4,167.8,2240.5,167,2241.8,166.7"/>
			<path class="st3" d="M2237.7,173.7l4.1-1.2c0.5-0.1,1,0.2,1.1,0.7c0.1,0.3,0,0.5-0.1,0.7l-0.9,1.3c-0.7,1.1-1.8,2-3.1,2.3
				l-4.1,1.2c-0.5,0.1-1-0.2-1.1-0.7c-0.1-0.3,0-0.5,0.1-0.7l0.9-1.3C2235.3,174.9,2236.4,174.1,2237.7,173.7"/>
			<path class="st3" d="M2234,180.9l4-1.4c0.5-0.1,1,0.2,1.1,0.6c0.1,0.2,0,0.5-0.1,0.7l-0.8,1.4c-0.7,1.2-1.7,2.1-3,2.5l-4,1.4
				c-0.5,0.1-1-0.2-1.2-0.7c-0.1-0.2,0-0.5,0.1-0.7l0.8-1.4C2231.7,182.3,2232.7,181.4,2234,180.9"/>
			<path class="st3" d="M2230.9,188.3l3.8-1.7c0.5-0.2,1,0.1,1.2,0.5c0.1,0.2,0.1,0.5,0,0.7l-0.7,1.4c-0.6,1.2-1.6,2.2-2.8,2.7
				l-3.8,1.7c-0.5,0.2-1,0-1.2-0.5c-0.1-0.2-0.1-0.5,0-0.8l0.7-1.4C2228.7,189.9,2229.6,188.9,2230.9,188.3"/>
			<path class="st3" d="M2228.2,196l3.7-2c0.5-0.2,1,0,1.2,0.5c0.1,0.2,0.1,0.5,0,0.7l-0.6,1.5c-0.5,1.3-1.4,2.3-2.6,2.9l-3.7,2
				c-0.5,0.2-1,0-1.2-0.5c-0.1-0.2-0.1-0.5,0-0.7l0.6-1.5C2226.1,197.7,2227.1,196.7,2228.2,196"/>
			<path class="st3" d="M2226.1,203.8l3.6-2.2c0.5-0.2,1-0.1,1.3,0.4c0.1,0.2,0.1,0.5,0.1,0.7l-0.5,1.5c-0.4,1.3-1.2,2.4-2.4,3.1
				l-3.6,2.2c-0.5,0.2-1,0.1-1.3-0.4c-0.1-0.2-0.1-0.5-0.1-0.7l0.5-1.5C2224.2,205.6,2225,204.5,2226.1,203.8"/>
			<path class="st3" d="M2224.6,211.8l3.4-2.5c0.4-0.3,1-0.1,1.3,0.3c0.1,0.2,0.2,0.5,0.1,0.7l-0.4,1.6c-0.3,1.3-1.1,2.5-2.1,3.3
				l-3.4,2.5c-0.4,0.3-1,0.1-1.3-0.3c-0.1-0.2-0.2-0.5-0.1-0.7l0.4-1.6C2222.8,213.7,2223.5,212.6,2224.6,211.8"/>
			<path class="st3" d="M2223.6,219.8l3.2-2.7c0.4-0.3,1-0.2,1.3,0.2c0.1,0.2,0.2,0.4,0.2,0.7l-0.3,1.6c-0.2,1.3-0.9,2.5-1.9,3.4
				l-3.2,2.7c-0.4,0.3-1,0.2-1.3-0.2c-0.1-0.2-0.2-0.4-0.2-0.7l0.2-1.6C2221.9,221.9,2222.6,220.7,2223.6,219.8"/>
			<path class="st3" d="M2223.2,227.9l3-2.9c0.4-0.3,1-0.3,1.3,0.1c0.2,0.2,0.2,0.4,0.2,0.7l-0.1,1.6c-0.1,1.3-0.7,2.6-1.7,3.5
				l-3,2.9c-0.4,0.3-1,0.3-1.3-0.1c-0.2-0.2-0.2-0.4-0.2-0.7l0.2-1.6C2221.7,230.1,2222.3,228.8,2223.2,227.9"/>
			<path class="st3" d="M2223.4,236l2.8-3.1c0.4-0.4,1-0.4,1.3,0c0.2,0.2,0.3,0.4,0.3,0.7v1.6c0,1.3-0.5,2.6-1.4,3.6l-2.8,3.1
				c-0.4,0.4-1,0.3-1.3,0c-0.2-0.2-0.3-0.4-0.3-0.7v-1.6C2222,238.3,2222.5,237,2223.4,236"/>
			<path class="st3" d="M2224.1,244l2.6-3.3c0.3-0.4,0.9-0.4,1.3-0.1c0.2,0.2,0.3,0.4,0.3,0.7l0.1,1.6c0.1,1.3-0.3,2.7-1.2,3.7
				l-2.6,3.3c-0.3,0.4-0.9,0.4-1.3,0.1c-0.2-0.2-0.3-0.4-0.3-0.6l-0.1-1.6C2222.9,246.4,2223.3,245.1,2224.1,244"/>
			<path class="st3" d="M2225.4,252l2.4-3.5c0.3-0.4,0.9-0.5,1.3-0.2c0.2,0.2,0.3,0.4,0.3,0.6l0.2,1.6c0.2,1.3-0.2,2.7-0.9,3.8
				l-2.4,3.5c-0.3,0.4-0.9,0.5-1.3,0.1c-0.2-0.2-0.3-0.4-0.3-0.6l-0.2-1.6C2224.3,254.5,2224.7,253.1,2225.4,252"/>
			<path class="st3" d="M2227.2,259.9l2.1-3.6c0.3-0.4,0.9-0.5,1.3-0.2c0.2,0.1,0.3,0.4,0.4,0.6l0.3,1.6c0.3,1.3,0,2.7-0.6,3.8
				l-2.1,3.7c-0.3,0.4-0.9,0.5-1.3,0.2c-0.2-0.1-0.3-0.3-0.4-0.6l-0.3-1.6C2226.3,262.4,2226.5,261.1,2227.2,259.9"/>
			<path class="st3" d="M2229.6,267.6l1.8-3.8c0.3-0.4,0.8-0.6,1.3-0.3c0.2,0.1,0.4,0.3,0.4,0.6l0.4,1.6c0.4,1.3,0.2,2.7-0.4,3.9
				l-1.8,3.8c-0.3,0.4-0.8,0.6-1.3,0.3c-0.2-0.1-0.4-0.3-0.4-0.6l-0.4-1.6C2228.8,270.2,2229,268.9,2229.6,267.6"/>
			<path class="st3" d="M2232.5,275.2l1.6-3.9c0.2-0.5,0.8-0.7,1.2-0.4c0.2,0.1,0.4,0.3,0.5,0.5l0.5,1.5c0.4,1.3,0.4,2.7-0.1,3.9
				l-1.6,3.9c-0.2,0.5-0.8,0.7-1.2,0.4c-0.2-0.1-0.4-0.3-0.5-0.5l-0.5-1.5C2232,277.8,2232,276.4,2232.5,275.2"/>
			<path class="st3" d="M2235.9,282.5l1.3-4c0.2-0.5,0.7-0.7,1.2-0.5c0.2,0.1,0.4,0.3,0.5,0.5l0.6,1.5c0.5,1.2,0.6,2.6,0.2,3.9
				l-1.3,4c-0.2,0.5-0.7,0.7-1.2,0.5c-0.2-0.1-0.4-0.3-0.5-0.5l-0.6-1.5C2235.6,285.2,2235.5,283.8,2235.9,282.5"/>
			<path class="st3" d="M2239.8,289.6l1-4.1c0.2-0.5,0.7-0.8,1.2-0.6c0.2,0.1,0.4,0.2,0.5,0.5l0.7,1.4c0.6,1.2,0.8,2.6,0.4,3.9
				l-1,4.1c-0.2,0.5-0.7,0.8-1.2,0.6c-0.2-0.1-0.4-0.2-0.5-0.5l-0.7-1.4C2239.7,292.3,2239.5,290.9,2239.8,289.6"/>
			<path class="st3" d="M2244.2,296.4l0.7-4.1c0.1-0.5,0.6-0.8,1.1-0.7c0.2,0.1,0.4,0.2,0.6,0.4l0.8,1.4c0.7,1.1,0.9,2.5,0.7,3.8
				l-0.7,4.2c-0.1,0.5-0.6,0.8-1.1,0.7c-0.2-0.1-0.4-0.2-0.6-0.4l-0.8-1.4C2244.3,299.1,2244,297.7,2244.2,296.4"/>
			<path class="st3" d="M2249.1,302.8l0.4-4.2c0.1-0.5,0.6-0.8,1.1-0.7c0.2,0,0.5,0.2,0.6,0.4l0.9,1.3c0.8,1.1,1.1,2.4,1,3.8
				l-0.4,4.2c-0.1,0.5-0.6,0.8-1.1,0.7c-0.2,0-0.5-0.2-0.6-0.4l-0.9-1.3C2249.4,305.5,2249,304.2,2249.1,302.8"/>
			<path class="st3" d="M2254.4,308.9l0.2-4.2c0.1-0.5,0.5-0.9,1-0.8c0.2,0,0.5,0.2,0.6,0.3l1,1.2c0.9,1,1.3,2.3,1.2,3.7l-0.1,4.2
				c0,0.5-0.5,0.9-1,0.8c-0.3,0-0.5-0.2-0.6-0.4l-1-1.2C2254.9,311.6,2254.4,310.3,2254.4,308.9"/>
			<path class="st3" d="M2260.2,314.7l-0.1-4.2c0-0.5,0.5-0.9,1-0.9c0.2,0,0.5,0.1,0.6,0.3l1.1,1.2c0.9,1,1.5,2.3,1.5,3.6l0.2,4.2
				c0,0.5-0.4,0.9-1,0.9c-0.3,0-0.5-0.1-0.7-0.3l-1.1-1.2C2260.8,317.3,2260.2,316,2260.2,314.7"/>
			<path class="st3" d="M2266.3,320l-0.4-4.2c0-0.5,0.3-1,0.9-1c0.3,0,0.5,0.1,0.7,0.2l1.2,1.1c1,0.9,1.6,2.1,1.8,3.5l0.4,4.2
				c0,0.5-0.4,0.9-0.9,1c-0.2,0-0.5-0.1-0.6-0.2l-1.2-1.1C2267,322.5,2266.4,321.3,2266.3,320"/>
			<path class="st3" d="M2272.8,324.8l-0.7-4.1c-0.1-0.5,0.3-1,0.8-1c0.2,0,0.5,0.1,0.7,0.2l1.2,1c1.1,0.8,1.8,2,2,3.4l0.7,4.1
				c0,0.5-0.3,1-0.9,1c-0.2,0-0.5-0.1-0.7-0.2l-1.2-1C2273.7,327.3,2273,326.2,2272.8,324.8"/>
			<path class="st3" d="M2279.5,329.2l-1-4.1c-0.1-0.5,0.3-1,0.8-1.1c0.2,0,0.5,0,0.7,0.2l1.3,0.9c1.1,0.8,1.9,1.9,2.2,3.2l1,4.1
				c0.1,0.5-0.3,1-0.8,1.1c-0.2,0-0.5,0-0.7-0.2l-1.3-0.9C2280.7,331.7,2279.9,330.5,2279.5,329.2"/>
			<path class="st3" d="M2286.6,333.1l-1.3-4c-0.1-0.5,0.2-1,0.7-1.1c0.2-0.1,0.5,0,0.7,0.1l1.4,0.8c1.1,0.7,2,1.7,2.4,3l1.3,4
				c0.1,0.5-0.2,1-0.7,1.1c-0.2,0-0.5,0-0.7-0.1l-1.4-0.8C2287.9,335.5,2287.1,334.4,2286.6,333.1"/>
			<path class="st3" d="M2294,336.5l-1.6-3.9c-0.1-0.5,0.1-1,0.6-1.2c0.2-0.1,0.5,0,0.7,0.1l1.4,0.7c1.2,0.6,2.1,1.6,2.7,2.9
				l1.6,3.9c0.2,0.5-0.1,1-0.6,1.2c-0.2,0.1-0.5,0.1-0.7-0.1l-1.4-0.7C2295.5,338.8,2294.5,337.8,2294,336.5"/>
			<path class="st3" d="M2301.5,339.4l-1.9-3.8c-0.2-0.5,0.1-1,0.5-1.2c0.2-0.1,0.5-0.1,0.7,0l1.5,0.6c1.2,0.5,2.2,1.5,2.8,2.7
				l1.9,3.8c0.2,0.5,0,1-0.5,1.2c-0.2,0.1-0.5,0.1-0.7,0l-1.4-0.6C2303.2,341.6,2302.2,340.6,2301.5,339.4"/>
			<path class="st3" d="M2309.3,341.8l-2.1-3.6c-0.2-0.5-0.1-1,0.4-1.2c0.2-0.1,0.5-0.1,0.7,0l1.5,0.5c1.3,0.4,2.3,1.3,3,2.5
				l2.1,3.6c0.2,0.5,0,1-0.4,1.2c-0.2,0.1-0.5,0.1-0.7,0l-1.5-0.5C2311,343.8,2310,343,2309.3,341.8"/>
			<path class="st3" d="M2317.2,343.6l-2.4-3.5c-0.3-0.4-0.1-1,0.3-1.3c0.2-0.1,0.5-0.2,0.7-0.1l1.5,0.4c1.3,0.3,2.4,1.1,3.2,2.3
				l2.4,3.5c0.3,0.4,0.1,1-0.3,1.3c-0.2,0.1-0.5,0.2-0.7,0.1l-1.5-0.4C2319.1,345.5,2317.9,344.7,2317.2,343.6"/>
			<path class="st3" d="M2325.2,344.9l-2.6-3.3c-0.3-0.4-0.2-1,0.2-1.3c0.2-0.2,0.5-0.2,0.8-0.1l1.6,0.3c1.3,0.2,2.5,1,3.3,2
				l2.6,3.3c0.3,0.4,0.2,1-0.3,1.3c-0.2,0.1-0.5,0.2-0.7,0.1l-1.6-0.3C2327.2,346.6,2326,345.9,2325.2,344.9"/>
			<path class="st3" d="M2333.2,345.6l-2.8-3.1c-0.3-0.4-0.2-1,0.2-1.3c0.2-0.1,0.4-0.2,0.7-0.2l1.6,0.2c1.3,0.2,2.6,0.8,3.5,1.8
				l2.8,3.1c0.3,0.4,0.2,1-0.2,1.3c-0.2,0.2-0.4,0.2-0.7,0.2l-1.6-0.2C2335.4,347.2,2334.1,346.6,2333.2,345.6"/>
			<path class="st3" d="M2341.3,345.7l-3-2.9c-0.3-0.4-0.3-1,0.1-1.3c0.2-0.2,0.4-0.3,0.7-0.2l1.6,0.1c1.3,0.1,2.6,0.6,3.6,1.5
				l3,2.9c0.3,0.4,0.3,1-0.1,1.3c-0.2,0.2-0.4,0.2-0.7,0.2l-1.6-0.1C2343.6,347.2,2342.3,346.6,2341.3,345.7"/>
			<path class="st3" d="M2349.4,345.3l-3.2-2.7c-0.4-0.4-0.4-0.9,0-1.3c0.2-0.2,0.4-0.3,0.7-0.3h1.6c1.3,0,2.7,0.4,3.7,1.3l3.2,2.7
				c0.4,0.4,0.4,0.9,0,1.3c-0.2,0.2-0.4,0.3-0.7,0.3h-1.6C2351.7,346.6,2350.4,346.1,2349.4,345.3"/>
			<path class="st3" d="M2357.4,344.3l-3.4-2.5c-0.4-0.3-0.4-0.9-0.1-1.3c0.2-0.2,0.4-0.3,0.6-0.3l1.6-0.1c1.3-0.1,2.7,0.2,3.8,1
				l3.4,2.5c0.4,0.3,0.4,0.9,0.1,1.3c-0.2,0.2-0.4,0.3-0.6,0.3l-1.6,0.1C2359.8,345.4,2358.5,345,2357.4,344.3"/>
			<path class="st3" d="M2365.4,342.7l-3.6-2.2c-0.4-0.3-0.5-0.9-0.2-1.3c0.1-0.2,0.4-0.3,0.6-0.4l1.6-0.2c1.3-0.2,2.7,0.1,3.8,0.8
				l3.6,2.2c0.4,0.3,0.5,0.9,0.2,1.3c-0.1,0.2-0.4,0.3-0.6,0.4l-1.6,0.2C2367.9,343.7,2366.5,343.4,2365.4,342.7"/>
			<path class="st3" d="M2373.2,340.6l-3.7-2c-0.4-0.3-0.6-0.9-0.3-1.3c0.1-0.2,0.3-0.4,0.6-0.4l1.6-0.4c1.3-0.3,2.7-0.1,3.9,0.5
				l3.7,2c0.4,0.3,0.6,0.8,0.3,1.3c-0.1,0.2-0.3,0.4-0.6,0.4l-1.6,0.4C2375.8,341.4,2374.4,341.2,2373.2,340.6"/>
			<path class="st3" d="M2380.9,338l-3.9-1.7c-0.5-0.2-0.6-0.8-0.4-1.3c0.1-0.2,0.3-0.4,0.5-0.5l1.5-0.5c1.3-0.4,2.7-0.3,3.9,0.2
				l3.8,1.7c0.5,0.3,0.6,0.8,0.4,1.3c-0.1,0.2-0.3,0.4-0.5,0.4l-1.5,0.5C2383.4,338.6,2382,338.5,2380.9,338"/>
			<path class="st3" d="M2388.3,334.8l-4-1.5c-0.5-0.2-0.7-0.7-0.5-1.2c0.1-0.2,0.3-0.4,0.5-0.5l1.5-0.6c1.3-0.5,2.6-0.5,3.9,0
				l4,1.4c0.5,0.2,0.7,0.8,0.5,1.2c-0.1,0.2-0.3,0.4-0.5,0.5l-1.5,0.6C2390.9,335.3,2389.5,335.3,2388.3,334.8"/>
			<path class="st3" d="M2395.5,331.1l-4.1-1.1c-0.5-0.2-0.7-0.7-0.5-1.2c0.1-0.2,0.3-0.4,0.5-0.5l1.5-0.7c1.2-0.6,2.6-0.7,3.9-0.3
				l4.1,1.2c0.5,0.2,0.7,0.7,0.5,1.2c-0.1,0.2-0.3,0.4-0.5,0.5l-1.5,0.7C2398.2,331.4,2396.8,331.5,2395.5,331.1"/>
			<path class="st3" d="M2402.4,326.9l-4.1-0.9c-0.5-0.2-0.8-0.7-0.6-1.2c0.1-0.2,0.2-0.4,0.4-0.5l1.4-0.8c1.2-0.7,2.6-0.9,3.9-0.6
				l4.1,0.9c0.5,0.1,0.8,0.7,0.6,1.2c-0.1,0.2-0.2,0.4-0.4,0.6l-1.4,0.8C2405.1,327,2403.8,327.2,2402.4,326.9"/>
			<path class="st3" d="M2409.1,322.3l-4.2-0.6c-0.5-0.1-0.8-0.6-0.7-1.1c0.1-0.2,0.2-0.5,0.4-0.6l1.3-0.9c1.1-0.7,2.5-1,3.8-0.9
				l4.2,0.6c0.5,0.1,0.8,0.6,0.7,1.1c-0.1,0.2-0.2,0.5-0.4,0.6l-1.3,0.9C2411.8,322.2,2410.4,322.5,2409.1,322.3"/>
			<path class="st3" d="M2415.4,317.2l-4.2-0.3c-0.5-0.1-0.9-0.5-0.8-1.1c0-0.2,0.2-0.5,0.4-0.6l1.3-1c1.1-0.8,2.4-1.2,3.7-1.1
				l4.2,0.3c0.5,0.1,0.9,0.5,0.8,1.1c0,0.2-0.2,0.5-0.4,0.6l-1.3,1C2418.1,316.9,2416.7,317.3,2415.4,317.2"/>
			<polygon class="st3" points="2328.3,138.5 2335,133.7 2332.4,125.8 2339.1,130.7 2345.9,125.7 2343.3,133.6 2350,138.5 
				2341.7,138.4 2339.2,146.4 2336.7,138.5 			"/>
			<polygon class="st3" points="2294.2,149.6 2298.6,142.6 2293.2,136.3 2301.2,138.2 2305.5,131.1 2306.1,139.4 2314.3,141.3 
				2306.6,144.4 2307.3,152.7 2301.9,146.4 			"/>
			<polygon class="st3" points="2267,172.9 2268.3,164.8 2260.9,161 2269,159.7 2270.3,151.5 2274.1,158.9 2282.3,157.6 
				2276.4,163.4 2280.2,170.8 2272.9,167 			"/>
			<polygon class="st3" points="2250.7,204.9 2248.8,196.8 2240.5,196.2 2247.6,191.9 2245.6,183.8 2251.9,189.2 2259,184.8 
				2255.8,192.5 2262.1,197.9 2253.9,197.2 			"/>
			<polygon class="st3" points="2247.9,240.6 2243.1,233.9 2235.2,236.5 2240,229.8 2235.1,223.1 2243,225.7 2247.9,218.9 
				2247.8,227.2 2255.8,229.8 2247.9,232.3 			"/>
			<polygon class="st3" points="2259,274.7 2252,270.4 2245.6,275.8 2247.6,267.8 2240.5,263.4 2248.7,262.8 2250.7,254.7 
				2253.8,262.4 2262.1,261.7 2255.8,267 			"/>
			<polygon class="st3" points="2282.3,302 2274.1,300.7 2270.4,308.1 2269.1,299.9 2260.9,298.6 2268.3,294.9 2266.9,286.7 
				2272.8,292.6 2280.2,288.7 2276.4,296.1 			"/>
			<polygon class="st3" points="2314.3,318.3 2306.2,320.1 2305.6,328.5 2301.3,321.4 2293.2,323.4 2298.6,317.1 2294.2,310 
				2301.8,313.2 2307.2,306.8 2306.6,315.1 			"/>
			<polygon class="st3" points="2350,321 2343.3,325.9 2345.9,333.8 2339.2,328.9 2332.5,333.8 2335.1,326 2328.3,321.1 
				2336.6,321.1 2339.2,313.2 2341.7,321.1 			"/>
			<polygon class="st3" points="2384.1,309.9 2379.8,317 2385.2,323.3 2377.2,321.3 2372.8,328.5 2372.2,320.2 2364.1,318.3 
				2371.8,315.2 2371.1,306.8 2376.4,313.2 			"/>
			<polygon class="st3" points="2411.4,286.6 2410,294.8 2417.5,298.6 2409.3,299.8 2408,308.1 2404.3,300.7 2396.1,302 
				2401.9,296.2 2398.1,288.8 2405.5,292.6 			"/>
			<polygon class="st3" points="2427.6,254.7 2429.5,262.7 2437.9,263.4 2430.8,267.7 2432.7,275.8 2426.5,270.4 2419.4,274.7 
				2422.6,267.1 2416.2,261.7 2424.5,262.4 			"/>
			<polygon class="st3" points="2430.4,218.9 2435.3,225.7 2443.2,223.1 2438.3,229.7 2443.2,236.5 2435.4,233.9 2430.5,240.6 
				2430.5,232.4 2422.6,229.8 2430.5,227.3 			"/>
			<polygon class="st3" points="2419.3,184.8 2426.4,189.2 2432.7,183.8 2430.7,191.8 2437.9,196.1 2429.6,196.8 2427.7,204.9 
				2424.5,197.2 2416.2,197.9 2422.6,192.5 			"/>
			<polygon class="st3" points="2396,157.6 2404.2,158.9 2408,151.5 2409.2,159.7 2417.5,160.9 2410.1,164.7 2411.4,172.9 
				2405.6,167 2398.2,170.8 2401.9,163.5 			"/>
			<polygon class="st3" points="2364.1,141.3 2372.1,139.4 2372.8,131.1 2377.1,138.2 2385.2,136.2 2379.8,142.5 2384.1,149.6 
				2376.5,146.4 2371.1,152.7 2371.8,144.5 			"/>
			<path class="st3" d="M2339.2,153.4c-42.2,0-76.4,34.2-76.4,76.4s34.2,76.4,76.4,76.4s76.4-34.2,76.4-76.4
				C2415.5,187.6,2381.4,153.4,2339.2,153.4 M2339.2,308.5c-43.5,0-78.7-35.2-78.7-78.7s35.2-78.7,78.7-78.7
				c43.5,0,78.7,35.2,78.7,78.7c0,0,0,0,0,0C2417.8,273.2,2382.6,308.4,2339.2,308.5"/>
			<path class="st3" d="M2332.2,274.4c-0.1,0.1-0.2,0.3-0.2,0.5c-0.2,1.8,0.7,3.4,2.7,4.9c0.6,0.4,2.4,1.5,5.3,3.3
				c1.9,1.2,1.9,3-0.1,5.5c0.4,0.5,0.9,0.9,1.4,1.3c1.6-1.2,2.8-2.7,3.6-4.6c1.2-2.9-0.4-5.1-4.8-6.7c-1.8-0.6-2.9-1.3-3.1-2
				c-0.1-0.4,0-0.8,0.3-1C2335.4,275.4,2333.8,275,2332.2,274.4"/>
			<path class="st3" d="M2340.3,276.1l-2.2-0.4c0,1,0.3,1.7,1.2,1.9C2340.3,277.5,2340.2,277,2340.3,276.1"/>
			<path class="st3" d="M2337.1,220.3l0.4,26.1l3.3,1.1l0.5-27.2c3-1.2,4.5-4.5,3.4-7.6c-0.7-2-2.5-3.4-4.5-3.7
				c-0.3-0.1-0.6-0.1-0.9-0.1l0,0h-0.2c-0.3,0-0.6,0-0.8,0.1c-0.2,0-0.4,0.1-0.6,0.2l-0.4,0.1c-0.3,0.1-0.5,0.2-0.8,0.3l-0.1,0.1
				c-2.8,1.6-3.8,5.1-2.2,7.9C2334.8,218.9,2335.8,219.8,2337.1,220.3"/>
			<polygon class="st3" points="2337.7,258.9 2340.5,259.7 2340.7,255.2 2337.7,254.4 			"/>
			<path class="st3" d="M2344.7,250.1l-9-2.6c-4.4-1.2-7.7-2.9-9.9-5c-1.8-2-2.2-3.7-1.3-5.2c0.9-1.4,2.4-1.7,4.4-1.2
				c4.7,1.3,7.1,1.4,7,0.3c-0.3-1.6-1-3-2.1-4.1c-1.6-1.7-3.8-2.7-6.1-2.8c-2.6,0.1-5,1.4-7.1,4c-2.4,2.9-2.7,6.1-1,9.8
				c2.3,3.6,6.2,6.3,11.7,8.1l12.1,3.1c2.8,0.7,4.1,1.4,4.1,2.1c0.1,0.6-1.9,1.6-5.9,3c0.9,0.3,1.8,0.6,2.5,0.9
				c0.7,0.3,1.5,0.6,2.2,1c0.7,0.3,1.2,0.6,1.6,0.8c3-1.4,4.8-3.1,5.2-5.2C2353.7,254.4,2350.9,252,2344.7,250.1"/>
			<path class="st3" d="M2358.2,233.6c-2.1-2.6-4.5-3.9-7.1-4c-2.3,0.1-4.5,1-6.1,2.8c-1.1,1.1-1.9,2.6-2.1,4.1
				c-0.1,1.2,2.3,1.1,7-0.3c2.1-0.6,3.5-0.2,4.4,1.2c0.9,1.4,0.5,3.2-1.3,5.1c-2.2,2-5.5,3.7-9.9,5l-1.1,0.4
				c2.8,0.6,5.5,1.5,8.1,2.6h0.1c3.7-1.4,6.8-3.9,9.1-7.1C2360.9,239.9,2360.6,236.6,2358.2,233.6"/>
			<path class="st3" d="M2347.8,263.9c-1.8-1.2-5.1-2.6-9.8-4c-4.7-1.4-6.5-2.2-6.5-3c-0.1-1,1.1-1.4,4-2.1l1.4-0.4
				c-2.6-0.5-5.2-1.2-7.7-2.1c-2.7,1.5-3.8,3.2-3.4,5.1c0.5,2.1,2.3,3.9,5.5,5.3c3.6,1.4,7,2.6,10,3.4c3.1,0.9,4.2,1.6,4.2,2.5
				c0,0.6-1.4,1.4-3.7,2c2.7,0.3,4.6,1.2,5.6,2.7c2.1-1,3.2-2.4,3.3-4.2C2350.5,266.9,2349.4,265,2347.8,263.9"/>
			<path class="st3" d="M2338.2,291.8c-0.2,1.8,0.2,8.9,0.9,10.3c0.9-2.2,0.7-6.8,0.6-9.3L2338.2,291.8z"/>
			<path class="st3" d="M2338.1,283.3l-0.5-0.4c-1.1-0.6-2.1-1.3-3.1-2.1c-1.4,1.1-1.7,3-0.9,4.6c1.3,3.3,5.5,6.7,12.7,10.1
				C2338.5,289.4,2335.7,285.3,2338.1,283.3"/>
			<path class="st3" d="M2339.1,287.4c1.1-1.4,1.5-2.7-0.4-3.8C2338.5,284.9,2337.6,286,2339.1,287.4"/>
			<polygon class="st3" points="2338,269.7 2340.4,270.2 2340.5,267 2337.9,266.2 			"/>
			<path class="st3" d="M2340.1,271.1c-4.4-0.9-6.8-1.6-6.8-2.5c0-0.8,0.5-0.9,1.8-1.5c1.3-0.6,2.1-1,2.3-1.1l-6.3-2.4l-0.2,0.1
				c0,0-0.1,0-0.1,0l0,0c-1.7,1.1-2.8,3-2.8,5c0.1,2.1,1.6,3.7,4.5,4.7c1.2,0.4,2.4,0.7,3.6,0.9l4.2,0.7c1.2,0.3,1.7,0.8,1.5,1.5
				c-0.1,0.4-0.5,0.7-1.2,1.1l1,0.3c0.3,0.1,0.6,0.2,0.9,0.4c0.3,0.1,0.5,0.3,0.8,0.4c0.2,0.1,0.4,0.2,0.6,0.4
				c0.2,0.1,0.4,0.3,0.5,0.5c1.9-1.4,2.7-3,2.2-4.8c-0.1-1.9-2.3-3.2-6.6-3.9"/>
			<path class="st3" d="M2324.9,188.7c0-5,2.7-9.7,7-12.2c-4.8,4-5.5,11.1-1.5,15.9c4,4.8,11.1,5.5,15.9,1.5
				c4.8-4,5.5-11.1,1.5-15.9c-0.4-0.5-0.9-1-1.5-1.5c6.8,4,9,12.7,5,19.5s-12.7,9-19.5,5C2327.6,198.4,2324.9,193.8,2324.9,188.7"/>
			<polygon class="st3" points="2332.5,172 2336.6,168.9 2335,164.1 2339.1,167 2343.3,164 2341.7,168.9 2345.9,171.9 2340.8,171.9 
				2339.2,176.8 2337.6,171.9 			"/>
			<path class="st3" d="M2327.5,216.6c2.9-20.8-34.8-9.1-56.1-13.2c0.7,15.5,37.7,4.1,46.8,7.9c-8.8,1-28,3.8-41.3,4.5
				c0.1,13.9,35.2-2.4,42.6-0.2c-9.2,2.9-16.9,6.2-33.1,9.8c5.1,12.8,27.3-5.9,33.6-5.3c-7.9,4.5-12,7.8-23.3,12.9
				c7.1,6.4,19-5.4,22.9-7.7c1.1-0.7,2.5-2,3.9-1l0,0c3.2,2.2,9.2,3.9,10.9,0.7C2331.9,224.7,2326.2,221.9,2327.5,216.6"/>
			<path class="st3" d="M2350.9,216.6c-2.9-20.8,34.8-9.1,56.1-13.2c-0.7,15.5-37.7,4.1-46.8,7.9c8.8,1,28,3.8,41.3,4.5
				c-0.1,13.9-35.2-2.4-42.6-0.2c9.2,2.9,16.9,6.2,33.1,9.8c-5.1,12.8-27.4-5.9-33.6-5.3c7.9,4.5,12,7.8,23.3,12.9
				c-7.1,6.4-19-5.4-22.9-7.7c-1.1-0.7-2.5-2-3.9-1l0,0c-3.2,2.2-9.2,3.9-10.9,0.7C2346.5,224.7,2352.2,221.9,2350.9,216.6"/>
			<polygon class="st3" points="2494,174.2 2484.4,174.2 2484.4,167.4 2512,167.4 2512,174.2 2502.2,174.2 2502.2,203.3 2494,203.3 
							"/>
			<path class="st3" d="M2511.3,199c-0.2-2.6,1.8-4.8,4.4-5c0.1,0,0.3,0,0.4,0c2.7-0.1,5,2.1,5.1,4.8c0.1,2.7-2.1,5-4.8,5.1
				C2513.6,203.9,2511.4,201.8,2511.3,199C2511.3,199.1,2511.3,199,2511.3,199"/>
			<path class="st3" d="M2554,202.3c-2.9,1.1-6.1,1.7-9.2,1.6c-12.4,0-18.8-7.7-18.8-18c0-12.3,8.8-19.1,19.6-19.1
				c3-0.1,6,0.4,8.9,1.6l-1.7,6.5c-2.2-0.9-4.5-1.4-6.8-1.3c-6.5,0-11.5,3.9-11.5,11.9c0,7.2,4.3,11.7,11.5,11.7
				c2.3,0,4.6-0.4,6.8-1.1L2554,202.3z"/>
			<path class="st3" d="M2558.2,199c-0.2-2.6,1.8-4.8,4.4-5c0.1,0,0.3,0,0.4,0c2.7,0,4.9,2.2,4.9,5c0,2.7-2.2,4.9-5,4.9
				c-2.6,0-4.7-2-4.8-4.6C2558.2,199.2,2558.2,199.1,2558.2,199"/>
			<path class="st3" d="M2584.6,195c2.8,1.4,5.9,2.2,9,2.2c3.7,0,5.7-1.5,5.7-3.9c0-2.3-1.7-3.5-6-5.1c-6-2.1-9.9-5.4-9.9-10.6
				c0-6.1,5.1-10.8,13.6-10.8c3.2-0.1,6.3,0.6,9.2,1.8l-1.8,6.6c-2.3-1.1-4.9-1.7-7.5-1.7c-3.5,0-5.2,1.6-5.2,3.5
				c0,2.3,2,3.3,6.7,5.1c6.3,2.3,9.3,5.7,9.3,10.7c0,6-4.6,11.1-14.5,11.1c-3.5,0-7-0.7-10.2-2.2L2584.6,195z"/>
			<path class="st3" d="M2633.2,188l-2.2-7.6c-0.6-2.1-1.3-4.8-1.8-6.9h-0.1c-0.5,2.1-1.1,4.8-1.6,6.9l-2.1,7.6H2633.2z
				 M2624.1,194.1l-2.6,9.2h-8.4l11-35.9h10.7l11.1,35.9h-8.8l-2.8-9.2L2624.1,194.1z"/>
			<path class="st3" d="M2665.9,158.5c0.1,1.2,0.9,2.5,3.1,2.5s3.1-1.2,3.4-2.5h4.2c-0.1,3.9-2.4,6.7-7.5,6.7
				c-5.3,0-7.4-2.8-7.5-6.7H2665.9z M2682.4,201.7c-3.9,1.3-7.9,1.9-12,2c-6.6,0-11.3-1.7-14.6-4.9s-5.1-7.8-5.1-13.1
				c0-11.9,8.7-18.7,20.5-18.7c3.4-0.1,6.8,0.5,10,1.8l-1.7,6.5c-2.7-1.1-5.5-1.6-8.4-1.5c-6.8,0-11.9,3.8-11.9,11.6
				c0,7.4,4.6,11.8,11.3,11.8c1.4,0.1,2.7-0.1,4-0.5v-7.5h-5.5v-6.4h13.4V201.7z"/>
			<polygon class="st3" points="2692.3,167.4 2700.5,167.4 2700.5,196.5 2714.8,196.5 2714.8,203.3 2692.3,203.3 			"/>
			<rect x="2722.4" y="167.4" class="st3" width="8.2" height="36"/>
			<path class="st3" d="M2741,167.4h8v15.9h0.2c0.8-1.4,1.7-2.7,2.5-3.9l8.2-11.9h10l-11.9,15.3l12.5,20.6h-9.5l-8.8-15.5l-3.1,3.8
				v11.7h-8L2741,167.4z"/>
			<path class="st3" d="M2797.7,197.2c1,0.1,2.1,0.1,3.1,0.1c3.7,0,6.9-1.4,6.9-5.2s-3.3-5.1-7.3-5.1h-2.8V197.2z M2797.7,181.3h2.7
				c4.3,0,6.6-1.8,6.6-4.4s-2.1-4.2-5.8-4.2c-1.2,0-2.3,0.1-3.5,0.2L2797.7,181.3z M2789.6,167.5c3.5-0.5,7-0.8,10.5-0.8
				c5,0,8,0.5,10.6,2c2.7,1.3,4.3,4,4.3,7c0,3.2-1.9,6.2-5.9,7.7v0.1c4.1,1.1,7.2,4.2,7.2,8.9c0,3-1.4,5.8-3.7,7.6
				c-2.6,2.1-7,3.3-14.1,3.3c-2.9,0-5.9-0.2-8.8-0.5L2789.6,167.5z"/>
			<path class="st3" d="M2841.5,187.7l-2.2-7.6c-0.6-2.1-1.3-4.8-1.8-6.9h-0.1c-0.5,2.1-1.1,4.9-1.7,6.9l-2.1,7.6L2841.5,187.7z
				 M2832.4,193.7l-2.6,9.2h-8.4l11-35.9h10.7l11.1,35.9h-8.8l-2.8-9.2H2832.4z"/>
			<path class="st3" d="M2861.5,167h8.1v15.9h0.2c0.8-1.4,1.7-2.7,2.4-4l8.2-11.9h10l-11.9,15.3l12.5,20.6h-9.5l-8.8-15.5l-3.1,3.8
				V203h-8.1V167z"/>
			<path class="st3" d="M2916.2,187.7l-2.2-7.6c-0.6-2.1-1.3-4.8-1.8-6.9h-0.1c-0.5,2.1-1.1,4.9-1.7,6.9l-2.1,7.6L2916.2,187.7z
				 M2907.1,193.7l-2.6,9.2h-8.4l11-35.9h10.7l11.1,35.9h-8.8l-2.8-9.2H2907.1z"/>
			<path class="st3" d="M2936.2,203V167h9.5l7.5,13.2c2.2,4,4.2,8.1,5.9,12.3h0.2c-0.5-5-0.7-10-0.7-15V167h7.5V203h-8.5l-7.7-13.9
				c-2.3-4.1-4.4-8.4-6.2-12.7l-0.2,0.1c0.2,4.8,0.3,9.8,0.3,15.7V203H2936.2z"/>
			<polygon class="st3" points="2976.1,167 2984.3,167 2984.3,196.1 2998.6,196.1 2998.6,203 2976.1,203 			"/>
			<rect x="3005.8" y="167" class="st3" width="8.2" height="35.9"/>
			<path class="st3" d="M3037.5,158.1c0.2,1.2,1,2.4,3.2,2.4c2.1,0,3.1-1.2,3.4-2.4h4.2c-0.1,3.9-2.4,6.7-7.5,6.7
				c-5.3,0-7.4-2.8-7.5-6.7H3037.5z M3054,201.3c-3.9,1.3-7.9,1.9-12,2c-6.6,0-11.3-1.7-14.6-4.9c-3.3-3.2-5.1-7.8-5.1-13.1
				c0-12,8.7-18.8,20.5-18.8c3.4-0.1,6.8,0.5,10,1.8l-1.7,6.5c-2.6-1.1-5.5-1.6-8.4-1.6c-6.8,0-11.9,3.8-11.9,11.6
				c0,7.4,4.6,11.8,11.3,11.8c1.4,0.1,2.7-0.1,4-0.5v-7.5h-5.5v-6.4h13.4L3054,201.3z"/>
			<rect x="3063.6" y="167" class="st3" width="8.2" height="35.9"/>
			<path class="st3" d="M2485.5,250.3c1.9,1.2,4.1,1.8,6.4,1.8c3.6,0,5.8-1.9,5.8-4.7c0-2.6-1.5-4.1-5.2-5.5
				c-4.5-1.6-7.3-3.9-7.3-7.8c0-4.3,3.6-7.5,8.9-7.5c2.1-0.1,4.2,0.4,6.1,1.4l-1,2.9c-1.6-0.9-3.4-1.3-5.2-1.3
				c-3.8,0-5.2,2.2-5.2,4.1c0,2.6,1.7,3.8,5.5,5.3c4.7,1.8,7,4,7,8.1c0,4.2-3.1,7.9-9.6,7.9c-2.4,0-4.9-0.6-7-1.8L2485.5,250.3z"/>
			<path class="st3" d="M2510.7,245.9l-2.9,8.7h-3.7l9.4-27.6h4.3l9.4,27.6h-3.8l-3-8.7L2510.7,245.9z M2519.7,243.2l-2.7-7.9
				c-0.6-1.8-1-3.4-1.4-5h-0.1c-0.4,1.6-0.8,3.3-1.4,5l-2.7,8L2519.7,243.2z"/>
			<path class="st3" d="M2551.6,253.4c-2.7,1-5.6,1.5-8.5,1.5c-4.2,0-7.6-1.1-10.3-3.6c-2.6-2.8-4-6.5-3.9-10.2
				c0-8.2,5.7-14.2,14.9-14.2c2.4-0.1,4.7,0.4,6.9,1.3l-0.9,2.9c-1.9-0.8-4-1.2-6.1-1.2c-6.7,0-11.1,4.2-11.1,11.1
				s4.2,11.1,10.6,11.1c1.6,0.1,3.2-0.2,4.7-0.7V243h-5.6v-2.9h9.1V253.4z M2539.1,220.8c0.2,0.9,0.9,2,2.9,2s2.7-0.9,2.9-2h2.1
				c0,2.4-1.6,4.3-5.1,4.3s-4.9-1.9-5-4.3H2539.1z"/>
			<path class="st3" d="M2557.1,227h3.6v24.6h11.8v3h-15.3V227z"/>
			<path class="st3" d="M2579.9,227v27.6h-3.5V227H2579.9z"/>
			<path class="st3" d="M2586.2,227h3.6v13.3h0.1c0.7-1.1,1.5-2.1,2.2-2.9l8.4-10.3h4.4l-10,11.7l10.8,15.9h-4.2l-9.1-13.5l-2.6,3
				v10.6h-3.6L2586.2,227z"/>
			<path class="st3" d="M2617,227.4c2.1-0.4,4.3-0.6,6.5-0.6c3.6,0,5.9,0.6,7.6,2c1.5,1.1,2.4,3,2.3,4.9c-0.1,2.8-2,5.2-4.7,6.1v0.1
				c3.3,0.7,5.7,3.6,5.7,6.9c0,2.1-0.8,4.1-2.3,5.5c-1.9,1.8-5,2.6-9.5,2.6c-1.8,0-3.7-0.1-5.5-0.3L2617,227.4z M2620.6,238.7h3.2
				c3.8,0,6-2,6-4.6c0-3.2-2.4-4.5-6.1-4.5c-1.1,0-2.1,0.1-3.1,0.2L2620.6,238.7z M2620.6,251.9c1,0.1,2,0.2,3,0.2
				c3.7,0,7.1-1.4,7.1-5.4c0-3.8-3.2-5.3-7.1-5.3h-2.9L2620.6,251.9z"/>
			<path class="st3" d="M2639,223c0-1.1,0.9-2,2-2c1.1,0,2,0.9,2,2s-0.9,2-2,2S2639,224.1,2639,223z M2642.7,227v27.6h-3.6V227
				H2642.7z"/>
			<path class="st3" d="M2649,227h3.6v24.6h11.8v3H2649V227z"/>
			<path class="st3" d="M2687.7,253.4c-2.7,1-5.6,1.5-8.5,1.5c-4.2,0-7.6-1.1-10.3-3.6c-2.6-2.8-4-6.5-3.9-10.2
				c0.1-8.2,5.7-14.2,14.9-14.2c2.4-0.1,4.7,0.4,6.9,1.3l-0.9,2.9c-1.9-0.8-4-1.2-6.1-1.2c-6.7,0-11.1,4.2-11.1,11.1
				s4.2,11.1,10.6,11.1c1.6,0.1,3.2-0.2,4.7-0.7V243h-5.6v-2.9h9.1V253.4z"/>
			<path class="st3" d="M2692.9,223c0-1.1,0.9-2,2-2c1.1,0,2,0.9,2,2s-0.9,2-2,2C2693.8,225,2692.9,224.1,2692.9,223z M2696.7,227
				v27.6h-3.6V227H2696.7z"/>
			<path class="st3" d="M2711.1,250.3c1.9,1.2,4.1,1.8,6.4,1.8c3.6,0,5.8-1.9,5.8-4.7c0-2.6-1.5-4.1-5.2-5.5
				c-4.5-1.6-7.3-3.9-7.3-7.8c0-4.3,3.6-7.5,8.9-7.5c2.1-0.1,4.2,0.4,6.1,1.4l-1,2.9c-1.6-0.9-3.4-1.3-5.2-1.3
				c-3.8,0-5.2,2.2-5.2,4.1c0,2.6,1.7,3.8,5.5,5.3c4.7,1.8,7,4,7,8.1c0,4.2-3.2,7.9-9.7,7.9c-2.4,0-4.9-0.6-7-1.8L2711.1,250.3z"/>
			<path class="st3" d="M2731.5,223c0-1.1,0.9-2,2-2c1.1,0,2,0.9,2,2s-0.9,2-2,2S2731.5,224.1,2731.5,223z M2735.3,227v27.6h-3.6
				V227H2735.3z"/>
			<path class="st3" d="M2741,250.3c1.9,1.2,4.1,1.8,6.4,1.8c3.6,0,5.8-1.9,5.8-4.7c0-2.6-1.5-4.1-5.2-5.5c-4.5-1.6-7.3-3.9-7.3-7.8
				c0-4.3,3.6-7.5,8.9-7.5c2.1-0.1,4.2,0.4,6.1,1.4l-1,2.9c-1.6-0.9-3.4-1.3-5.2-1.3c-3.8,0-5.2,2.2-5.2,4.1c0,2.6,1.7,3.8,5.5,5.3
				c4.7,1.8,7,4,7,8.1c0,4.2-3.2,7.9-9.7,7.9c-2.4,0-4.9-0.6-7-1.8L2741,250.3z"/>
			<path class="st3" d="M2766.9,230.1h-8.4v-3h20.4v3h-8.4v24.5h-3.6V230.1z"/>
			<path class="st3" d="M2796.3,241.7h-10.7v9.9h11.9v3H2782V227h14.9v3h-11.3v8.7h10.7V241.7z"/>
			<path class="st3" d="M2825.4,242.5c-0.2-3.9-0.4-8.5-0.4-11.9h-0.1c-1,3.2-2.1,6.7-3.5,10.5l-4.9,13.4h-2.7l-4.4-13.1
				c-1.3-3.9-2.4-7.4-3.2-10.7h-0.1c-0.1,3.4-0.3,8.1-0.5,12.2l-0.7,11.8h-3.5l1.9-27.6h4.5l4.7,13.3c1.1,3.4,2.1,6.4,2.8,9.3h0.1
				c0.7-2.8,1.7-5.8,2.9-9.3l4.9-13.3h4.5l1.7,27.6h-3.5L2825.4,242.5z"/>
			<path class="st3" d="M2835.1,227h3.6v24.6h11.8v3h-15.3V227z"/>
			<path class="st3" d="M2868.6,241.7h-10.7v9.9h12v3h-15.5V227h14.9v3h-11.4v8.7h10.7V241.7z"/>
			<path class="st3" d="M2874.5,227.4c2.3-0.4,4.5-0.6,6.8-0.6c3.8,0,6.2,0.7,8,2.2c1.4,1.4,2.2,3.3,2.2,5.2c0,3.2-2.1,6.1-5.2,7
				v0.1c2.1,0.7,3.4,2.7,4,5.6c0.9,3.8,1.5,6.5,2.1,7.6h-3.7c-0.8-2.1-1.4-4.3-1.8-6.6c-0.8-3.8-2.3-5.2-5.5-5.4h-3.3v12h-3.5V227.4
				z M2878.1,240h3.6c3.8,0,6.2-2.1,6.2-5.2c0-3.6-2.6-5.1-6.3-5.2c-1.2,0-2.4,0.1-3.5,0.3V240z"/>
			<path class="st3" d="M2896.3,223c0-1.1,0.9-2,2-2c1.1,0,2,0.9,2,2s-0.9,2-2,2C2897.2,225,2896.3,224.1,2896.3,223z M2900.1,227
				v27.6h-3.6V227H2900.1z"/>
			<path class="st3" d="M2507,302.5c-2.7,1-5.6,1.5-8.5,1.5c-4.2,0-7.6-1.1-10.3-3.6c-2.6-2.8-4-6.5-3.8-10.3
				c0-8.2,5.7-14.2,14.9-14.2c2.4-0.1,4.7,0.4,6.9,1.3l-0.9,2.9c-1.9-0.8-4-1.2-6.1-1.2c-6.7,0-11.1,4.2-11.1,11.1
				s4.2,11.1,10.6,11.1c1.6,0.1,3.2-0.2,4.7-0.7v-8.2h-5.6v-2.9h9.1V302.5z"/>
			<path class="st3" d="M2526.7,290.8H2516v9.9h11.9v3h-15.5v-27.6h14.9v3H2516v8.7h10.7V290.8z"/>
			<path class="st3" d="M2532.6,303.7v-27.6h3.9l8.8,13.9c1.8,2.9,3.5,5.9,4.9,9h0.1c-0.3-3.7-0.4-7-0.4-11.3v-11.6h3.4v27.6h-3.6
				l-8.8-14c-1.9-3-3.6-6-5.1-9.2h-0.1c0.2,3.5,0.3,6.8,0.3,11.4v11.8H2532.6z"/>
			<path class="st3" d="M2573.8,290.8h-10.7v9.9h11.9v3h-15.5v-27.6h14.9v3h-11.3v8.7h10.7V290.8z"/>
			<path class="st3" d="M2579.7,276.2h3.6v24.6h11.8v3h-15.3V276.2z"/>
			<path class="st3" d="M2630.9,291.6c-0.2-3.9-0.5-8.5-0.4-11.9h-0.1c-0.9,3.2-2.1,6.7-3.5,10.5l-4.9,13.4h-2.7l-4.5-13.1
				c-1.3-3.9-2.4-7.4-3.2-10.7h-0.1c-0.1,3.4-0.3,8-0.5,12.2l-0.7,11.8h-3.4l1.9-27.6h4.6l4.7,13.3c1.1,3.4,2.1,6.4,2.8,9.3h0.1
				c0.7-2.8,1.7-5.8,2.9-9.3l4.9-13.3h4.5l1.7,27.6h-3.5L2630.9,291.6z"/>
			<path class="st3" d="M2644.1,276.2v16.3c0,6.2,2.7,8.8,6.4,8.8c4.1,0,6.7-2.7,6.7-8.8v-16.3h3.6v16.1c0,8.5-4.5,11.9-10.4,11.9
				c-5.7,0-9.9-3.2-9.9-11.8v-16.2H2644.1z M2645,272.2c0-1.1,0.9-2,2-2c1.1,0,2.1,0.9,2.1,2s-0.9,2.1-2,2.1c-1.1,0-2.1-0.9-2.1-2
				C2645,272.2,2645,272.2,2645,272.2z M2652.6,272.2c0-1.1,0.9-2,2-2c1.1,0,2.1,0.9,2.1,2.1c0,1.1-0.9,2.1-2.1,2.1
				c-1.1,0-2-0.9-2-2C2652.6,272.2,2652.6,272.2,2652.6,272.2L2652.6,272.2z"/>
			<path class="st3" d="M2667,276.5c2.5-0.4,5-0.6,7.6-0.6c5.1,0,8.8,1.2,11.2,3.4s3.9,5.4,3.9,9.9s-1.4,8.2-4,10.7
				c-2.6,2.5-6.8,4-12.2,4c-2.2,0-4.3-0.1-6.5-0.3L2667,276.5z M2670.6,300.9c1.2,0.2,2.4,0.2,3.6,0.2c7.6,0,11.7-4.2,11.7-11.7
				c0-6.5-3.6-10.6-11.2-10.6c-1.4,0-2.8,0.1-4.2,0.4V300.9z"/>
			<path class="st3" d="M2697.8,276.2v16.3c0,6.2,2.7,8.8,6.4,8.8c4.1,0,6.7-2.7,6.7-8.8v-16.3h3.6v16.1c0,8.5-4.5,11.9-10.4,11.9
				c-5.6,0-9.9-3.2-9.9-11.8v-16.2H2697.8z M2698.7,272.2c0-1.1,0.9-2,2-2c0,0,0,0,0.1,0c1.1,0,2.1,0.9,2.1,2.1
				c0,1.1-0.9,2.1-2.1,2.1c-1.1,0-2-0.8-2.1-1.9C2698.7,272.3,2698.7,272.2,2698.7,272.2L2698.7,272.2z M2706.3,272.2
				c0-1.1,0.9-2,2-2c1.1,0,2.1,0.9,2.1,2c0,1.1-0.9,2.1-2,2.1c-1.1,0-2.1-0.9-2.1-2C2706.3,272.2,2706.3,272.2,2706.3,272.2z"/>
			<path class="st3" d="M2720.7,276.5c2.3-0.4,4.5-0.6,6.8-0.6c3.8,0,6.3,0.7,8,2.2c1.4,1.4,2.2,3.3,2.2,5.2c0,3.2-2.1,6.1-5.2,7
				v0.1c2.1,0.7,3.4,2.7,4,5.6c0.9,3.8,1.5,6.5,2.1,7.6h-3.7c-0.8-2.1-1.4-4.3-1.8-6.6c-0.8-3.8-2.3-5.2-5.5-5.4h-3.3v12h-3.6V276.5
				z M2724.3,289.1h3.6c3.8,0,6.2-2.1,6.2-5.2c0-3.6-2.6-5.1-6.3-5.1c-1.2,0-2.4,0.1-3.5,0.3V289.1z"/>
			<path class="st3" d="M2742.7,276.2h3.6v24.6h11.8v3h-15.3V276.2z"/>
			<path class="st3" d="M2764.1,276.2v16.3c0,6.2,2.7,8.8,6.4,8.8c4.1,0,6.7-2.7,6.7-8.8v-16.3h3.6v16.1c0,8.5-4.5,11.9-10.4,11.9
				c-5.6,0-9.9-3.2-9.9-11.8v-16.2H2764.1z M2765,272.2c0-1.1,0.9-2,2-2c1.1,0,2.1,0.9,2.1,2c0,1.1-0.9,2.1-2,2.1
				c-1.1,0-2.1-0.9-2.1-2C2765,272.2,2765,272.2,2765,272.2z M2772.6,272.2c0-1.1,0.9-2,2-2c1.1,0,2.1,0.9,2.1,2s-0.9,2.1-2,2.1
				c-1.1,0-2.1-0.9-2.1-2C2772.6,272.2,2772.6,272.2,2772.6,272.2z"/>
			<path class="st3" d="M2808,302.5c-2.7,1-5.6,1.5-8.5,1.5c-4.2,0-7.6-1.1-10.3-3.6c-2.6-2.8-4-6.5-3.9-10.3
				c0-8.2,5.7-14.2,14.9-14.2c2.4-0.1,4.7,0.4,6.9,1.3l-0.8,2.9c-1.9-0.8-4-1.2-6.1-1.2c-6.7,0-11.1,4.2-11.1,11.1
				s4.2,11.1,10.6,11.1c1.6,0.1,3.2-0.2,4.8-0.7v-8.2h-5.6v-2.9h9.1V302.5z M2795.5,269.9c0.2,0.9,0.9,2,3,2s2.7-0.9,2.9-2h2.1
				c-0.1,2.4-1.6,4.3-5.1,4.3s-5-1.9-5-4.3H2795.5z"/>
			<path class="st3" d="M2817.1,276.2v16.3c0,6.2,2.7,8.8,6.4,8.8c4.1,0,6.7-2.7,6.7-8.8v-16.3h3.6v16.1c0,8.5-4.5,11.9-10.4,11.9
				c-5.6,0-9.9-3.2-9.9-11.8v-16.2H2817.1z M2817.9,272.2c0-1.1,0.9-2,2-2c1.1,0,2.1,0.9,2.1,2s-0.9,2.1-2,2.1c-1.1,0-2.1-0.9-2.1-2
				C2817.9,272.2,2817.9,272.2,2817.9,272.2z M2825.5,272.2c0-1.1,0.9-2,2-2c1.1,0,2.1,0.9,2.1,2.1c0,1.1-0.9,2.1-2.1,2.1
				c-1.1,0-2-0.9-2-2C2825.5,272.2,2825.5,272.2,2825.5,272.2L2825.5,272.2z"/>
		</g>
	</g>
</g>
</svg>
