<svg xmlns="http://www.w3.org/2000/svg" viewBox="0 0 1000 145.83"><defs><style>.cls-1{fill:#fc3c3c;}.cls-2{fill:#3c3c3b;}</style></defs><title>uets-yatay-logo</title><g id="Layer_2" data-name="Layer 2"><g id="Layer_1-2" data-name="Layer 1"><path d="M98.1,2.2v82c0,56.52-81.16,56.67-81.16,0V51.46a15.64,15.64,0,0,1-5.26.85A16.14,16.14,0,0,1,7,51.6V84.21c0,69.2,101.09,69.05,101.09,0V2.2ZM7,2.2V20.13a16.49,16.49,0,0,1,4.7-.71,15.64,15.64,0,0,1,5.26.86V2.2Z"/><path d="M153.77,124.36V72.25h77.32V63H153.77V11.73h81.16V2.2H143.81v132h93.4v-9.82Z"/><path d="M250.31,2.34v9.11H298V134.18h10.25V11.45H356V2.34Z"/><path d="M421.45,61.43c-22.21-4.28-40.29-8.12-40.29-24.92,0-21.22,24.49-26.77,40-26.77C436,9.88,451.5,12.16,461,27.54l8.4-4.84C456.34,3.33,440,.2,421.17.2c-21.79,0-50.83,8.69-50.26,36.59,0,24.35,24.77,29.33,48.83,34,21.79,4.13,43.57,8.4,43.43,28.2,0,23.49-25.77,27.9-42,27.9a52.09,52.09,0,0,1-10.25-1,4.86,4.86,0,0,1,.14,1.42,16,16,0,0,1-2,7.83,69.49,69.49,0,0,0,12.1,1c22.07,0,52-7.12,52.25-36.88C473.42,70.82,446.94,66.27,421.45,61.43ZM376,103l-9,4.56a45.41,45.41,0,0,0,12,14.81,14.78,14.78,0,0,1,6-8.26A37.79,37.79,0,0,1,376,103Z"/><path class="cls-1" d="M23.49,35.8a11.63,11.63,0,0,1-6.55,10.53,11,11,0,0,1-5.26,1.28,10.33,10.33,0,0,1-4.7-1,11.77,11.77,0,0,1,0-21.5,10.33,10.33,0,0,1,4.7-1,11.09,11.09,0,0,1,5.26,1.28A11.59,11.59,0,0,1,23.49,35.8Z"/><path class="cls-1" d="M406.36,127.35a11.22,11.22,0,0,1-2.28,6.83,11.65,11.65,0,0,1-21.21-6.83,4,4,0,0,1,.28-1.85,11,11,0,0,1,5.84-8.4,12.3,12.3,0,0,1,5.55-1.43,11.5,11.5,0,0,1,11.39,9.12A7.86,7.86,0,0,1,406.36,127.35Z"/><path class="cls-2" d="M554.71,6.32V33.77c0,10.39,4.61,14.79,10.8,14.79,6.88,0,11.28-4.54,11.28-14.79V6.32h6.06v27c0,14.24-7.5,20.09-17.55,20.09-9.49,0-16.64-5.44-16.64-19.82V6.32Z"/><path class="cls-2" d="M587.53,49.18,602.6,29.57c1.44-1.78,2.82-3.37,4.33-5.16v-.13h-18V19.39h25.38l-.07,3.79L599.36,42.51c-1.37,1.85-2.75,3.5-4.26,5.23v.13h19.47v4.82h-27Z"/><path class="cls-2" d="M619.39,28.4c0-3.44-.07-6.26-.28-9h5.3l.27,5.37h.21a11.48,11.48,0,0,1,10.46-6.12,9.84,9.84,0,0,1,9.42,6.67h.14A13.84,13.84,0,0,1,648.62,21,11.39,11.39,0,0,1,656,18.64c4.41,0,10.94,2.89,10.94,14.44V52.69H661V33.84c0-6.4-2.34-10.25-7.23-10.25a7.82,7.82,0,0,0-7.15,5.5,9.87,9.87,0,0,0-.48,3V52.69h-5.92V32.74c0-5.3-2.34-9.15-7-9.15-3.78,0-6.53,3-7.5,6.05a8.47,8.47,0,0,0-.48,3V52.69h-5.91Z"/><path class="cls-2" d="M693.83,52.69l-.49-4.2h-.2a12.4,12.4,0,0,1-10.18,5c-6.75,0-10.18-4.75-10.18-9.57,0-8.05,7.15-12.45,20-12.38v-.69c0-2.75-.75-7.7-7.56-7.7a16.62,16.62,0,0,0-8.67,2.47l-1.38-4a20.58,20.58,0,0,1,10.94-3c10.18,0,12.66,6.94,12.66,13.62V44.71a47.16,47.16,0,0,0,.55,8Zm-.9-17c-6.6-.14-14.1,1-14.1,7.5,0,3.92,2.61,5.77,5.71,5.77a8.3,8.3,0,0,0,8.05-5.57,6.48,6.48,0,0,0,.34-1.93Z"/><path class="cls-2" d="M707.18,28.4c0-3.44-.07-6.26-.28-9h5.37l.34,5.51h.14a12.22,12.22,0,0,1,11-6.26c4.61,0,11.77,2.75,11.77,14.17V52.69h-6.06V33.5c0-5.37-2-9.84-7.7-9.84a8.6,8.6,0,0,0-8.12,6.19,8.83,8.83,0,0,0-.41,2.82v20h-6.05Z"/><path class="cls-2" d="M744,3.84h6V52.69h-6Z"/><path class="cls-2" d="M758.85,52.69V19.39h6v33.3Z"/><path class="cls-2" d="M779.55,34.66h.14c.83-1.16,2-2.61,3-3.78l9.77-11.49h7.29L786.85,33.08,801.5,52.69h-7.36l-11.49-16-3.1,3.44V52.69h-6V3.84h6Z"/><path class="cls-2" d="M841.89,31h-18V47.67H844v5H817.88V6.32h25v5h-19V26h18Z"/><path class="cls-2" d="M878.42,19.39c-.14,2.41-.27,5.09-.27,9.15V47.87c0,7.64-1.52,12.32-4.75,15.21s-7.91,4-12.11,4c-4,0-8.39-1-11.07-2.75l1.51-4.61a18.83,18.83,0,0,0,9.77,2.61c6.19,0,10.73-3.23,10.73-11.63V47h-.14a11.89,11.89,0,0,1-10.59,5.57c-8.26,0-14.17-7-14.17-16.24,0-11.28,7.36-17.67,15-17.67,5.78,0,8.95,3,10.39,5.77h.14l.27-5Zm-6.26,13.14a8.85,8.85,0,0,0-8.81-9.15c-5.77,0-9.9,4.89-9.9,12.59,0,6.54,3.3,12,9.84,12a8.86,8.86,0,0,0,8.39-6.19,10.63,10.63,0,0,0,.48-3.23ZM858.47,5.77c.41,2.68,2.13,4.75,4.95,4.75a4.9,4.9,0,0,0,5-4.75H872c0,5.09-3.37,8.53-8.53,8.53-6,0-8.53-4.27-8.53-8.53Z"/><path class="cls-2" d="M893.15,10a3.75,3.75,0,0,1-7.5,0,3.69,3.69,0,0,1,3.78-3.78A3.6,3.6,0,0,1,893.15,10Zm-6.74,42.66V19.39h6.05v33.3Z"/><path class="cls-2" d="M908.42,9.83v9.56h8.67V24h-8.67V42c0,4.12,1.17,6.46,4.54,6.46a13.32,13.32,0,0,0,3.51-.41l.28,4.54a14.86,14.86,0,0,1-5.37.83,8.41,8.41,0,0,1-6.54-2.55c-1.72-1.79-2.34-4.75-2.34-8.67V24h-5.16V19.39h5.16v-8Z"/><path class="cls-2" d="M929.27,10a3.75,3.75,0,0,1-7.5,0,3.69,3.69,0,0,1,3.78-3.78A3.6,3.6,0,0,1,929.27,10Zm-6.74,42.66V19.39h6.05v33.3Z"/><path class="cls-2" d="M937.25,28.4c0-3.44-.07-6.26-.27-9h5.29l.28,5.37h.21a11.47,11.47,0,0,1,10.45-6.12,9.85,9.85,0,0,1,9.43,6.67h.13A13.87,13.87,0,0,1,966.49,21a11.36,11.36,0,0,1,7.36-2.33c4.4,0,10.94,2.89,10.94,14.44V52.69h-5.92V33.84c0-6.4-2.34-10.25-7.22-10.25a7.84,7.84,0,0,0-7.16,5.5,10.18,10.18,0,0,0-.48,3V52.69H958.1V32.74c0-5.3-2.34-9.15-7-9.15-3.78,0-6.54,3-7.5,6.05a8.47,8.47,0,0,0-.48,3V52.69h-5.92Z"/><path class="cls-2" d="M1000,10a3.75,3.75,0,0,1-7.5,0,3.69,3.69,0,0,1,3.78-3.78A3.6,3.6,0,0,1,1000,10Zm-6.74,42.66V19.39h6v33.3Z"/><path class="cls-2" d="M557.53,90.93h-14.1V85.84h34.32v5.09H563.58v41.28h-6.05Z"/><path class="cls-2" d="M595.37,132.21l-.48-4.2h-.21a12.4,12.4,0,0,1-10.18,5c-6.74,0-10.18-4.75-10.18-9.57,0-8,7.15-12.45,20-12.38v-.69c0-2.75-.76-7.7-7.57-7.7a16.53,16.53,0,0,0-8.67,2.48l-1.37-4a20.72,20.72,0,0,1,10.93-3c10.19,0,12.66,7,12.66,13.62v12.45a47.16,47.16,0,0,0,.55,8Zm-.9-17c-6.6-.14-14.1,1-14.1,7.5a5.35,5.35,0,0,0,5.71,5.77,8.29,8.29,0,0,0,8-5.57,6.17,6.17,0,0,0,.34-1.92Z"/><path class="cls-2" d="M614.71,114.19h.13c.83-1.17,2-2.62,3-3.79l9.77-11.49h7.29L622,112.6l14.65,19.61h-7.36l-11.49-16-3.09,3.44v12.52h-6V83.37h6Z"/><path class="cls-2" d="M647.52,89.56a3.75,3.75,0,0,1-7.5,0,3.7,3.7,0,0,1,3.79-3.79A3.6,3.6,0,0,1,647.52,89.56Zm-6.74,42.65V98.91h6.06v33.3Z"/><path class="cls-2" d="M655.5,109.78c0-4.26-.13-7.7-.27-10.87h5.43l.28,5.71h.14a13.08,13.08,0,0,1,11.83-6.46c8.05,0,14.1,6.81,14.1,16.92,0,12-7.29,17.89-15.13,17.89-4.41,0-8.26-1.93-10.25-5.23h-.14v18.09h-6Zm6,8.88a14.25,14.25,0,0,0,.27,2.47,9.34,9.34,0,0,0,9.08,7.09c6.4,0,10.12-5.23,10.12-12.86,0-6.68-3.51-12.39-9.91-12.39a9.66,9.66,0,0,0-9.15,7.5,10.13,10.13,0,0,0-.41,2.48Z"/><path class="cls-2" d="M705.87,124.92a21.2,21.2,0,0,0,10.73,3c6.12,0,9.7-3.23,9.7-7.91,0-4.33-2.48-6.81-8.74-9.21-7.57-2.69-12.24-6.61-12.24-13.14,0-7.23,6-12.59,15-12.59a21,21,0,0,1,10.25,2.27l-1.65,4.88a18.4,18.4,0,0,0-8.8-2.2c-6.33,0-8.74,3.78-8.74,6.95,0,4.33,2.82,6.47,9.22,8.94,7.84,3,11.83,6.81,11.83,13.62,0,7.16-5.3,13.35-16.23,13.35-4.48,0-9.36-1.31-11.84-3Z"/><path class="cls-2" d="M745.77,89.56a3.75,3.75,0,0,1-7.5,0,3.7,3.7,0,0,1,3.79-3.79A3.6,3.6,0,0,1,745.77,89.56ZM739,132.21V98.91h6.05v33.3Z"/><path class="cls-2" d="M752.93,126a15.86,15.86,0,0,0,8,2.41c4.4,0,6.46-2.2,6.46-5s-1.71-4.47-6.19-6.12c-6-2.13-8.8-5.43-8.8-9.42,0-5.37,4.33-9.77,11.49-9.77a16.58,16.58,0,0,1,8.18,2.06l-1.51,4.4a13,13,0,0,0-6.81-1.92c-3.58,0-5.57,2.06-5.57,4.54,0,2.75,2,4,6.33,5.64,5.78,2.2,8.73,5.09,8.73,10,0,5.85-4.54,10-12.45,10a19.09,19.09,0,0,1-9.36-2.27Z"/><path class="cls-2" d="M786.92,89.35v9.56h8.66v4.61h-8.66v18c0,4.13,1.17,6.46,4.54,6.46a13.23,13.23,0,0,0,3.5-.41l.28,4.54a14.86,14.86,0,0,1-5.37.83,8.38,8.38,0,0,1-6.53-2.55c-1.72-1.79-2.34-4.74-2.34-8.67V103.52h-5.16V98.91H781v-8Z"/><path class="cls-2" d="M804,116.66c.14,8.19,5.36,11.56,11.42,11.56a22,22,0,0,0,9.22-1.72l1,4.33a26.83,26.83,0,0,1-11.08,2.07c-10.25,0-16.37-6.74-16.37-16.79s5.92-18,15.62-18c10.86,0,13.76,9.56,13.76,15.68a22.42,22.42,0,0,1-.21,2.82Zm17.75-4.33c.07-3.85-1.59-9.84-8.4-9.84-6.12,0-8.8,5.64-9.28,9.84Z"/><path class="cls-2" d="M833.7,107.93c0-3.44-.07-6.26-.27-9h5.29l.28,5.37h.21a11.45,11.45,0,0,1,10.45-6.12,9.85,9.85,0,0,1,9.43,6.67h.13a13.71,13.71,0,0,1,3.72-4.33,11.3,11.3,0,0,1,7.36-2.34c4.4,0,10.94,2.89,10.94,14.44v19.61h-5.92V113.36c0-6.4-2.34-10.25-7.22-10.25a7.85,7.85,0,0,0-7.16,5.51,10.06,10.06,0,0,0-.48,3v20.57h-5.91v-20c0-5.3-2.34-9.15-6.95-9.15-3.79,0-6.54,3-7.5,6.06a8.38,8.38,0,0,0-.48,3v20.09H833.7Z"/><path class="cls-2" d="M896.45,89.56a3.75,3.75,0,0,1-7.5,0,3.69,3.69,0,0,1,3.78-3.79A3.6,3.6,0,0,1,896.45,89.56Zm-6.74,42.65V98.91h6v33.3Z"/><rect class="cls-1" x="509.72" width="2.15" height="138.09"/></g></g></svg>