<?xml version="1.0" standalone="no"?>
<!DOCTYPE svg PUBLIC "-//W3C//DTD SVG 20010904//EN"
 "http://www.w3.org/TR/2001/REC-SVG-20010904/DTD/svg10.dtd">
<svg version="1.0" xmlns="http://www.w3.org/2000/svg"
 width="1741.000000pt" height="938.000000pt" viewBox="0 0 1741.000000 938.000000"
 preserveAspectRatio="xMidYMid meet">

<g transform="translate(0.000000,938.000000) scale(0.100000,-0.100000)"
fill="#000000" stroke="none">
<path d="M12400 5635 l0 -445 45 0 45 0 0 445 0 445 -45 0 -45 0 0 -445z"/>
<path d="M12980 5635 l0 -445 45 0 45 0 0 140 c0 77 3 140 8 140 4 0 65 -63
135 -140 l129 -140 64 0 c35 0 64 3 64 7 0 4 -66 74 -147 155 l-147 148 44 47
c25 27 87 92 140 146 l95 97 -66 0 -66 0 -118 -130 c-65 -71 -122 -130 -126
-130 -5 0 -9 124 -9 275 l0 275 -45 0 -45 0 0 -445z"/>
<path d="M15225 6045 c-32 -31 -31 -50 0 -81 18 -18 31 -23 48 -19 26 8 57 41
57 62 0 19 -45 63 -65 63 -9 0 -27 -11 -40 -25z"/>
<path d="M15920 6050 c-50 -50 4 -128 68 -98 38 18 44 79 10 102 -30 21 -54
20 -78 -4z"/>
<path d="M17245 6045 c-32 -31 -31 -50 0 -81 18 -18 31 -23 48 -19 26 8 57 41
57 62 0 19 -45 63 -65 63 -9 0 -27 -11 -40 -25z"/>
<path d="M14600 6034 c0 -28 41 -90 71 -108 43 -25 130 -23 174 4 32 20 75 83
75 110 0 5 -14 10 -30 10 -22 0 -33 -6 -39 -22 -16 -41 -50 -63 -98 -63 -37 0
-49 5 -69 28 -13 15 -24 35 -24 43 0 9 -11 14 -30 14 -21 0 -30 -5 -30 -16z"/>
<path d="M8260 4760 c0 -1131 2 -1280 15 -1280 13 0 15 149 15 1280 0 1131 -2
1280 -15 1280 -13 0 -15 -149 -15 -1280z"/>
<path d="M8720 5745 c0 -290 6 -350 41 -430 39 -88 129 -135 260 -135 130 0
225 55 276 158 30 62 29 44 36 500 l3 192 -47 0 -47 0 -4 -297 c-5 -309 -8
-335 -51 -397 -55 -79 -232 -89 -310 -18 -11 9 -29 35 -41 57 -20 38 -21 55
-24 348 l-3 307 -45 0 -44 0 0 -285z"/>
<path d="M13912 5613 l3 -418 223 -3 222 -2 0 45 0 45 -172 2 -173 3 -3 142
-3 142 153 3 153 3 3 42 3 42 -153 3 -153 3 -3 138 -3 137 166 0 165 0 0 45 0
45 -215 0 -215 0 2 -417z"/>
<path d="M15584 5954 l-41 -15 -9 -72 -9 -72 -47 -3 -48 -3 0 -39 0 -39 48 -3
47 -3 5 -217 c5 -199 7 -219 26 -245 38 -52 119 -76 192 -57 19 5 22 13 22 51
0 40 -2 43 -19 33 -49 -26 -107 -2 -121 51 -6 21 -9 115 -8 211 l3 173 73 3
72 3 0 39 0 40 -75 0 -76 0 7 90 c4 50 5 90 3 89 -2 0 -22 -7 -45 -15z"/>
<path d="M7055 5871 c-297 -54 -482 -169 -569 -351 -29 -61 -31 -72 -31 -180
0 -108 2 -119 31 -180 75 -158 203 -250 564 -410 320 -141 409 -190 483 -266
61 -62 79 -106 79 -191 0 -132 -66 -223 -200 -273 -240 -90 -652 -45 -907 99
-29 17 -56 27 -59 24 -3 -4 -6 -66 -6 -138 l0 -133 51 -21 c254 -110 746 -126
1019 -34 189 64 322 175 374 313 60 162 25 351 -89 478 -100 111 -230 188
-574 341 -297 132 -370 178 -433 268 -26 39 -32 58 -36 120 -6 93 13 147 73
202 104 95 214 126 455 126 225 0 326 -21 528 -112 9 -4 12 25 12 126 l0 132
-43 19 c-122 54 -526 77 -722 41z"/>
<path d="M483 5128 c4 -763 4 -760 47 -894 56 -176 207 -334 388 -408 128 -51
239 -68 447 -68 168 0 203 3 302 25 285 65 464 210 553 449 52 142 52 135 60
893 4 391 5 716 2 723 -3 9 -41 12 -143 12 l-139 0 0 -677 c0 -540 -3 -694
-14 -758 -49 -275 -203 -415 -493 -448 -303 -33 -556 70 -653 268 -76 155 -81
210 -80 970 0 341 1 626 0 633 0 9 -35 12 -140 12 l-141 0 4 -732z"/>
<path d="M2890 4825 l0 -1035 645 0 646 0 -3 108 -3 107 -497 3 -498 2 0 360
0 360 435 0 436 0 -3 108 -3 107 -432 3 -433 2 0 345 0 345 470 0 470 0 0 110
0 110 -615 0 -615 0 0 -1035z"/>
<path d="M4409 5763 c32 -54 192 -323 356 -598 164 -275 313 -525 331 -556
l34 -57 0 -381 0 -381 145 0 145 0 0 381 0 382 92 151 c50 83 228 374 396 646
167 272 306 498 309 503 2 4 -64 6 -148 5 l-152 -3 -82 -135 c-45 -74 -171
-281 -281 -460 -109 -179 -213 -354 -232 -390 -19 -36 -35 -67 -37 -69 -2 -2
-21 32 -43 75 -21 44 -51 98 -65 121 -15 24 -27 45 -27 47 0 2 -42 75 -93 163
-51 87 -122 208 -157 268 -35 61 -84 146 -110 190 -26 44 -61 106 -79 138
l-32 57 -164 0 -164 0 58 -97z"/>
<path d="M14699 5799 c-94 -14 -161 -68 -202 -159 -29 -67 -35 -211 -11 -286
55 -176 267 -233 397 -106 l37 36 0 -69 c-1 -123 -51 -193 -156 -215 -67 -14
-151 -2 -213 30 l-41 20 0 -48 c0 -57 8 -63 109 -83 153 -30 305 24 358 126
38 71 43 123 43 438 l0 307 -50 0 -50 0 0 -36 0 -36 -40 36 c-22 20 -43 36
-48 36 -4 1 -25 4 -47 8 -22 4 -61 5 -86 1z m142 -102 c65 -44 79 -77 79 -191
0 -77 -5 -111 -19 -142 -51 -113 -201 -139 -280 -49 -36 42 -51 90 -51 170 0
110 39 192 104 221 50 22 128 18 167 -9z"/>
<path d="M10262 5783 c-18 -8 -46 -31 -62 -50 l-30 -34 0 46 0 45 -50 0 -50 0
2 -297 3 -298 47 -3 47 -3 3 208 c3 181 5 213 22 247 25 50 68 76 128 76 57 0
103 -34 118 -88 5 -20 10 -128 10 -239 l0 -203 50 0 50 0 0 198 c0 220 8 253
69 305 46 39 118 38 161 0 43 -39 49 -78 50 -306 l0 -198 48 3 47 3 0 220 c-1
236 -7 272 -52 326 -37 44 -74 59 -143 59 -85 0 -149 -33 -190 -97 -8 -13 -13
-15 -17 -5 -10 25 -56 73 -84 87 -37 20 -136 19 -177 -2z"/>
<path d="M11205 5786 c-78 -24 -85 -32 -85 -86 l0 -49 51 32 c64 39 172 51
215 22 40 -26 75 -135 44 -135 -6 0 -56 -7 -112 -15 -189 -29 -251 -78 -252
-200 -1 -104 54 -162 163 -172 75 -7 123 9 172 58 l39 39 0 -45 0 -45 51 0 51
0 -4 233 c-3 226 -4 234 -28 282 -36 69 -88 95 -189 94 -42 0 -94 -6 -116 -13z
m235 -343 c-1 -103 -61 -173 -156 -181 -51 -4 -55 -3 -90 32 -33 33 -36 40
-31 77 6 49 28 74 75 90 38 13 118 26 170 28 32 1 32 1 32 -46z"/>
<path d="M11915 5785 c-16 -9 -44 -29 -60 -46 -17 -16 -34 -29 -38 -29 -4 0
-7 18 -7 40 l0 40 -45 0 -45 0 0 -300 0 -300 44 0 44 0 4 203 c3 199 3 203 30
248 31 53 76 79 138 79 56 0 94 -22 116 -67 16 -33 19 -67 22 -251 l3 -213 47
3 47 3 3 160 c5 265 -15 359 -86 413 -30 23 -47 27 -111 30 -55 2 -84 -1 -106
-13z"/>
<path d="M16390 5789 c-14 -6 -42 -26 -62 -47 l-38 -36 0 42 0 42 -50 0 -50 0
2 -297 3 -298 45 0 45 0 5 210 c4 177 8 215 23 243 39 72 146 97 204 48 46
-38 53 -82 53 -305 l0 -202 48 3 47 3 5 210 c4 187 7 214 25 243 44 73 145 96
203 47 43 -36 52 -92 52 -316 l0 -190 48 3 47 3 -3 220 c-4 241 -9 279 -49
326 -35 42 -79 59 -150 59 -70 0 -131 -28 -168 -76 l-27 -35 -22 33 c-37 56
-80 78 -150 77 -34 0 -72 -5 -86 -10z"/>
<path d="M9490 5750 l0 -40 155 0 c85 0 155 -2 155 -5 0 -3 -42 -63 -93 -133
-178 -242 -257 -355 -257 -368 0 -11 47 -14 250 -14 l250 0 0 40 0 40 -175 0
c-96 0 -175 2 -175 5 0 2 77 112 172 242 94 131 173 246 176 255 4 17 -11 18
-227 18 l-231 0 0 -40z"/>
<path d="M12690 5490 l0 -300 45 0 45 0 0 300 0 300 -45 0 -45 0 0 -300z"/>
<path d="M15212 5493 l3 -298 48 -3 47 -3 0 300 0 301 -50 0 -50 0 2 -297z"/>
<path d="M15900 5489 l0 -300 48 3 47 3 3 298 2 297 -50 0 -50 0 0 -301z"/>
<path d="M17230 5490 l0 -300 45 0 45 0 0 300 0 300 -45 0 -45 0 0 -300z"/>
<path d="M11804 4472 c-37 -24 -36 -91 1 -106 44 -17 95 12 95 54 0 42 -62 75
-96 52z"/>
<path d="M14085 4466 c-11 -8 -18 -26 -18 -46 0 -37 23 -60 60 -60 28 0 63 33
63 60 0 47 -65 76 -105 46z"/>
<path d="M16936 4458 c-21 -30 -20 -61 2 -81 40 -36 102 -9 102 45 0 53 -74
79 -104 36z"/>
<path d="M13601 4445 c-139 -39 -209 -138 -181 -256 18 -73 63 -117 195 -189
65 -35 131 -75 148 -89 92 -77 61 -195 -59 -222 -82 -18 -168 -1 -287 59 -4 2
-7 -22 -5 -54 3 -58 3 -59 41 -71 122 -40 270 -34 359 14 68 37 101 88 106
163 4 49 0 66 -24 110 -32 59 -80 97 -209 165 -144 77 -164 98 -165 173 0 83
82 129 212 119 36 -3 85 -15 109 -26 24 -12 44 -21 46 -21 2 0 3 24 3 54 0 52
-1 54 -32 66 -55 19 -196 22 -257 5z"/>
<path d="M8699 4303 c38 -76 97 -195 130 -266 l61 -127 0 -150 0 -150 50 0 50
0 0 154 0 154 135 256 c74 141 135 259 135 261 0 3 -22 5 -50 5 l-49 0 -34
-62 c-19 -35 -68 -129 -109 -211 l-74 -147 -87 176 c-48 96 -87 179 -87 184 0
5 -5 21 -12 35 -10 23 -17 25 -70 25 l-58 0 69 -137z"/>
<path d="M9465 4406 c-37 -56 44 -117 88 -68 22 24 21 55 -1 75 -28 25 -69 21
-87 -7z"/>
<path d="M9696 4414 c-34 -33 -7 -94 42 -94 43 0 71 67 40 98 -17 17 -64 15
-82 -4z"/>
<path d="M11450 4366 l-35 -13 -3 -71 -3 -72 -49 0 -50 0 0 -45 0 -45 49 0 50
0 3 -212 c3 -200 4 -215 25 -249 28 -44 59 -59 126 -59 85 0 97 7 97 49 l0 38
-54 -5 c-45 -4 -57 -1 -75 17 -20 20 -21 31 -21 221 l0 200 76 0 75 0 -3 43
-3 42 -72 3 -73 3 0 84 c0 93 0 93 -60 71z"/>
<path d="M14943 4368 l-33 -11 0 -73 0 -73 -52 -3 -53 -3 0 -40 0 -40 50 -5
50 -5 5 -217 c5 -200 7 -219 26 -245 30 -40 61 -53 126 -53 79 0 88 5 88 49
l0 38 -53 -5 c-44 -3 -55 -1 -72 18 -18 20 -20 39 -23 221 l-4 199 77 0 76 0
-3 43 -3 42 -72 3 -73 3 0 84 c0 92 1 91 -57 73z"/>
<path d="M9532 4205 c-135 -42 -210 -167 -200 -329 12 -177 117 -279 288 -279
128 0 223 59 272 167 33 74 33 219 -1 293 -59 131 -212 194 -359 148z m157
-75 c105 -30 159 -182 116 -326 -25 -84 -84 -126 -176 -126 -135 0 -208 94
-197 252 5 68 31 131 66 163 44 40 126 56 191 37z"/>
<path d="M10292 4209 c-18 -5 -52 -29 -77 -52 l-44 -43 -3 46 -3 45 -45 0 -45
0 -3 -297 -2 -298 50 0 50 0 0 193 c0 165 3 198 19 232 59 127 211 142 265 26
19 -42 21 -62 20 -248 l-1 -203 50 0 49 0 -4 233 c-3 214 -5 235 -24 272 -12
22 -30 48 -41 57 -47 43 -135 58 -211 37z"/>
<path d="M10920 4211 c-82 -27 -141 -80 -179 -161 -22 -47 -26 -68 -26 -150 1
-81 5 -103 27 -152 31 -68 66 -103 128 -131 77 -35 252 -21 307 24 7 7 13 31
13 56 l0 44 -27 -19 c-42 -29 -97 -44 -163 -43 -105 0 -167 53 -185 159 l-7
42 211 0 211 0 0 65 c0 116 -45 207 -123 246 -45 23 -145 34 -187 20z m130
-89 c48 -24 82 -77 78 -122 l-3 -35 -147 0 c-80 0 -149 3 -153 7 -13 13 7 70
38 105 55 62 122 78 187 45z"/>
<path d="M12286 4205 c-21 -7 -56 -30 -77 -51 l-38 -37 -3 44 -3 44 -42 3 -43
3 0 -300 0 -301 44 0 44 0 4 203 c3 181 5 206 24 241 39 76 116 104 184 69 64
-33 70 -60 70 -300 l0 -213 50 0 50 0 0 183 c0 100 5 199 11 221 6 21 28 57
49 80 35 37 43 41 89 41 60 0 100 -26 118 -76 8 -22 12 -108 12 -241 l1 -208
51 0 51 0 -4 233 c-3 216 -5 235 -25 274 -26 48 -60 77 -110 94 -77 25 -199
-15 -240 -81 l-19 -30 -25 37 c-45 71 -137 99 -223 68z"/>
<path d="M14462 4202 c-94 -34 -143 -105 -128 -186 11 -60 56 -100 157 -142
125 -52 164 -103 124 -161 -33 -46 -177 -48 -250 -3 l-35 22 0 -52 c0 -50 1
-51 38 -67 58 -25 185 -21 250 7 60 26 87 56 102 111 25 91 -23 154 -160 210
-45 19 -93 45 -106 58 -45 44 -24 110 42 131 42 14 123 6 165 -16 39 -20 39
-19 39 31 0 55 -15 65 -113 71 -54 4 -85 0 -125 -14z"/>
<path d="M15438 4207 c-150 -50 -230 -227 -184 -407 30 -115 95 -179 203 -199
61 -12 158 0 211 26 34 16 37 22 40 64 l3 46 -59 -29 c-68 -34 -160 -40 -210
-14 -40 21 -79 69 -92 114 -21 77 -34 72 196 72 l207 0 -5 85 c-7 107 -42 175
-111 218 -53 33 -140 44 -199 24z m147 -91 c37 -25 58 -63 59 -109 l1 -42 -90
-3 c-49 -2 -118 0 -152 3 l-61 6 8 30 c33 113 150 171 235 115z"/>
<path d="M16105 4205 c-22 -8 -54 -30 -72 -49 l-32 -35 -3 42 -3 42 -47 3 -48
3 0 -300 0 -301 50 0 50 0 -3 203 -2 202 27 46 c59 100 183 103 235 6 15 -27
18 -66 21 -244 l4 -213 43 0 43 0 4 203 c4 221 7 234 68 292 27 26 39 30 85
29 39 0 60 -6 76 -20 44 -39 49 -71 49 -294 l0 -210 50 0 50 0 0 205 c0 112
-5 227 -11 256 -33 155 -214 200 -339 83 l-47 -44 -28 36 c-50 66 -136 89
-220 59z"/>
<path d="M11790 3911 l0 -301 45 0 45 0 -2 298 -3 297 -42 3 -43 3 0 -300z"/>
<path d="M14080 3911 l0 -301 45 0 45 0 -2 298 -3 297 -42 3 -43 3 0 -300z"/>
<path d="M16937 4204 c-4 -4 -7 -139 -7 -301 l0 -293 50 0 50 0 -2 298 -3 297
-40 3 c-23 2 -44 0 -48 -4z"/>
</g>
</svg>
