<svg xmlns="http://www.w3.org/2000/svg" id="f710b5b1-eef6-41aa-8f14-e8820eb000f8" data-name="Layer 1" width="737.38976" height="475" viewBox="0 0 737.38976 475"><path d="M504.621,513.18165,351.97511,545.35672a17.01916,17.01916,0,0,1-20.14075-13.12822L305.64055,407.95909a17.01916,17.01916,0,0,1,13.12823-20.14074l152.64588-32.17507A17.01915,17.01915,0,0,1,491.5554,368.7715l26.19381,124.26941A17.01916,17.01916,0,0,1,504.621,513.18165Zm-185.4397-123.4063a15.017,15.017,0,0,0-11.58373,17.77124L333.79136,531.816a15.017,15.017,0,0,0,17.77124,11.58373l152.64588-32.17508a15.017,15.017,0,0,0,11.58374-17.77124L489.59841,369.184a15.017,15.017,0,0,0-17.77125-11.58373Z" transform="translate(-231.30512 -178)" fill="#3f3d56"/><path id="ea648e8d-1b31-4ae2-9566-f54bfd0d94c9" data-name="Path 411" d="M461.93038,396.61842,384.892,412.85676a2.73089,2.73089,0,0,1-3.22932-1.86307,2.63064,2.63064,0,0,1,1.99859-3.25411L462.08161,391.21c3.06195,1.72557,2.09419,4.93517-.15219,5.40867Z" transform="translate(-231.30512 -178)" fill="#ccc"/><path id="b4f9d9e0-1a47-44a2-8a19-0d88a6e9c18f" data-name="Path 412" d="M464.77869,410.13147l-77.03838,16.23835a2.73089,2.73089,0,0,1-3.22931-1.86308,2.63063,2.63063,0,0,1,1.99859-3.2541L464.92993,404.723c3.06195,1.72558,2.09418,4.93518-.1522,5.40867Z" transform="translate(-231.30512 -178)" fill="#ccc"/><path id="e168965a-63e1-4676-8cbb-3e09d33a4a3f" data-name="Path 413" d="M372.70815,437.57411l-23.51136,4.95578a2.962,2.962,0,0,1-3.50569-2.28509l-5.84823-27.74533a2.962,2.962,0,0,1,2.28509-3.50569l23.51137-4.95578a2.963,2.963,0,0,1,3.50569,2.28509l5.84823,27.74536a2.962,2.962,0,0,1-2.28509,3.50569Z" transform="translate(-231.30512 -178)" fill="#ccc"/><path id="af0ff97e-1a3a-4f6f-a511-2c807a938985" data-name="Path 414" d="M470.38655,437.84676,352.81186,462.62944a2.73086,2.73086,0,0,1-3.22929-1.86306,2.63063,2.63063,0,0,1,1.99859-3.25412l118.95758-25.07417c3.06195,1.72557,2.09419,4.93517-.15219,5.40867Z" transform="translate(-231.30512 -178)" fill="#ccc"/><path id="e60f2d91-ad3b-421b-94cb-3aa0f5092f21" data-name="Path 415" d="M473.2357,451.36376,355.661,476.14645a2.73087,2.73087,0,0,1-3.22929-1.86306,2.63063,2.63063,0,0,1,1.99858-3.25412l118.95759-25.07418c3.06195,1.72558,2.09418,4.93518-.15219,5.40867Z" transform="translate(-231.30512 -178)" fill="#ccc"/><path id="a5554f8b-57e8-4c3b-815c-c76cc46b61b5" data-name="Path 416" d="M476.083,464.87193,358.50829,489.65462a2.73088,2.73088,0,0,1-3.22929-1.86307,2.63062,2.63062,0,0,1,1.99859-3.25411l118.95759-25.07418c3.06195,1.72558,2.09418,4.93517-.1522,5.40867Z" transform="translate(-231.30512 -178)" fill="#ccc"/><path id="eee68bf7-fbe9-4bfc-85ae-b0141fb14f45" data-name="Path 417" d="M478.93192,478.38793,361.35723,503.17062a2.73087,2.73087,0,0,1-3.22929-1.86307,2.63061,2.63061,0,0,1,1.99858-3.25411l118.95759-25.07418c3.06195,1.72558,2.09418,4.93517-.15219,5.40867Z" transform="translate(-231.30512 -178)" fill="#ccc"/><path id="b9a7afa1-162f-46e2-88e2-f572ab59fc71" data-name="Path 418" d="M481.77942,491.89711,364.20473,516.6798a2.73087,2.73087,0,0,1-3.22929-1.86307,2.6306,2.6306,0,0,1,1.99858-3.25411l118.95759-25.07418c3.062,1.72558,2.09418,4.93518-.15219,5.40867Z" transform="translate(-231.30512 -178)" fill="#ccc"/><path d="M726.69488,352h-156a17.01917,17.01917,0,0,1-17-17V208a17.01917,17.01917,0,0,1,17-17h156a17.01917,17.01917,0,0,1,17,17V335A17.01917,17.01917,0,0,1,726.69488,352Zm-156-159a15.017,15.017,0,0,0-15,15V335a15.017,15.017,0,0,0,15,15h156a15.017,15.017,0,0,0,15-15V208a15.017,15.017,0,0,0-15-15Z" transform="translate(-231.30512 -178)" fill="#3f3d56"/><path id="eb40ba0f-f2ca-41e6-ba2e-bd824fb45cdc" data-name="Path 411" d="M708.96338,229.138H630.23221a2.73088,2.73088,0,0,1-2.77562-2.48906,2.63064,2.63064,0,0,1,2.62678-2.77193h80.14349c2.64021,2.32,1.03128,5.261-1.26446,5.261Z" transform="translate(-231.30512 -178)" fill="#ccc"/><path id="ea390b26-798a-41d7-8695-eb41cfeb13d4" data-name="Path 412" d="M708.96338,242.948H630.23221a2.73088,2.73088,0,0,1-2.77562-2.48906,2.63064,2.63064,0,0,1,2.62678-2.77193h80.14349c2.64021,2.32,1.03128,5.261-1.26446,5.261Z" transform="translate(-231.30512 -178)" fill="#ccc"/><path id="f9b4f79e-9356-48bc-89d8-91f80de67df3" data-name="Path 413" d="M613.21237,250.811h-24.028a2.962,2.962,0,0,1-2.959-2.959V219.497a2.962,2.962,0,0,1,2.959-2.959h24.028a2.963,2.963,0,0,1,2.959,2.959v28.355a2.962,2.962,0,0,1-2.959,2.959Z" transform="translate(-231.30512 -178)" fill="#3f3d56"/><path id="f3294a48-db04-45e1-afc8-dab6eb28e529" data-name="Path 414" d="M708.73437,271.224H588.57619a2.73087,2.73087,0,0,1-2.7756-2.489,2.63061,2.63061,0,0,1,2.62677-2.77194H709.99883c2.64022,2.32,1.03128,5.261-1.26446,5.261Z" transform="translate(-231.30512 -178)" fill="#ccc"/><path id="bb6dba8b-bb0a-4f92-a6ea-c6252f741607" data-name="Path 415" d="M708.73437,285.038H588.57619a2.73087,2.73087,0,0,1-2.7756-2.48905,2.63061,2.63061,0,0,1,2.62677-2.77194H709.99883c2.64022,2.32,1.03128,5.261-1.26446,5.261Z" transform="translate(-231.30512 -178)" fill="#ccc"/><path id="b1d451cb-91ad-40cf-876e-6a74c98e5c4f" data-name="Path 416" d="M708.73437,298.843H588.57619a2.73086,2.73086,0,0,1-2.7756-2.48905,2.63061,2.63061,0,0,1,2.62677-2.77194H709.99883c2.64022,2.32,1.03128,5.261-1.26446,5.261Z" transform="translate(-231.30512 -178)" fill="#ccc"/><path id="bcef27e7-bcca-4cc4-a6d4-200e9e04132c" data-name="Path 417" d="M708.73437,312.656H588.57619a2.73086,2.73086,0,0,1-2.7756-2.489,2.63061,2.63061,0,0,1,2.62677-2.77194H709.99883c2.64022,2.32,1.03128,5.261-1.26446,5.261Z" transform="translate(-231.30512 -178)" fill="#ccc"/><path id="ed29f808-f3a3-4ac8-bd45-563f73aa9d8b" data-name="Path 418" d="M708.73437,326.462H588.57619a2.73087,2.73087,0,0,1-2.7756-2.48905,2.63062,2.63062,0,0,1,2.62677-2.77195H709.99883c2.64022,2.32,1.03128,5.261-1.26446,5.261Z" transform="translate(-231.30512 -178)" fill="#ccc"/><path d="M692.69488,178a5.00573,5.00573,0,0,1,5,5v16a5.00573,5.00573,0,0,1-5,5h-88a5.00573,5.00573,0,0,1-5-5V183a5.00573,5.00573,0,0,1,5-5" transform="translate(-231.30512 -178)" fill="#1cc0bb"/><path d="M951.69488,509h-156a17.01917,17.01917,0,0,1-17-17V365a17.01917,17.01917,0,0,1,17-17h156a17.01917,17.01917,0,0,1,17,17V492A17.01917,17.01917,0,0,1,951.69488,509Zm-156-159a15.017,15.017,0,0,0-15,15V492a15.017,15.017,0,0,0,15,15h156a15.017,15.017,0,0,0,15-15V365a15.017,15.017,0,0,0-15-15Z" transform="translate(-231.30512 -178)" fill="#3f3d56"/><path id="ab56b95a-ad0a-4db6-b885-1de339e59248" data-name="Path 411" d="M933.96338,386.138H855.23221a2.73088,2.73088,0,0,1-2.77562-2.48906,2.63064,2.63064,0,0,1,2.62678-2.77193h80.14349c2.64021,2.32,1.03128,5.261-1.26446,5.261Z" transform="translate(-231.30512 -178)" fill="#3f3d56"/><path id="a65ba0e0-92d5-467b-b937-6962ba88422c" data-name="Path 412" d="M933.96338,399.948H855.23221a2.73088,2.73088,0,0,1-2.77562-2.48906,2.63064,2.63064,0,0,1,2.62678-2.77193h80.14349c2.64021,2.32,1.03128,5.261-1.26446,5.261Z" transform="translate(-231.30512 -178)" fill="#3f3d56"/><path id="fb801fe4-3edc-4e65-9957-dec023933e0a" data-name="Path 413" d="M838.21237,407.811h-24.028a2.962,2.962,0,0,1-2.959-2.959V376.497a2.962,2.962,0,0,1,2.959-2.959h24.028a2.963,2.963,0,0,1,2.959,2.959v28.355a2.962,2.962,0,0,1-2.959,2.959Z" transform="translate(-231.30512 -178)" fill="#ccc"/><path id="faab0864-6611-44c5-86ab-6dd51d336b1d" data-name="Path 413" d="M933.21237,484.811h-24.028a2.962,2.962,0,0,1-2.959-2.959V465.497a2.962,2.962,0,0,1,2.959-2.959h24.028a2.963,2.963,0,0,1,2.959,2.959v16.355a2.962,2.962,0,0,1-2.959,2.959Z" transform="translate(-231.30512 -178)" fill="#3f3d56"/><path id="ada3facf-2b93-40cb-83c6-b6d8dc380c35" data-name="Path 414" d="M933.73437,428.224H813.57619a2.73087,2.73087,0,0,1-2.7756-2.489,2.63061,2.63061,0,0,1,2.62677-2.77194H934.99883c2.64022,2.32,1.03128,5.261-1.26446,5.261Z" transform="translate(-231.30512 -178)" fill="#ccc"/><path id="a50891a7-c495-4965-ab40-a1f907e5cce2" data-name="Path 415" d="M933.73437,442.038H813.57619a2.73087,2.73087,0,0,1-2.7756-2.48905,2.63061,2.63061,0,0,1,2.62677-2.77194H934.99883c2.64022,2.32,1.03128,5.261-1.26446,5.261Z" transform="translate(-231.30512 -178)" fill="#ccc"/><path id="f645be9d-0c31-4d92-bfb2-feede413f090" data-name="Path 416" d="M933.73437,455.843H813.57619a2.73086,2.73086,0,0,1-2.7756-2.48905,2.63061,2.63061,0,0,1,2.62677-2.77194H934.99883c2.64022,2.32,1.03128,5.261-1.26446,5.261Z" transform="translate(-231.30512 -178)" fill="#ccc"/><path id="f96ba49d-c571-4857-91da-e214cd5ba82f" data-name="Path 417" d="M870.73437,469.656H813.57619a2.73086,2.73086,0,0,1-2.7756-2.489,2.63061,2.63061,0,0,1,2.62677-2.77194h58.57147c2.64022,2.32,1.03128,5.261-1.26446,5.261Z" transform="translate(-231.30512 -178)" fill="#ccc"/><path id="a7214c6f-9d52-425a-b9ef-635698aec079" data-name="Path 418" d="M870.73437,483.462H813.57619a2.73087,2.73087,0,0,1-2.7756-2.48905,2.63062,2.63062,0,0,1,2.62677-2.77195h58.57147c2.64022,2.32,1.03128,5.261-1.26446,5.261Z" transform="translate(-231.30512 -178)" fill="#ccc"/><path d="M917.69488,361h-88a5.00573,5.00573,0,0,1-5-5V340a5.00573,5.00573,0,0,1,5-5h88a5.00573,5.00573,0,0,1,5,5v16A5.00573,5.00573,0,0,1,917.69488,361Z" transform="translate(-231.30512 -178)" fill="#1cc0bb"/><circle cx="96.76378" cy="23.3243" r="6.46689" fill="#f2f2f2"/><circle cx="96.76378" cy="49.0976" r="6.46689" fill="#f2f2f2"/><circle cx="96.76378" cy="74.8709" r="6.46689" fill="#f2f2f2"/><circle cx="96.76378" cy="100.6442" r="6.46689" fill="#f2f2f2"/><circle cx="123.76378" cy="23.3243" r="6.46689" fill="#f2f2f2"/><circle cx="123.76378" cy="49.0976" r="6.46689" fill="#f2f2f2"/><circle cx="123.76378" cy="74.8709" r="6.46689" fill="#f2f2f2"/><circle cx="123.76378" cy="100.6442" r="6.46689" fill="#f2f2f2"/><circle cx="150.76378" cy="23.3243" r="6.46689" fill="#f2f2f2"/><circle cx="150.76378" cy="49.0976" r="6.46689" fill="#f2f2f2"/><circle cx="150.76378" cy="74.8709" r="6.46689" fill="#f2f2f2"/><circle cx="150.76378" cy="100.6442" r="6.46689" fill="#f2f2f2"/><circle cx="177.76378" cy="23.3243" r="6.46689" fill="#f2f2f2"/><circle cx="177.76378" cy="49.0976" r="6.46689" fill="#f2f2f2"/><circle cx="177.76378" cy="74.8709" r="6.46689" fill="#f2f2f2"/><circle cx="177.76378" cy="100.6442" r="6.46689" fill="#f2f2f2"/><circle cx="204.76378" cy="23.3243" r="6.46689" fill="#f2f2f2"/><circle cx="204.76378" cy="49.0976" r="6.46689" fill="#f2f2f2"/><circle cx="204.76378" cy="74.8709" r="6.46689" fill="#f2f2f2"/><circle cx="204.76378" cy="100.6442" r="6.46689" fill="#f2f2f2"/><circle cx="231.76378" cy="23.3243" r="6.46689" fill="#f2f2f2"/><circle cx="231.76378" cy="49.0976" r="6.46689" fill="#f2f2f2"/><circle cx="231.76378" cy="74.8709" r="6.46689" fill="#f2f2f2"/><circle cx="231.76378" cy="100.6442" r="6.46689" fill="#f2f2f2"/><circle cx="601.76378" cy="381.3243" r="6.46689" fill="#f2f2f2"/><circle cx="601.76378" cy="407.0976" r="6.46689" fill="#f2f2f2"/><circle cx="601.76378" cy="432.8709" r="6.46689" fill="#f2f2f2"/><circle cx="628.76378" cy="381.3243" r="6.46689" fill="#f2f2f2"/><circle cx="628.76378" cy="407.0976" r="6.46689" fill="#f2f2f2"/><circle cx="628.76378" cy="432.8709" r="6.46689" fill="#f2f2f2"/><circle cx="655.76378" cy="381.3243" r="6.46689" fill="#f2f2f2"/><circle cx="655.76378" cy="407.0976" r="6.46689" fill="#f2f2f2"/><circle cx="655.76378" cy="432.8709" r="6.46689" fill="#f2f2f2"/><circle cx="682.76378" cy="381.3243" r="6.46689" fill="#f2f2f2"/><circle cx="682.76378" cy="407.0976" r="6.46689" fill="#f2f2f2"/><circle cx="682.76378" cy="432.8709" r="6.46689" fill="#f2f2f2"/></svg>