<svg xmlns="http://www.w3.org/2000/svg" xmlns:xlink="http://www.w3.org/1999/xlink" id="b07e16be-2c10-4721-ba95-38a6ee556ecd" data-name="Layer 1" width="1100" height="630" viewBox="630"><defs><linearGradient id="f0ea422a-a980-4a9e-8fad-43c87f6ba738" x1="421.86" y1="330.48" x2="421.86" y2="285.82" gradientUnits="userSpaceOnUse"><stop offset="0" stop-color="gray" stop-opacity="0.25"/><stop offset="0.54" stop-color="gray" stop-opacity="0.12"/><stop offset="1" stop-color="gray" stop-opacity="0.1"/></linearGradient><linearGradient id="ad2c5ae7-cdf4-4789-99a0-6bde37321e66" x1="516.9" y1="320.8" x2="516.9" y2="276.14" xlink:href="#f0ea422a-a980-4a9e-8fad-43c87f6ba738"/><linearGradient id="af61e5a9-3371-4284-9366-60d451e53b7c" x1="699.9" y1="472.8" x2="699.9" y2="428.14" xlink:href="#f0ea422a-a980-4a9e-8fad-43c87f6ba738"/><linearGradient id="afe800ea-76fc-42fa-87d3-444aeaebb97e" x1="293.63" y1="250.89" x2="293.63" y2="206.23" xlink:href="#f0ea422a-a980-4a9e-8fad-43c87f6ba738"/><linearGradient id="a0a14e29-1e29-4199-9658-2a5ebd9bc7a2" x1="385.29" y1="314.89" x2="385.29" y2="270.23" xlink:href="#f0ea422a-a980-4a9e-8fad-43c87f6ba738"/><linearGradient id="b9eaa648-e9e9-4a67-ba92-603c001fbd1d" x1="753.86" y1="472.48" x2="753.86" y2="427.82" xlink:href="#f0ea422a-a980-4a9e-8fad-43c87f6ba738"/><linearGradient id="f05d82f5-c8d6-44fc-8266-fef5229bfdcd" x1="834.86" y1="251.48" x2="834.86" y2="206.82" xlink:href="#f0ea422a-a980-4a9e-8fad-43c87f6ba738"/><linearGradient id="fed5a35b-50d2-4029-b1da-9e4ece87a2f7" x1="829.86" y1="393.48" x2="829.86" y2="348.82" xlink:href="#f0ea422a-a980-4a9e-8fad-43c87f6ba738"/><linearGradient id="a057bd9d-3da5-4ef9-9b1f-12de91a9714e" x1="864.86" y1="403.48" x2="864.86" y2="358.82" xlink:href="#f0ea422a-a980-4a9e-8fad-43c87f6ba738"/><linearGradient id="eb119f49-f305-49d7-b722-178b1b910dac" x1="717.29" y1="456.89" x2="717.29" y2="412.23" xlink:href="#f0ea422a-a980-4a9e-8fad-43c87f6ba738"/><linearGradient id="f18d0c9f-76a8-47d5-9395-c2e15513d6af" x1="722.29" y1="321.89" x2="722.29" y2="277.23" xlink:href="#f0ea422a-a980-4a9e-8fad-43c87f6ba738"/><linearGradient id="e96273f1-ace8-4241-9189-48d1ceb051fa" x1="122.28" y1="564.8" x2="344.94" y2="564.8" xlink:href="#f0ea422a-a980-4a9e-8fad-43c87f6ba738"/><linearGradient id="fa251bcb-f561-47ff-8b25-b5a12635a0f6" x1="277.86" y1="393.48" x2="277.86" y2="348.82" xlink:href="#f0ea422a-a980-4a9e-8fad-43c87f6ba738"/></defs><title>schedule</title><path d="M1082.52,115.31H121.64a8.56,8.56,0,0,0-8.56,8.56v24.94h978V123.87A8.56,8.56,0,0,0,1082.52,115.31Z" transform="translate(-33.81 -66.43)" fill="#3f3d56"/><path d="M113.08,148.81V710.05a17.26,17.26,0,0,0,17.26,17.26h943.48a17.26,17.26,0,0,0,17.26-17.26V148.81Z" transform="translate(-33.81 -66.43)" fill="#fff"/><circle cx="94.77" cy="65.37" r="4" fill="#fa5959" opacity="0.8"/><circle cx="105.77" cy="65.37" r="4" fill="#fed253" opacity="0.8"/><circle cx="116.77" cy="65.37" r="4" fill="#8ccf4d" opacity="0.8"/><g opacity="0.3"><rect x="116.77" y="116.37" width="904" height="510" fill="none" stroke="#3f3d56" stroke-miterlimit="10"/><rect x="234.77" y="116.37" width="668" height="510" fill="none" stroke="#3f3d56" stroke-miterlimit="10"/><rect x="352.77" y="116.37" width="432" height="510" fill="none" stroke="#3f3d56" stroke-miterlimit="10"/><rect x="470.77" y="116.37" width="196" height="510" fill="none" stroke="#3f3d56" stroke-miterlimit="10"/><line x1="568.77" y1="116.37" x2="568.77" y2="626.37" fill="none" stroke="#3f3d56" stroke-miterlimit="10"/><rect x="116.77" y="190.37" width="904" height="362" fill="none" stroke="#3f3d56" stroke-miterlimit="10"/><rect x="116.77" y="263.37" width="904" height="216" fill="none" stroke="#3f3d56" stroke-miterlimit="10"/><rect x="116.77" y="336.37" width="904" height="70" fill="none" stroke="#3f3d56" stroke-miterlimit="10"/></g><rect x="258.27" y="144.87" width="71" height="26" fill="#3f3d56" opacity="0.1"/><rect x="147.27" y="215.87" width="53" height="26" fill="#3f3d56" opacity="0.1"/><rect x="373.27" y="144.87" width="71" height="26" fill="#3f3d56" opacity="0.1"/><rect x="481.27" y="144.87" width="71" height="26" fill="#3f3d56" opacity="0.1"/><rect x="581.27" y="144.87" width="71" height="26" fill="#3f3d56" opacity="0.1"/><rect x="693.27" y="144.87" width="71" height="26" fill="#3f3d56" opacity="0.1"/><rect x="807.27" y="144.87" width="71" height="26" fill="#3f3d56" opacity="0.1"/><rect x="928.27" y="144.87" width="71" height="26" fill="#3f3d56" opacity="0.1"/><rect x="398.79" y="285.82" width="46.13" height="44.66" fill="url(#f0ea422a-a980-4a9e-8fad-43c87f6ba738)"/><rect x="399.59" y="286.59" width="44.54" height="43.12" fill="#7cfcff"/><rect x="493.83" y="276.14" width="46.13" height="44.66" fill="url(#ad2c5ae7-cdf4-4789-99a0-6bde37321e66)"/><rect x="494.63" y="276.91" width="44.54" height="43.12" fill="#ffffa5"/><rect x="676.83" y="428.14" width="46.13" height="44.66" fill="url(#af61e5a9-3371-4284-9366-60d451e53b7c)"/><rect x="677.63" y="428.91" width="44.54" height="43.12" fill="#ffffa5"/><rect x="270.57" y="206.23" width="46.13" height="44.66" fill="url(#afe800ea-76fc-42fa-87d3-444aeaebb97e)"/><rect x="271.36" y="207" width="44.54" height="43.12" fill="#ffffa5"/><rect x="362.23" y="270.23" width="46.13" height="44.66" fill="url(#a0a14e29-1e29-4199-9658-2a5ebd9bc7a2)"/><rect x="363.02" y="271" width="44.54" height="43.12" fill="#ff69b4"/><rect x="730.79" y="427.82" width="46.13" height="44.66" fill="url(#b9eaa648-e9e9-4a67-ba92-603c001fbd1d)"/><rect x="731.59" y="428.59" width="44.54" height="43.12" fill="#7cfcff"/><rect x="811.79" y="206.82" width="46.13" height="44.66" fill="url(#f05d82f5-c8d6-44fc-8266-fef5229bfdcd)"/><rect x="812.59" y="207.59" width="44.54" height="43.12" fill="#7cfcff"/><rect x="806.79" y="348.82" width="46.13" height="44.66" fill="url(#fed5a35b-50d2-4029-b1da-9e4ece87a2f7)"/><rect x="807.59" y="349.59" width="44.54" height="43.12" fill="#7cfcff"/><rect x="841.79" y="358.82" width="46.13" height="44.66" fill="url(#a057bd9d-3da5-4ef9-9b1f-12de91a9714e)"/><rect x="842.59" y="359.59" width="44.54" height="43.12" fill="#7cfcff"/><rect x="694.23" y="412.23" width="46.13" height="44.66" fill="url(#eb119f49-f305-49d7-b722-178b1b910dac)"/><rect x="695.02" y="413" width="44.54" height="43.12" fill="#ff69b4"/><rect x="699.23" y="277.23" width="46.13" height="44.66" fill="url(#f18d0c9f-76a8-47d5-9395-c2e15513d6af)"/><rect x="700.02" y="278" width="44.54" height="43.12" fill="#ff69b4"/><rect x="147.27" y="285.87" width="53" height="26" fill="#3f3d56" opacity="0.1"/><rect x="147.27" y="358.87" width="53" height="26" fill="#3f3d56" opacity="0.1"/><rect x="147.27" y="431.87" width="53" height="26" fill="#3f3d56" opacity="0.1"/><rect x="147.27" y="504.87" width="53" height="26" fill="#3f3d56" opacity="0.1"/><rect x="147.27" y="577.87" width="53" height="26" fill="#3f3d56" opacity="0.1"/><g opacity="0.1"><path d="M164.45,483.22A52.55,52.55,0,0,0,168,472.9a13.34,13.34,0,0,1-3.46,2.29,52.32,52.32,0,0,1-3,8,7.6,7.6,0,0,0,4.7.6A7.47,7.47,0,0,1,164.45,483.22Z" transform="translate(-33.81 -66.43)"/><path d="M208.08,350.1a16.77,16.77,0,0,1,4.64-1.08l-.55,0a16.29,16.29,0,0,0-4.11.31C208.07,349.55,208.08,349.82,208.08,350.1Z" transform="translate(-33.81 -66.43)"/><path d="M224.65,374.9a54.55,54.55,0,0,1-7.37-3.79,6.4,6.4,0,0,0-2.17-.88,7.49,7.49,0,0,0-2.26.14,9.26,9.26,0,0,1,1.56.74,54.67,54.67,0,0,0,7.38,3.79,33,33,0,0,0,12.34,1.6A28.94,28.94,0,0,1,224.65,374.9Z" transform="translate(-33.81 -66.43)"/><path d="M205.71,369.71c0,.22-.09.44-.14.66a15.12,15.12,0,0,0,3.62.1A16,16,0,0,1,205.71,369.71Z" transform="translate(-33.81 -66.43)"/></g><rect x="254.79" y="348.82" width="46.13" height="44.66" fill="url(#fa251bcb-f561-47ff-8b25-b5a12635a0f6)"/></svg>