<svg xmlns="http://www.w3.org/2000/svg" id="ef5a821c-0415-4aa8-b37e-a4b84ad98d37" data-name="Layer 1" width="400" height="647.00005" viewBox="0 0 400 647.00005"><path d="M216.41356,126.5a31.98219,31.98219,0,0,0-31.94577,31.94581v583.109A31.9821,31.9821,0,0,0,216.41356,773.5H535.81078a31.982,31.982,0,0,0,31.9458-31.94525v-583.109A31.98221,31.98221,0,0,0,535.81078,126.5Z" transform="translate(-184.46779 -126.49998)" fill="#e6e6e6"/><path d="M226.85448,144.65014a24.26412,24.26412,0,0,0-24.23654,24.23654V731.11282a24.26423,24.26423,0,0,0,24.23654,24.237H525.36986a24.2642,24.2642,0,0,0,24.23651-24.237V168.88668a24.26414,24.26414,0,0,0-24.23651-24.23654Z" transform="translate(-184.46779 -126.49998)" fill="#fff"/><path d="M520.24608,263.147H231.97826a5.34457,5.34457,0,0,1-5.33829-5.33829V186.3018a5.34456,5.34456,0,0,1,5.33829-5.33829H520.24608a5.34458,5.34458,0,0,1,5.33832,5.33829v71.50694A5.34458,5.34458,0,0,1,520.24608,263.147ZM231.97826,183.09879a3.20647,3.20647,0,0,0-3.203,3.203v71.50694a3.20646,3.20646,0,0,0,3.203,3.203H520.24608a3.20644,3.20644,0,0,0,3.203-3.203V186.3018a3.20645,3.20645,0,0,0-3.203-3.203Z" transform="translate(-184.46779 -126.49998)" fill="#e6e6e6"/><path d="M520.24608,546.07607H231.97826a5.3446,5.3446,0,0,1-5.33829-5.33825V408.37438a5.34457,5.34457,0,0,1,5.33829-5.33829H520.24608a5.3446,5.3446,0,0,1,5.33826,5.33829V540.73782A5.34459,5.34459,0,0,1,520.24608,546.07607ZM231.97826,405.17141a3.20646,3.20646,0,0,0-3.203,3.203V540.73782a3.20645,3.20645,0,0,0,3.203,3.203H520.24608a3.20643,3.20643,0,0,0,3.203-3.203V408.37438a3.20644,3.20644,0,0,0-3.203-3.203Z" transform="translate(-184.46779 -126.49998)" fill="#e6e6e6"/><path d="M518.11077,374.18331H389.99144a5.34456,5.34456,0,0,1-5.33828-5.33829V297.3381a5.34456,5.34456,0,0,1,5.33828-5.33829H518.11077a5.3446,5.3446,0,0,1,5.33825,5.33829v71.507A5.34458,5.34458,0,0,1,518.11077,374.18331ZM389.99144,294.13512a3.20648,3.20648,0,0,0-3.203,3.203v71.50692a3.20648,3.20648,0,0,0,3.203,3.203H518.11077a3.20646,3.20646,0,0,0,3.203-3.203v-71.507a3.20646,3.20646,0,0,0-3.203-3.203Z" transform="translate(-184.46779 -126.49998)" fill="#e6e6e6"/><path d="M360.09758,719.03646H231.97826a5.34458,5.34458,0,0,1-5.33829-5.33832v-133.431a5.3446,5.3446,0,0,1,5.33829-5.33825H360.09758a5.3446,5.3446,0,0,1,5.33829,5.33825v133.431A5.3446,5.3446,0,0,1,360.09758,719.03646ZM231.97826,577.06417a3.20645,3.20645,0,0,0-3.203,3.203v133.431a3.20646,3.20646,0,0,0,3.203,3.203H360.09758a3.20647,3.20647,0,0,0,3.203-3.203v-133.431a3.20646,3.20646,0,0,0-3.203-3.203Z" transform="translate(-184.46779 -126.49998)" fill="#e6e6e6"/><path d="M518.11077,719.03646H389.99144a5.34456,5.34456,0,0,1-5.33828-5.33832v-133.431a5.34459,5.34459,0,0,1,5.33828-5.33825H518.11077a5.34459,5.34459,0,0,1,5.33825,5.33825v133.431A5.34459,5.34459,0,0,1,518.11077,719.03646ZM389.99144,577.06417a3.20645,3.20645,0,0,0-3.203,3.203v133.431a3.20646,3.20646,0,0,0,3.203,3.203H518.11077a3.20644,3.20644,0,0,0,3.203-3.203v-133.431a3.20644,3.20644,0,0,0-3.203-3.203Z" transform="translate(-184.46779 -126.49998)" fill="#e6e6e6"/><circle cx="90.16611" cy="323.42542" r="21.74535" fill="#e6e6e6"/><path d="M324.85527,435.42849a3.62422,3.62422,0,0,0,0,7.24844H495.7116a3.62423,3.62423,0,0,0,0-7.24844Z" transform="translate(-184.46779 -126.49998)" fill="#e6e6e6"/><path d="M324.85527,457.17379a3.62423,3.62423,0,0,0-.01529,7.24844h73.53528a3.62422,3.62422,0,1,0,0-7.24844Z" transform="translate(-184.46779 -126.49998)" fill="#e6e6e6"/><path d="M257.95464,491.93835c-2.75687,0-5.00031,1.626-5.00031,3.62423s2.24344,3.62421,5.00031,3.62421H493.68376c2.7569,0,5.00031-1.626,5.00031-3.62421s-2.24347-3.62423-5.00031-3.62423Z" transform="translate(-184.46779 -126.49998)" fill="#e6e6e6"/><path d="M257.95464,513.68368c-2.75687,0-5.00031,1.626-5.00031,3.6242s2.24344,3.62421,5.00031,3.62421H493.68376c2.7569,0,5.00031-1.626,5.00031-3.62421s-2.24347-3.6242-5.00031-3.6242Z" transform="translate(-184.46779 -126.49998)" fill="#e6e6e6"/><circle cx="92.30142" cy="92.81155" r="21.74535" fill="#e6e6e6"/><path d="M326.99059,204.81463a3.62423,3.62423,0,0,0,0,7.24844H497.84691a3.62423,3.62423,0,1,0,.01532-7.24844c-.00513,0-.01019,0-.01532,0Z" transform="translate(-184.46779 -126.49998)" fill="#e6e6e6"/><path d="M326.99059,226.56a3.62423,3.62423,0,0,0,0,7.24845h73.52a3.62423,3.62423,0,0,0,.01529-7.24845q-.00765,0-.01529,0Z" transform="translate(-184.46779 -126.49998)" fill="#e6e6e6"/><path d="M359.98418,374.19634h-120.187l28.284-48.9902a5.7757,5.7757,0,0,1,10.00406,0l12.08255,20.92773,20.54456-35.584a7.23126,7.23126,0,0,1,12.52515,0ZM243.49538,372.061H356.286l-34.898-60.44354a5.09525,5.09525,0,0,0-8.8259,0l-22.39423,38.787L276.23571,326.2738a3.63969,3.63969,0,0,0-6.30481,0Z" transform="translate(-184.46779 -126.49998)" fill="#e6e6e6"/><path d="M513.72679,374.19634h-120.187l28.284-48.9902a5.77567,5.77567,0,0,1,10.00409,0l12.08258,20.92773,20.54455-35.584a7.23125,7.23125,0,0,1,12.52515,0ZM397.23806,372.061H510.02855l-34.898-60.44354a5.09526,5.09526,0,0,0-8.82587,0l-22.39422,38.787L429.97826,326.2738a3.63969,3.63969,0,0,0-6.30481,0Z" transform="translate(-184.46779 -126.49998)" fill="#e6e6e6"/><path d="M360.09758,374.18331H231.97826A5.34457,5.34457,0,0,1,226.64,368.845V297.3381a5.34457,5.34457,0,0,1,5.33829-5.33829H360.09758a5.34457,5.34457,0,0,1,5.33829,5.33829v71.507A5.34456,5.34456,0,0,1,360.09758,374.18331ZM231.97826,294.13512a3.20648,3.20648,0,0,0-3.203,3.203v71.50692a3.20648,3.20648,0,0,0,3.203,3.203H360.09758a3.20649,3.20649,0,0,0,3.203-3.203v-71.507a3.20649,3.20649,0,0,0-3.203-3.203Z" transform="translate(-184.46779 -126.49998)" fill="#e6e6e6"/><path d="M259.27791,602.44479a3.62424,3.62424,0,1,0,0,7.24847h73.52a3.62424,3.62424,0,1,0,0-7.24847Z" transform="translate(-184.46779 -126.49998)" fill="#e6e6e6"/><path d="M259.27791,623.79787a3.62424,3.62424,0,1,0,0,7.24848h73.52a3.62424,3.62424,0,1,0,0-7.24848Z" transform="translate(-184.46779 -126.49998)" fill="#e6e6e6"/><path d="M296.03816,691.52053a22.81284,22.81284,0,1,1,22.81284-22.8128h0A22.83866,22.83866,0,0,1,296.03816,691.52053Zm0-43.49036a20.67753,20.67753,0,1,0,20.67753,20.67749h0a20.70157,20.70157,0,0,0-20.67753-20.67742Z" transform="translate(-184.46779 -126.49998)" fill="#e6e6e6"/><path d="M490.81108,691.52053a3.62424,3.62424,0,1,0,0-7.24847h-73.52a3.62424,3.62424,0,0,0,0,7.24847Z" transform="translate(-184.46779 -126.49998)" fill="#e6e6e6"/><path d="M490.81108,670.16744a3.62424,3.62424,0,1,0,0-7.24847h-73.52a3.62423,3.62423,0,0,0,0,7.24847Z" transform="translate(-184.46779 -126.49998)" fill="#e6e6e6"/><path d="M454.05083,602.44479A22.81284,22.81284,0,1,1,431.238,625.25765v-.00006A22.8387,22.8387,0,0,1,454.05083,602.44479Zm0,43.49035a20.67752,20.67752,0,1,0-20.67743-20.67761v.00006a20.70159,20.70159,0,0,0,20.67743,20.67749Z" transform="translate(-184.46779 -126.49998)" fill="#e6e6e6"/><circle cx="234.63652" cy="132.19294" r="54" fill="#1cc0bb" opacity="0.3" style="isolation:isolate"/><circle cx="234.63652" cy="132.19294" r="36" fill="#1cc0bb" opacity="0.3" style="isolation:isolate"/><circle cx="234.63652" cy="132.19294" r="25" fill="#1cc0bb"/><circle cx="111.63652" cy="497.19294" r="39.92126" fill="#1cc0bb" opacity="0.3" style="isolation:isolate"/><circle cx="111.63652" cy="497.19294" r="26.61417" fill="#1cc0bb" opacity="0.3" style="isolation:isolate"/><circle cx="111.63652" cy="497.19294" r="18.48206" fill="#1cc0bb"/><circle cx="277.63652" cy="341.19294" r="45.92126" fill="#1cc0bb" opacity="0.3" style="isolation:isolate"/><circle cx="277.63652" cy="341.19294" r="30.61417" fill="#1cc0bb" opacity="0.3" style="isolation:isolate"/><circle cx="277.63652" cy="341.19294" r="21.25984" fill="#1cc0bb"/></svg>